<svg width="156" height="142" viewBox="0 0 156 142" fill="none" xmlns="http://www.w3.org/2000/svg">
<path d="M128.43 4.5H139.68C145.3 4.5 149.85 9.05 149.85 14.67V30.23C149.85 31.91 152.5 39.19 152.5 39.19C152.5 39.19 150.52 38.02 148.58 37.76C145.7 37.38 147.14 40.4 139 40.4H45.62C40 40.4 35.45 35.85 35.45 30.23V14.67C35.45 9.05 40 4.5 45.62 4.5H128.43Z" fill="#C9B7EC"/>
<path d="M25.89 53.75H109.37C114.99 53.75 119.54 58.3 119.54 63.92V79.48C119.54 85.1 114.99 89.65 109.37 89.65H16C7.86 89.65 9.3 86.64 6.42 87.01C4.48 87.26 2.5 88.44 2.5 88.44C2.5 88.44 5.15 81.16 5.15 79.48V63.92C5.15 58.3 9.7 53.75 15.32 53.75H19.11" fill="#CDF567"/>
<path d="M60.65 12.7099C61.8 13.1799 63.79 15.3599 64.44 16.6599C65.35 18.4599 65.82 20.5199 65.71 22.6999C65.4 28.7199 60.57 33.6399 54.56 34.0599C47.54 34.5399 41.69 28.9899 41.69 22.0699C41.69 19.5099 42.49 17.1399 43.85 15.1899C43.85 15.1899 45.32 13.2899 46.68 12.5699" fill="white"/>
<path d="M61.87 23.11C61.87 24.78 61.05 31.03 53.66 31.03C49.97 31.03 47.91 29.25 46.77 27.46C45.86 26.03 45.42 24.35 45.42 22.65V16.83C45.42 16.83 45.91 8.64001 53.38 8.64001C60.85 8.64001 61.72 15.28 61.72 16.98C61.72 18.68 61.87 23.11 61.87 23.11Z" fill="#FFDECE"/>
<path d="M61.81 20.96C61.81 20.96 60.51 18.12 60.2 15.47C59.89 12.82 57.23 12.37 57.23 12.37C57.23 12.37 55.83 12.8 53.65 12.8C51.47 12.8 49.42 12.36 49.42 12.36C49.42 12.36 47.37 13.3 46.72 16.06C46.22 18.17 45.43 20.59 45.43 20.59C45.43 20.59 44.76 15.66 46.69 12.58C48.62 9.50001 50.66 8.64001 53.38 8.64001C56.1 8.64001 58.51 9.29001 59.86 11.47C61.21 13.65 61.73 15.74 61.8 20.96H61.81Z" fill="#0D1117"/>
<path d="M45.83 30.92L48.89 30.01C48.89 30.01 51.44 31.02 53.67 31.02C55.9 31.02 58.26 30.03 58.26 30.03L61.88 31.02C61.88 31.02 59.1 34.08 53.72 34.08C48.34 34.08 45.83 30.91 45.83 30.91V30.92Z" fill="#0D1117"/>
<path d="M61.81 18.2699C61.81 18.2699 63.31 17.9899 63.31 20.1899C63.31 22.3899 61.89 22.2599 61.89 22.2599" fill="#FFDECE"/>
<path d="M45.33 18.2699C45.33 18.2699 43.83 17.9899 43.83 20.1899C43.83 22.3899 45.25 22.2599 45.25 22.2599" fill="#FFDECE"/>
<path d="M31.66 63.76C33.53 65.88 34.66 68.66 34.66 71.71C34.66 78.35 29.28 83.73 22.64 83.73C16 83.73 10.62 78.35 10.62 71.71C10.62 69.15 11.42 66.78 12.78 64.83" fill="white"/>
<path d="M28 68.92C28 70.1 27.45 74.53 22.54 74.53C17.63 74.53 17.06 69.48 17.06 69.48V59.21H27.99V68.93L28 68.92Z" fill="#FFDECE"/>
<path d="M17.07 61.58V71.34C17.07 71.34 16.24 71.09 15.65 70.75C15.06 70.41 13.94 70.9 13.9 70.52C13.86 70.14 13.78 66.17 13.78 66.17C13.78 66.17 11.93 64.11 12.62 62.81C13.31 61.51 13.84 61.27 13.84 61.27C13.84 61.27 13.41 59.19 14.33 58.6L15.24 58.01C15.24 58.01 17.31 52.81 22.53 53.03C27.75 53.25 29.35 56.74 29.74 57.83C30.13 58.92 30.35 59.82 30.35 59.82C30.35 59.82 31.2 60.41 31.62 61.59C32.04 62.77 31.55 64.12 31.55 64.12C31.55 64.12 32.66 65.28 31.88 66.57C31.1 67.86 30.83 67.84 30.83 67.84L30.93 70.52C30.93 70.52 30.71 70.33 29.88 70.52C29.05 70.71 27.99 70.75 27.99 70.75V63.22C27.99 63.22 26.72 61.99 26.05 60.5C25.38 59.01 25.22 58.72 25.22 58.72C25.22 58.72 24.44 59.96 23.27 60.14C22.1 60.32 20.96 59.7 20.96 59.7C20.96 59.7 20.37 61.14 17.06 61.58H17.07Z" fill="#0D1117"/>
<path d="M20.92 74.31V77.12C20.92 77.12 21.38 77.47 22.83 77.42C24.28 77.37 24.6 77.08 24.6 77.08V74.2" fill="#FFDECE"/>
<path d="M12.71 78.45L16.38 77.03L20.93 76.39H24.61L29.04 77.05L32.25 78.96C32.25 78.96 29.16 83.72 22.67 83.72C16.18 83.72 12.73 78.45 12.73 78.45H12.71Z" fill="#5EE29D"/>
<path d="M17.07 61.58V71.34C17.07 71.34 16.24 71.09 15.65 70.75C15.06 70.41 13.94 70.9 13.9 70.52C13.86 70.14 13.78 66.17 13.78 66.17C13.78 66.17 11.93 64.11 12.62 62.81C13.31 61.51 13.84 61.27 13.84 61.27C13.84 61.27 13.41 59.19 14.33 58.6L15.24 58.01C15.24 58.01 17.31 52.81 22.53 53.03C27.75 53.25 29.35 56.74 29.74 57.83C30.13 58.92 30.35 59.82 30.35 59.82C30.35 59.82 31.2 60.41 31.62 61.59C32.04 62.77 31.55 64.12 31.55 64.12C31.55 64.12 32.66 65.28 31.88 66.57C31.1 67.86 30.83 67.84 30.83 67.84L30.93 70.52C30.93 70.52 30.71 70.33 29.88 70.52C29.05 70.71 27.99 70.75 27.99 70.75V63.22C27.99 63.22 26.72 61.99 26.05 60.5C25.38 59.01 25.22 58.72 25.22 58.72C25.22 58.72 24.44 59.96 23.27 60.14C22.1 60.32 20.96 59.7 20.96 59.7C20.96 59.7 20.37 61.14 17.06 61.58H17.07Z" stroke="#0D1117" stroke-linecap="round" stroke-linejoin="round"/>
<path d="M18.42 63.3799C18.42 63.3799 19.8 62.6599 20.92 63.3799" stroke="#0D1117" stroke-linecap="round" stroke-linejoin="round"/>
<path d="M23.98 63.3799C23.98 63.3799 25.36 62.6599 26.48 63.3799" stroke="#0D1117" stroke-linecap="round" stroke-linejoin="round"/>
<path d="M22.32 66.28L21.94 68.21L22.54 68.92" stroke="#0D1117" stroke-linecap="round" stroke-linejoin="round"/>
<path d="M21.19 71.1799C21.19 71.1799 22.48 71.8899 23.88 71.1799" stroke="#0D1117" stroke-linecap="round" stroke-linejoin="round"/>
<path d="M19.33 64.8099H19.76" stroke="#0D1117" stroke-linecap="round" stroke-linejoin="round"/>
<path d="M25.02 64.8099H25.45" stroke="#0D1117" stroke-linecap="round" stroke-linejoin="round"/>
<path d="M17.07 69.47C17.07 69.47 17.63 74.52 22.55 74.52C27.47 74.52 28.01 70.1 28.01 68.91" stroke="#0D1117" stroke-linecap="round" stroke-linejoin="round"/>
<path d="M31.66 63.76C33.53 65.88 34.66 68.66 34.66 71.71C34.66 78.35 29.28 83.73 22.64 83.73C16 83.73 10.62 78.35 10.62 71.71C10.62 69.15 11.42 66.78 12.78 64.83" stroke="#0D1117" stroke-linecap="round" stroke-linejoin="round"/>
<path d="M12.71 78.45L16.37 77.04L20.92 76.39" stroke="#0D1117" stroke-linecap="round" stroke-linejoin="round"/>
<path d="M24.59 76.39L29.02 77.05L32.23 78.96" stroke="#0D1117" stroke-linecap="round" stroke-linejoin="round"/>
<path d="M20.92 74.31V77.12C20.92 77.12 21.38 77.47 22.83 77.42C24.28 77.37 24.6 77.08 24.6 77.08V74.2" stroke="#0D1117" stroke-linecap="round" stroke-linejoin="round"/>
<path d="M25.89 53.75H109.37C114.99 53.75 119.54 58.3 119.54 63.92V79.48C119.54 85.1 114.99 89.65 109.37 89.65H16C7.86 89.65 9.3 86.64 6.42 87.01C4.48 87.26 2.5 88.44 2.5 88.44C2.5 88.44 5.15 81.16 5.15 79.48V63.92C5.15 58.3 9.7 53.75 15.32 53.75H19.11" stroke="#0D1117" stroke-linecap="round" stroke-linejoin="round"/>
<path d="M41 60.92C41 60.92 52.86 61.1 61.16 61.72C69.46 62.34 88.85 61.57 91.59 61.72" stroke="#0D1117" stroke-linecap="round" stroke-linejoin="round"/>
<path d="M41 66.4C41 66.4 42.42 69.13 50.75 68.51C59.08 67.89 68.72 67.72 75.29 67.5C81.86 67.28 94.9 67.5 94.9 67.5" stroke="#0D1117" stroke-linecap="round" stroke-linejoin="round"/>
<path d="M99.39 73.21C99.39 73.21 99.28 73.93 95.77 74.08C92.26 74.23 87.55 74.39 77.15 74.08C66.74 73.77 56.77 73.7 50.64 73.73C44.51 73.76 41 73.73 41 73.73" stroke="#0D1117" stroke-linecap="round" stroke-linejoin="round"/>
<path d="M41 80.11C41 80.11 51.27 79.49 59.95 79.34C68.63 79.19 74.44 79.34 82.43 79.34C90.42 79.34 105.66 79.27 105.66 79.27" stroke="#0D1117" stroke-linecap="round" stroke-linejoin="round"/>
<path d="M128.43 4.5H139.68C145.3 4.5 149.85 9.05 149.85 14.67V30.23C149.85 31.91 152.5 39.19 152.5 39.19C152.5 39.19 150.52 38.02 148.58 37.76C145.7 37.38 147.14 40.4 139 40.4H45.62C40 40.4 35.45 35.85 35.45 30.23V14.67C35.45 9.05 40 4.5 45.62 4.5H128.43Z" stroke="#0D1117" stroke-linecap="round" stroke-linejoin="round"/>
<path d="M102.8 12.47C94.5 13.09 75.11 12.32 72.37 12.47" stroke="#0D1117" stroke-linecap="round" stroke-linejoin="round"/>
<path d="M126.68 18.3899C126.68 18.3899 121.4 18.8699 113.08 18.2599C104.75 17.6399 98.56 18.4799 91.98 18.2599C85.41 18.0399 72.37 18.2599 72.37 18.2599" stroke="#0D1117" stroke-linecap="round" stroke-linejoin="round"/>
<path d="M130.77 23.96C130.77 23.96 130.66 24.68 127.15 24.83C123.64 24.98 118.93 25.14 108.53 24.83C98.12 24.52 88.15 24.45 82.02 24.48C75.89 24.51 72.38 24.48 72.38 24.48" stroke="#0D1117" stroke-linecap="round" stroke-linejoin="round"/>
<path d="M118.08 30.08C109.4 29.93 103.59 30.08 95.6 30.08C87.61 30.08 72.37 30.01 72.37 30.01" stroke="#0D1117" stroke-linecap="round" stroke-linejoin="round"/>
<path d="M48.88 17.95C48.88 17.95 50.39 17.16 51.61 17.95" stroke="#0D1117" stroke-linecap="round" stroke-linejoin="round"/>
<path d="M55.53 17.95C55.53 17.95 57.04 17.16 58.26 17.95" stroke="#0D1117" stroke-linecap="round" stroke-linejoin="round"/>
<path d="M53.38 21.12L52.31 23.23L53.72 24" stroke="#0D1117" stroke-linecap="round" stroke-linejoin="round"/>
<path d="M50.67 25.48C50.67 25.48 53.38 27.83 56.1 25.48" stroke="#0D1117" stroke-linecap="round" stroke-linejoin="round"/>
<path d="M49.88 19.6801H50.35" stroke="#0D1117" stroke-linecap="round" stroke-linejoin="round"/>
<path d="M56.63 19.6801H57.09" stroke="#0D1117" stroke-linecap="round" stroke-linejoin="round"/>
<path d="M61.87 23.11C61.87 24.78 61.05 31.03 53.66 31.03C49.97 31.03 47.91 29.25 46.77 27.46C45.86 26.03 45.42 24.35 45.42 22.65V16.83C45.42 16.83 45.91 8.64001 53.38 8.64001C60.85 8.64001 61.72 15.28 61.72 16.98C61.72 18.68 61.87 23.11 61.87 23.11Z" stroke="#0D1117" stroke-linecap="round" stroke-linejoin="round"/>
<path d="M45.43 20.59C45.43 20.59 46.22 18.16 46.72 16.06C47.37 13.3 49.42 12.36 49.42 12.36C49.42 12.36 51.47 12.8 53.65 12.8C55.83 12.8 57.23 12.37 57.23 12.37C57.23 12.37 59.89 12.82 60.2 15.47C60.51 18.12 61.81 20.96 61.81 20.96" stroke="#0D1117" stroke-linecap="round" stroke-linejoin="round"/>
<path d="M61.81 18.2699C61.81 18.2699 63.31 17.9899 63.31 20.1899C63.31 22.3899 61.89 22.2599 61.89 22.2599" stroke="#0D1117" stroke-linecap="round" stroke-linejoin="round"/>
<path d="M45.33 18.2699C45.33 18.2699 43.83 17.9899 43.83 20.1899C43.83 22.3899 45.25 22.2599 45.25 22.2599" stroke="#0D1117" stroke-linecap="round" stroke-linejoin="round"/>
<path d="M45.83 31.13L49.49 30.04" stroke="#0D1117" stroke-linecap="round" stroke-linejoin="round"/>
<path d="M57.92 30.1L61.81 30.92" stroke="#0D1117" stroke-linecap="round" stroke-linejoin="round"/>
<path d="M60.65 12.7099C61.8 13.1799 63.79 15.3599 64.44 16.6599C65.35 18.4599 65.82 20.5199 65.71 22.6999C65.4 28.7199 60.57 33.6399 54.56 34.0599C47.54 34.5399 41.69 28.9899 41.69 22.0699C41.69 19.5099 42.49 17.1399 43.85 15.1899C43.85 15.1899 45.32 13.2899 46.68 12.5699" stroke="#0D1117" stroke-linecap="round" stroke-linejoin="round"/>
<path d="M128.43 102.38H139.68C145.3 102.38 149.85 106.93 149.85 112.55V128.11C149.85 129.79 152.5 137.07 152.5 137.07C152.5 137.07 150.52 135.9 148.58 135.64C145.7 135.26 147.14 138.28 139 138.28H45.62C40 138.28 35.45 133.73 35.45 128.11V112.55C35.45 106.93 40 102.38 45.62 102.38H128.43Z" fill="#C9B7EC"/>
<path d="M60.65 110.59C61.8 111.06 63.79 113.24 64.44 114.54C65.35 116.34 65.82 118.4 65.71 120.58C65.4 126.6 60.57 131.52 54.56 131.94C47.54 132.42 41.69 126.87 41.69 119.95C41.69 117.39 42.49 115.02 43.85 113.07C43.85 113.07 45.32 111.17 46.68 110.45" fill="white"/>
<path d="M61.87 120.99C61.87 122.66 61.05 128.91 53.66 128.91C49.97 128.91 47.91 127.13 46.77 125.34C45.86 123.91 45.42 122.23 45.42 120.53V114.71C45.42 114.71 45.91 106.52 53.38 106.52C60.85 106.52 61.72 113.16 61.72 114.86C61.72 116.56 61.87 120.99 61.87 120.99Z" fill="#FFDECE"/>
<path d="M61.81 118.84C61.81 118.84 60.51 116 60.2 113.35C59.89 110.7 57.23 110.25 57.23 110.25C57.23 110.25 55.83 110.68 53.65 110.68C51.47 110.68 49.42 110.24 49.42 110.24C49.42 110.24 47.37 111.18 46.72 113.94C46.22 116.05 45.43 118.47 45.43 118.47C45.43 118.47 44.76 113.54 46.69 110.46C48.62 107.38 50.66 106.52 53.38 106.52C56.1 106.52 58.51 107.17 59.86 109.35C61.21 111.53 61.73 113.62 61.8 118.84H61.81Z" fill="#0D1117"/>
<path d="M45.83 128.8L48.89 127.89C48.89 127.89 51.44 128.9 53.67 128.9C55.9 128.9 58.26 127.91 58.26 127.91L61.88 128.9C61.88 128.9 59.1 131.96 53.72 131.96C48.34 131.96 45.83 128.79 45.83 128.79V128.8Z" fill="#0D1117"/>
<path d="M61.81 116.14C61.81 116.14 63.31 115.86 63.31 118.06C63.31 120.26 61.89 120.13 61.89 120.13" fill="#FFDECE"/>
<path d="M45.33 116.14C45.33 116.14 43.83 115.86 43.83 118.06C43.83 120.26 45.25 120.13 45.25 120.13" fill="#FFDECE"/>
<path d="M128.43 102.38H139.68C145.3 102.38 149.85 106.93 149.85 112.55V128.11C149.85 129.79 152.5 137.07 152.5 137.07C152.5 137.07 150.52 135.9 148.58 135.64C145.7 135.26 147.14 138.28 139 138.28H45.62C40 138.28 35.45 133.73 35.45 128.11V112.55C35.45 106.93 40 102.38 45.62 102.38H128.43Z" stroke="#0D1117" stroke-linecap="round" stroke-linejoin="round"/>
<path d="M102.8 110.35C94.5 110.97 75.11 110.2 72.37 110.35" stroke="#0D1117" stroke-linecap="round" stroke-linejoin="round"/>
<path d="M116 116C116 116 111.722 116 104.982 116C98.2331 116 93.2182 116 87.8873 116C82.5645 116 72 116 72 116" stroke="#0D1117" stroke-linecap="round" stroke-linejoin="round"/>
<path d="M97.3261 122.831C95.703 122.974 93.5251 123.127 88.716 122.831C83.9024 122.535 79.2922 122.468 76.4576 122.496C73.6231 122.525 72 122.496 72 122.496" stroke="#0D1117" stroke-linecap="round" stroke-linejoin="round"/>
<path d="M132.326 110.34C130.703 110.483 128.525 110.636 123.716 110.34C118.902 110.044 114.292 109.977 111.458 110.006C108.623 110.035 107 110.006 107 110.006" stroke="#0D1117" stroke-linecap="round" stroke-linejoin="round"/>
<path d="M129.326 122.831C127.703 122.974 125.525 123.127 120.716 122.831C115.902 122.535 111.292 122.468 108.458 122.496C105.623 122.525 104 122.496 104 122.496" stroke="#0D1117" stroke-linecap="round" stroke-linejoin="round"/>
<path d="M118.08 127.96C109.4 127.81 103.59 127.96 95.6 127.96C87.61 127.96 72.37 127.89 72.37 127.89" stroke="#0D1117" stroke-linecap="round" stroke-linejoin="round"/>
<path d="M48.88 115.83C48.88 115.83 50.39 115.04 51.61 115.83" stroke="#0D1117" stroke-linecap="round" stroke-linejoin="round"/>
<path d="M55.53 115.83C55.53 115.83 57.04 115.04 58.26 115.83" stroke="#0D1117" stroke-linecap="round" stroke-linejoin="round"/>
<path d="M53.38 119L52.31 121.11L53.72 121.88" stroke="#0D1117" stroke-linecap="round" stroke-linejoin="round"/>
<path d="M50.67 123.36C50.67 123.36 53.38 125.71 56.1 123.36" stroke="#0D1117" stroke-linecap="round" stroke-linejoin="round"/>
<path d="M49.88 117.55H50.35" stroke="#0D1117" stroke-linecap="round" stroke-linejoin="round"/>
<path d="M56.63 117.55H57.09" stroke="#0D1117" stroke-linecap="round" stroke-linejoin="round"/>
<path d="M61.87 120.99C61.87 122.66 61.05 128.91 53.66 128.91C49.97 128.91 47.91 127.13 46.77 125.34C45.86 123.91 45.42 122.23 45.42 120.53V114.71C45.42 114.71 45.91 106.52 53.38 106.52C60.85 106.52 61.72 113.16 61.72 114.86C61.72 116.56 61.87 120.99 61.87 120.99Z" stroke="#0D1117" stroke-linecap="round" stroke-linejoin="round"/>
<path d="M45.43 118.47C45.43 118.47 46.22 116.04 46.72 113.94C47.37 111.18 49.42 110.24 49.42 110.24C49.42 110.24 51.47 110.68 53.65 110.68C55.83 110.68 57.23 110.25 57.23 110.25C57.23 110.25 59.89 110.7 60.2 113.35C60.51 116 61.81 118.84 61.81 118.84" stroke="#0D1117" stroke-linecap="round" stroke-linejoin="round"/>
<path d="M61.81 116.14C61.81 116.14 63.31 115.86 63.31 118.06C63.31 120.26 61.89 120.13 61.89 120.13" stroke="#0D1117" stroke-linecap="round" stroke-linejoin="round"/>
<path d="M45.33 116.14C45.33 116.14 43.83 115.86 43.83 118.06C43.83 120.26 45.25 120.13 45.25 120.13" stroke="#0D1117" stroke-linecap="round" stroke-linejoin="round"/>
<path d="M45.83 129.01L49.49 127.92" stroke="#0D1117" stroke-linecap="round" stroke-linejoin="round"/>
<path d="M57.92 127.98L61.81 128.8" stroke="#0D1117" stroke-linecap="round" stroke-linejoin="round"/>
<path d="M60.65 110.59C61.8 111.06 63.79 113.24 64.44 114.54C65.35 116.34 65.82 118.4 65.71 120.58C65.4 126.6 60.57 131.52 54.56 131.94C47.54 132.42 41.69 126.87 41.69 119.95C41.69 117.39 42.49 115.02 43.85 113.07C43.85 113.07 45.32 111.17 46.68 110.45" stroke="#0D1117" stroke-linecap="round" stroke-linejoin="round"/>
</svg>
