<svg width="49" height="63" fill="none" xmlns="http://www.w3.org/2000/svg"><path d="M8.518 45.78v.012l.005.135C8.89 54.93 17.25 62.24 28.193 62.24c10.945 0 19.687-7.64 19.687-16.915 0-.039-.002-.08-.004-.133v-.004c-.002-.048-.005-.109-.005-.171v-.5h.009v-4.605h-1.031l-.128-.307C44 33.11 36.759 28.413 28.19 28.413c-8.569 0-15.812 4.697-18.53 11.192l-.13.307H8.502l.01 4.523h.015l-.011.51a8.284 8.284 0 0 1-.007.185c-.003.066-.005.123-.005.198 0 .101.004.2.01.312 0 .038.003.078.004.12v.02z" fill="#9DBBEA" stroke="#000"/><path d="M8.5 39.414c0 9.275 8.742 16.915 19.687 16.915s19.687-7.64 19.687-16.915c0-9.274-8.742-16.914-19.687-16.914S8.5 30.14 8.5 39.414z" fill="#C4D9F6" stroke="#000"/><path d="M14.713 39.414c0 6.316 5.961 11.556 13.474 11.556 7.514 0 13.474-5.24 13.474-11.556 0-6.315-5.96-11.555-13.474-11.555-7.513 0-13.474 5.24-13.474 11.555z" fill="#E3EFFF" stroke="#000"/><path d="M6.485 7.648c-.04.075-.13.145-.267.21-.127.05-.272.034-.435-.045a3.146 3.146 0 0 0-.416-.17 4.16 4.16 0 0 0-1.065-.28 1.698 1.698 0 0 0-.506.008 1.685 1.685 0 0 0-1.088.74c-.244.382-.299.723-.164 1.024.145.286.424.528.838.726.267.129.554.26.862.396.306.122.606.245.898.37.306.122.591.24.855.357.277.113.518.213.723.299.264.116.518.247.76.394.243.147.463.324.663.533.197.195.366.43.51.702.142.273.246.593.31.96.036.739-.15 1.368-.56 1.886-.399.504-.903.87-1.512 1.1a3.674 3.674 0 0 1-1.645.229 2.797 2.797 0 0 1-1.486-.591 1.358 1.358 0 0 1-.312-.392c-.098-.172-.128-.302-.09-.39.058-.132.182-.235.372-.31.188-.087.34-.107.457-.06.35.223.74.364 1.171.423a2.52 2.52 0 0 0 1.284-.206c.327-.139.578-.332.75-.579.171-.26.259-.533.263-.818.014-.3-.077-.589-.275-.865-.187-.292-.48-.532-.878-.719a16.741 16.741 0 0 0-1.935-.836 22.768 22.768 0 0 1-2.066-.895 2.616 2.616 0 0 1-.823-.749 2.433 2.433 0 0 1-.36-.89 2.067 2.067 0 0 1 .04-.922c.081-.312.22-.6.417-.865.194-.278.437-.517.726-.717.29-.2.623-.347.999-.44a2.992 2.992 0 0 1 1.576.067c.527.15.973.377 1.338.678.08.067.123.161.13.282a.557.557 0 0 1-.059.355zm7.727 1.847a1.45 1.45 0 0 1 .78.045.657.657 0 0 1 .481.545c.013.227-.086.394-.298.499-.2.09-.366.146-.498.169a23.818 23.818 0 0 0-1.759.391c.05.438.096.85.137 1.235.054.383.101.727.141 1.032.038.29.073.528.106.712.032.184.056.281.071.292.28-.103.574-.243.88-.42.32-.19.63-.388.932-.59.314-.218.615-.433.902-.646.298-.229.579-.44.842-.636a.52.52 0 0 1 .344-.122c.123.006.206.052.248.14.052.139.064.32.035.541a1.41 1.41 0 0 1-.254.634c-.169.192-.4.422-.69.69a12.568 12.568 0 0 1-1.96 1.443 4.134 4.134 0 0 1-.943.41c-.426.115-.775.055-1.047-.181-.272-.237-.458-.563-.559-.978-.1-.416-.192-.9-.276-1.454a340 340 0 0 0-.23-1.767l-.715.207c-.221.053-.434.11-.64.174a1.67 1.67 0 0 1-.592-.018c-.21-.044-.336-.177-.375-.4a.775.775 0 0 1 .043-.333c.042-.143.17-.267.38-.372a26.614 26.614 0 0 1 1.752-.552c-.07-.624-.13-1.23-.179-1.817-.049-.587-.096-1.12-.14-1.6a.874.874 0 0 1 .065-.438c.058-.132.133-.206.225-.222.221-.053.442-.03.662.066.23.081.36.2.388.358.026.456.063.97.11 1.544.06.572.122 1.157.187 1.754a7.65 7.65 0 0 1 .742-.17l.702-.165zm8.139-3.507c.117.359.226.745.326 1.161.111.4.21.81.298 1.227.1.416.185.82.254 1.214.07.394.126.75.168 1.067.471.215.766.427.884.636.131.208.18.402.144.584-.037.25-.16.4-.368.451-.197.035-.44.003-.727-.095-.16.164-.345.345-.554.544-.211.187-.435.375-.672.566-.24.177-.481.342-.726.493a3.785 3.785 0 0 1-.69.345c-.409.14-.803.128-1.184-.035-.368-.165-.65-.46-.847-.886a2.476 2.476 0 0 1-.222-.915 2.59 2.59 0 0 1 .132-.978c.104-.33.267-.636.488-.919.234-.285.523-.525.868-.722.085-.055.204-.11.357-.164.166-.056.335-.093.508-.11.184-.032.374-.032.57.001.194.034.385.115.57.245-.04-.223-.088-.465-.148-.725-.049-.276-.104-.55-.166-.824a12.517 12.517 0 0 0-.194-.758 6.598 6.598 0 0 0-.17-.62c-.061-.192-.16-.296-.3-.313-.127-.031-.276.002-.449.1-.296.16-.628.429-.995.805-.367.376-.71.768-1.031 1.177a.51.51 0 0 1-.386.23.6.6 0 0 1-.406-.11.583.583 0 0 1-.24-.324c-.038-.142-.012-.303.078-.48.182-.277.389-.564.62-.862a7.05 7.05 0 0 1 .749-.822 5.05 5.05 0 0 1 .835-.675c.292-.187.595-.315.907-.384.458-.094.83-.051 1.12.128.286.166.486.415.599.747zm-1.539 4.638c-.163.07-.332.187-.506.353-.163.15-.307.332-.432.543a1.894 1.894 0 0 0-.23.65 1.05 1.05 0 0 0 .11.63c.04.075.103.124.19.15a.46.46 0 0 0 .298-.033c.304-.12.636-.308.998-.561.372-.269.657-.536.854-.8-.014-.08-.071-.171-.17-.275a2.534 2.534 0 0 0-.342-.326 1.734 1.734 0 0 0-.414-.272c-.134-.071-.253-.091-.356-.06zm9.669-5.564-.676.546a7.91 7.91 0 0 0-.678.647 4.96 4.96 0 0 0-.61.799c-.18.288-.33.626-.451 1.013a5.295 5.295 0 0 0-.261 1.63c-.002.529.028 1.045.09 1.548.042.237.026.49-.049.76-.063.255-.193.4-.39.435-.25.044-.475-.045-.677-.267a2.892 2.892 0 0 1-.427-.696 37.04 37.04 0 0 1-1.038-2.66 69.226 69.226 0 0 1-.857-2.672c-.032-.184 0-.312.095-.383a.793.793 0 0 1 .384-.128 1.38 1.38 0 0 1 .474.038c.156.04.26.13.311.27.138.477.294.977.468 1.502.171.511.33.95.476 1.317a3.511 3.511 0 0 1 .204-1.376c.162-.462.384-.894.665-1.295a5.565 5.565 0 0 1 1.03-1.076c.404-.315.83-.552 1.275-.712.192-.06.357-.09.492-.087.136.003.236.033.3.09.065.056.09.16.076.311-.001.15-.076.298-.226.446zm5.927.519a1.45 1.45 0 0 1 .78.045.657.657 0 0 1 .482.545c.013.228-.086.394-.298.499-.2.09-.367.146-.498.17-.263.045-.544.102-.844.168-.3.066-.604.14-.915.222.05.438.096.85.137 1.235.054.384.1.727.14 1.032.039.29.074.528.106.712.033.184.057.281.072.292.28-.103.573-.243.88-.42.319-.19.63-.388.932-.59.314-.218.614-.433.902-.646.298-.229.579-.44.842-.636a.52.52 0 0 1 .344-.122c.123.006.206.052.248.14.052.14.063.32.035.542a1.41 1.41 0 0 1-.254.633c-.17.193-.4.423-.69.69a12.59 12.59 0 0 1-1.96 1.443 4.14 4.14 0 0 1-.943.41c-.427.116-.776.055-1.047-.181-.272-.236-.459-.563-.559-.978-.1-.416-.192-.9-.276-1.454-.072-.556-.148-1.145-.23-1.767-.246.07-.484.14-.716.207-.22.053-.434.11-.64.174a1.67 1.67 0 0 1-.591-.017c-.211-.044-.336-.178-.376-.401a.775.775 0 0 1 .043-.333c.043-.143.17-.267.381-.372a26.62 26.62 0 0 1 1.751-.552 68.19 68.19 0 0 1-.178-1.817c-.05-.587-.096-1.12-.14-1.6a.874.874 0 0 1 .065-.438c.058-.132.133-.206.225-.222.22-.053.441-.03.661.066.231.081.36.2.388.358.027.456.063.97.11 1.544.06.572.123 1.157.188 1.755.258-.073.505-.13.741-.172l.702-.164z" fill="#0D1117"/></svg>