<svg width="156" height="142" viewBox="0 0 156 142" fill="none" xmlns="http://www.w3.org/2000/svg">
<g clip-path="url(#clip0_5382_11744)">
<path d="M150.22 60.6499C147.4 60.6299 145.88 61.7599 145.77 61.8499C145.77 59.2399 145.75 57.1099 145.75 57.1099C145.75 56.2699 145.32 55.4399 144.3 54.6599C141.77 52.7299 135.69 50.9199 130.02 52.1299C124.35 53.3299 121.28 55.7299 121.55 58.0099L121.53 74.7299C121.53 74.7299 121.21 79.5399 124.15 80.7499C127.09 81.9499 130.26 82.4799 134.81 82.5499C139.36 82.6199 142.83 81.3499 144.23 79.6099C145.02 78.6399 145.38 76.6799 145.56 74.8299C145.85 75.0199 146.7 75.4199 148.73 75.2199C151.36 74.9699 154.24 71.4099 154.58 67.0699C154.91 62.7299 153.18 60.6699 150.24 60.6499H150.22ZM150.01 71.2099C148.63 73.3299 145.78 72.6099 145.78 72.6099V65.0999C148.35 62.5199 151.9 62.8299 151.84 65.6299C151.78 68.4299 151.39 69.0899 150.01 71.2099Z" fill="#5EE29D"/>
<path d="M19.45 7.69995C19.45 7.69995 19.67 24.4499 19.45 30.1799C19.23 35.9099 19.55 56.6699 19.55 56.6699C19.55 56.6699 34.42 57.3499 46.93 57.4699C59.44 57.5899 87.78 57.4699 87.78 57.4699H103.96C103.96 57.4699 103.85 31.4799 103.96 24.3399C104.07 17.1999 103.96 7.69995 103.96 7.69995C103.96 7.69995 66.9 7.15995 60.09 7.04995C53.28 6.93995 19.46 7.69995 19.46 7.69995H19.45Z" fill="#0D1117"/>
<path d="M144.1 59.9099C144.1 59.9099 142.83 55.3799 133.74 55.7799C124.65 56.1799 123 60.3199 123 60.3199C123 60.3199 125.5 62.7599 133.55 62.4999C141.6 62.2399 144.1 59.9099 144.1 59.9099Z" fill="#0D1117"/>
<path d="M117.75 98.1199C117.75 98.1199 110.05 79.4399 108.9 77.2999C107.76 75.1599 104.78 75.5499 100.82 75.6999C96.85 75.8499 74.36 75.4699 62.79 75.6999C51.22 75.9299 24.26 76.2299 21.9 76.3099C19.54 76.3899 18.93 78.1399 18.93 78.1399C18.93 78.1399 9.01998 99.4899 7.79998 102.01C6.57998 104.53 10.46 104.16 10.46 104.16H26.89L49.46 105.19L78.64 105.6L103 104.18C103 104.18 116.61 104.23 118.67 104.18C120.73 104.13 117.75 98.1299 117.75 98.1299V98.1199Z" fill="#C9B7EC"/>
<path d="M87.7 114.87L87.78 115.51C87.78 115.51 87.76 115.26 87.7 114.87Z" fill="white"/>
<path d="M102.82 111.02L103.01 109.91L102.92 109.67C103.07 107.04 103.14 102.25 102.05 97.82C100.44 91.29 98.3 87.22 93.95 87.4C92.43 85.98 90.33 84.7 87.79 84.93C86.99 84.89 86.54 85.04 86.27 85.24C86.24 85.24 86.21 85.26 86.18 85.27L86.22 85.29C86.21 85.29 86.2 85.27 86.19 85.26C84.49 84.06 82.32 83.46 79.76 84.66L79.93 84.76C79.75 84.83 79.58 84.92 79.43 85.01C76.73 84.02 71.55 84.37 71.73 86.34C71.93 88.52 76.25 88.08 77.96 89.99C79.67 91.9 79.27 95.82 79.27 95.82L77.06 94.01C74.85 92.2 71.94 91.7 70.83 93.41C69.72 95.12 71.73 95.42 73.84 97.63C75.95 99.84 74.84 100.54 78.16 104.96C81.48 109.38 83.99 107.37 85.7 109.28C86.11 109.74 86.44 110.34 86.71 110.98L87.59 114.06C87.65 114.36 87.69 114.64 87.73 114.87L87.66 114.28L88.14 115.94L92.68 116.18L102.14 115.33L102.76 111.61L102.79 111.69C102.79 111.69 102.82 111.45 102.86 111.02H102.82Z" fill="white"/>
<path d="M54.02 92.6C51.91 91.9 50.6 93.4 49.8 94.51C49 95.62 47.59 96.02 47.59 96.02C47.59 96.02 47.39 90.9 49.6 89.09C51.81 87.28 53.92 83.36 52.82 82.46C51.72 81.56 49.4 82.06 46.29 85.37C43.18 88.68 42.47 92.7 42.47 92.7C41.97 88.78 43.68 86.67 45.08 84.66C46.49 82.65 47.99 80.34 46.08 79.64C44.86 79.19 43.01 79.95 41.27 81.65C40.42 80.33 36.94 81.05 34.83 83.16C34.09 83.9 33.56 85 33.2 86.16L32.69 86.46L33.33 84.66C30.32 85.26 27.7 87.98 27.8 90.69C27.88 92.77 28.01 97.09 27.53 100.9L26.21 106.27L23.28 112.79L25.84 118.47L38.75 114.8V114.71C38.84 114.07 39.47 109.78 41.97 108.57C44.68 107.26 48.19 106.56 50.81 102.74C53.42 98.92 56.14 93.3 54.03 92.59L54.02 92.6ZM40.01 83.06C39.84 83.28 39.68 83.53 39.52 83.76H39.38L40.02 83.06H40.01Z" fill="white"/>
<path d="M23.27 112.79C23.27 112.79 25.68 108.37 26.89 104.15C28.1 99.9302 27.89 93.4002 27.79 90.6902C27.69 87.9802 30.3 85.2602 33.32 84.6602" stroke="#0D1117" stroke-linecap="round" stroke-linejoin="round"/>
<path d="M32.3201 91.7001C32.3201 91.7001 32.4201 85.5701 34.8301 83.1601C36.9401 81.0501 40.4301 80.3301 41.2701 81.6501" stroke="#0D1117" stroke-linecap="round" stroke-linejoin="round"/>
<path d="M38.7501 114.8C38.7501 114.8 39.2601 109.88 41.9701 108.57C44.6801 107.26 48.2001 106.56 50.8101 102.74C53.4201 98.92 56.1301 93.3 54.0301 92.59C51.9301 91.88 50.6101 93.39 49.8101 94.5C49.0101 95.61 47.6001 96.01 47.6001 96.01C47.6001 96.01 47.4001 90.89 49.6101 89.08C51.8201 87.27 53.9301 83.35 52.8301 82.45C51.7301 81.55 49.4101 82.05 46.3001 85.36C43.1901 88.68 42.4801 92.69 42.4801 92.69C41.9801 88.77 43.6901 86.66 45.0901 84.65C46.4901 82.64 48.0001 80.33 46.0901 79.63C44.1801 78.93 40.7301 81.18 38.5501 85.36C36.3701 89.54 36.8901 92.19 36.8901 92.19" stroke="#0D1117" stroke-linecap="round" stroke-linejoin="round"/>
<path d="M9.54004 134.51C10.9 130.68 13.23 126.01 17.15 122.64" stroke="#0D1117" stroke-linecap="round" stroke-linejoin="round"/>
<path d="M39.5501 127.56C39.5501 127.56 40.3301 133.75 39.3301 140.6" stroke="#0D1117" stroke-linecap="round" stroke-linejoin="round"/>
<path d="M40.66 118.12C40.66 118.12 40.26 115.01 36.14 113.5C32.02 111.99 24.79 111.89 21.57 114.1C18.35 116.31 15.54 123.14 18.25 122.64C20.96 122.14 25.28 120.83 31.41 123.24C37.54 125.65 39.85 128.67 40.65 125.65C41.45 122.63 40.65 118.11 40.65 118.11L40.66 118.12Z" stroke="#0D1117" stroke-linecap="round" stroke-linejoin="round"/>
<path d="M87.7801 115.51C87.7801 115.51 87.3801 111.19 85.6701 109.28C83.9601 107.37 81.4501 109.38 78.1301 104.96C74.8101 100.54 75.9201 99.8401 73.8101 97.6301C71.7001 95.4201 69.6901 95.1201 70.8001 93.4101C71.9101 91.7001 74.8201 92.2001 77.0301 94.0101L79.2401 95.8201C79.2401 95.8201 79.6401 91.9001 77.9301 89.9901C76.2201 88.0801 71.9001 88.5201 71.7001 86.3401C71.5001 84.1601 77.8701 83.9601 80.1801 85.3601C82.4901 86.7701 85.1101 89.0801 84.9601 93.1001" stroke="#0D1117" stroke-linecap="round" stroke-linejoin="round"/>
<path d="M102.75 111.69C102.75 111.69 103.65 104.36 102.05 97.82C100.45 91.28 98.3001 87.22 93.9501 87.4" stroke="#0D1117" stroke-linecap="round" stroke-linejoin="round"/>
<path d="M118.59 134.67C118.21 133.59 117.76 132.49 117.25 131.4C113.82 124.02 109.62 120.15 109.62 120.15C109.62 120.15 104.22 118.18 97.0301 121.42C89.8401 124.66 86.7301 127.57 86.7301 127.57C86.7301 127.57 86.8601 133.92 87.6901 140.66" stroke="#0D1117" stroke-linecap="round" stroke-linejoin="round"/>
<path d="M86.73 127.56C86.73 127.56 85.9 123.45 85.9 120.14C85.9 116.83 88.46 114.79 89.91 113.97C93.94 111.68 100.85 110.31 104.66 112.39C108.47 114.47 109.94 118.04 109.62 120.13" stroke="#0D1117" stroke-linecap="round" stroke-linejoin="round"/>
<path d="M84.9401 108.7C81.8701 108.87 79.1101 109.02 77.3401 109.1C73.5101 109.27 55.6801 108.96 41.9701 108.69" stroke="#0D1117" stroke-linecap="round" stroke-linejoin="round"/>
<path d="M102.74 111.62C104.84 111.52 106.81 111.43 108.37 111.37C115.15 111.11 123.42 111.86 124.26 110.76C125.1 109.66 125.19 107.06 123.7 106.97C122.21 106.88 103 107.62 103 107.62" stroke="#0D1117" stroke-linecap="round" stroke-linejoin="round"/>
<path d="M39.0601 113.13C40.7801 113.17 42.2801 113.19 43.4201 113.19C50.0201 113.19 70.2701 113.14 76.4001 112.79C82.5301 112.44 87.1701 112.39 87.1701 112.39" stroke="#0D1117" stroke-linecap="round" stroke-linejoin="round"/>
<path d="M25.39 108.34C25.39 108.34 2.83004 108.32 1.62004 108.34C0.410042 108.36 0.490042 111.1 0.780042 111.69C1.52004 113.19 3.38004 112.35 11.09 112.4C14.04 112.42 18.51 112.54 23.27 112.68" stroke="#0D1117" stroke-linecap="round" stroke-linejoin="round"/>
<path d="M0.730103 109.34C0.730103 109.34 3.8501 99.81 6.1801 93.49C8.5101 87.17 13.8001 76.49 15.0101 74.26C16.2201 72.03 17.6101 71.94 20.2101 71.75C22.8101 71.56 67.2201 71.29 78.1801 71.38C89.1401 71.47 101.78 71.34 105.49 71.36C109.2 71.38 110.97 71.19 111.99 73.33C113.01 75.47 117.84 86.92 120.07 91.69C122.3 96.46 124.52 105.24 124.85 108.33" stroke="#0D1117" stroke-linecap="round" stroke-linejoin="round"/>
<path d="M26.89 104.15H10.46C10.46 104.15 6.57998 104.52 7.79998 102C9.01998 99.4801 18.93 78.1301 18.93 78.1301C18.93 78.1301 19.54 76.3801 21.9 76.3001C24.26 76.2201 51.22 75.9201 62.79 75.6901C74.36 75.4601 96.86 75.8401 100.82 75.6901C104.79 75.5401 107.76 75.1601 108.9 77.2901C110.04 79.4201 117.75 98.1101 117.75 98.1101C117.75 98.1101 120.72 104.12 118.67 104.16C116.62 104.2 103 104.16 103 104.16" stroke="#0D1117" stroke-linecap="round" stroke-linejoin="round"/>
<path d="M78.6401 105.59L48.5801 105.18" stroke="#0D1117" stroke-linecap="round" stroke-linejoin="round"/>
<path d="M52.9701 99.1601L74.4601 99.1301" stroke="#0D1117" stroke-linecap="round" stroke-linejoin="round"/>
<path d="M27.72 79.1001L18.02 101.51" stroke="#0D1117" stroke-linecap="round" stroke-linejoin="round"/>
<path d="M67.4301 78.6799V96.7099" stroke="#0D1117" stroke-linecap="round" stroke-linejoin="round"/>
<path d="M103 78.6799L112.42 101.09" stroke="#0D1117" stroke-linecap="round" stroke-linejoin="round"/>
<path d="M89.9 78.1602L92.64 86.3401" stroke="#0D1117" stroke-linecap="round" stroke-linejoin="round"/>
<path d="M86.17 85.2701C92.5 83.1601 96.62 90.8001 96.62 90.8001" stroke="#0D1117" stroke-linecap="round" stroke-linejoin="round"/>
<path d="M78.64 78.1602L79.74 84.6702C86.49 81.5202 90.49 90.8002 90.49 90.8002" stroke="#0D1117" stroke-linecap="round" stroke-linejoin="round"/>
<path d="M56.47 78.6799L54.03 92.4899" stroke="#0D1117" stroke-linecap="round" stroke-linejoin="round"/>
<path d="M36.6 79.1001L34.99 82.7801" stroke="#0D1117" stroke-linecap="round" stroke-linejoin="round"/>
<path d="M46.6901 81.9999L107.31 81.4199" stroke="#0D1117" stroke-linecap="round" stroke-linejoin="round"/>
<path d="M20.17 82.2501L36.17 82.1001" stroke="#0D1117" stroke-linecap="round" stroke-linejoin="round"/>
<path d="M28.7401 87.6602L18.2101 87.6902" stroke="#0D1117" stroke-linecap="round" stroke-linejoin="round"/>
<path d="M72.46 87.51L51.04 87.58" stroke="#0D1117" stroke-linecap="round" stroke-linejoin="round"/>
<path d="M109.54 87L93.8201 87.05" stroke="#0D1117" stroke-linecap="round" stroke-linejoin="round"/>
<path d="M100.57 92.6501L112.42 92.3701" stroke="#0D1117" stroke-linecap="round" stroke-linejoin="round"/>
<path d="M75.74 92.9401L78.64 92.8701" stroke="#0D1117" stroke-linecap="round" stroke-linejoin="round"/>
<path d="M54.5901 93.0701L71.0701 92.8801" stroke="#0D1117" stroke-linecap="round" stroke-linejoin="round"/>
<path d="M47.9 93.2302L51.03 93.1602" stroke="#0D1117" stroke-linecap="round" stroke-linejoin="round"/>
<path d="M15.6901 93.5L27.8701 93.71" stroke="#0D1117" stroke-linecap="round" stroke-linejoin="round"/>
<path d="M27.7101 99.1301L12.4701 99.3501" stroke="#0D1117" stroke-linecap="round" stroke-linejoin="round"/>
<path d="M114.61 97.8601L102.1 98.0401" stroke="#0D1117" stroke-linecap="round" stroke-linejoin="round"/>
<path d="M89.0901 129.31C89.7701 128.21 90.6701 127.25 91.7201 126.5C91.6901 126.67 91.6601 126.83 91.6301 127" stroke="#0D1117" stroke-linecap="round" stroke-linejoin="round"/>
<path d="M92.4001 129.84C91.6601 130.38 91.0701 131.1 90.6901 131.93" stroke="#0D1117" stroke-linecap="round" stroke-linejoin="round"/>
<path d="M92.24 133.07L91.4 134.3" stroke="#0D1117" stroke-linecap="round" stroke-linejoin="round"/>
<path d="M36.3101 128.46C37.0501 128.81 37.6901 129.39 38.1101 130.09" stroke="#0D1117" stroke-linecap="round" stroke-linejoin="round"/>
<path d="M35.5901 131.49L36.7201 132.79" stroke="#0D1117" stroke-linecap="round" stroke-linejoin="round"/>
<path d="M34.9601 134.67L35.9501 135.75" stroke="#0D1117" stroke-linecap="round" stroke-linejoin="round"/>
<path d="M20.0401 122.25C19.9801 120.92 20.4701 119.58 21.3701 118.61" stroke="#0D1117" stroke-linecap="round" stroke-linejoin="round"/>
<path d="M36.17 113.99C36.33 115.29 36.23 116.63 35.89 117.89" stroke="#0D1117" stroke-linecap="round" stroke-linejoin="round"/>
<path d="M30.73 122.25L31.46 120.67" stroke="#0D1117" stroke-linecap="round" stroke-linejoin="round"/>
<path d="M99.38 111.46C100.41 112.31 101.2 113.43 101.65 114.69" stroke="#0D1117" stroke-linecap="round" stroke-linejoin="round"/>
<path d="M92.74 123.21C92.02 122.16 91.52 120.95 91.29 119.69" stroke="#0D1117" stroke-linecap="round" stroke-linejoin="round"/>
<path d="M95.89 111.91C96.75 112.86 97.34 114.06 97.58 115.32" stroke="#0D1117" stroke-linecap="round" stroke-linejoin="round"/>
<path d="M98.4601 117.38L98.7101 118.47" stroke="#0D1117" stroke-linecap="round" stroke-linejoin="round"/>
<path d="M32.29 117.75L32.81 116.18" stroke="#0D1117" stroke-linecap="round" stroke-linejoin="round"/>
<path d="M17.15 1.74001C13.81 3.76001 13.95 7.92001 13.73 11.05C13.54 13.87 13.69 47.55 13.73 55.03C13.73 55.65 13.68 57.79 13.67 58.4C13.64 62.25 14.24 63.23 23.24 63.1C34.34 62.94 79.54 63.1 79.54 63.1C79.54 63.1 100.13 63.02 100.73 63.06C102.55 63.18 107.16 63.26 109.28 61.3C111.14 59.57 110.77 56.76 110.77 56.76V10.73C110.77 10.73 111.35 5.54001 108.36 2.73001C106.86 1.33001 104.22 0.830013 101.95 0.680013C100.38 0.580013 66.04 0.570013 43.64 0.650013C33.63 0.690013 18.79 0.740013 17.15 1.73001V1.74001Z" stroke="#0D1117" stroke-linecap="round" stroke-linejoin="round"/>
<path d="M77.19 63.6799C77.19 63.6799 77 69.2899 79.13 71.3799" stroke="#0D1117" stroke-linecap="round" stroke-linejoin="round"/>
<path d="M44.52 71.4699C44.52 71.4699 47.13 69.9399 48.58 63.6599" stroke="#0D1117" stroke-linecap="round" stroke-linejoin="round"/>
<path d="M74.6701 65.6401C74.6701 65.6401 74.5601 67.8301 75.2201 68.6701" stroke="#0D1117" stroke-linecap="round" stroke-linejoin="round"/>
<path d="M19.45 7.69995C19.45 7.69995 19.67 24.4499 19.45 30.1799C19.23 35.9099 19.55 56.6699 19.55 56.6699C19.55 56.6699 34.42 57.3499 46.93 57.4699C59.44 57.5899 87.78 57.4699 87.78 57.4699H103.96C103.96 57.4699 103.85 31.4799 103.96 24.3399C104.07 17.1999 103.96 7.69995 103.96 7.69995C103.96 7.69995 66.9 7.15995 60.09 7.04995C53.28 6.93995 19.46 7.69995 19.46 7.69995H19.45Z" stroke="#0D1117" stroke-linecap="round" stroke-linejoin="round"/>
<path d="M25.5801 15.6302C25.5801 15.6302 34.8101 15.0802 37.6801 15.6302" stroke="#CDF567" stroke-linecap="round" stroke-linejoin="round"/>
<path d="M25.8301 20.2699C25.8301 20.2699 30.8801 19.9999 32.8401 20.2699" stroke="#C9B7EC" stroke-linecap="round" stroke-linejoin="round"/>
<path d="M26.47 24.91C26.47 24.91 36.94 24.64 39.22 24.91" stroke="#CDF567" stroke-linecap="round" stroke-linejoin="round"/>
<path d="M25.53 29.82C25.53 29.82 32.62 29.68 33.85 29.82" stroke="#5EE29D" stroke-linecap="round" stroke-linejoin="round"/>
<path d="M37 29.8198H38.27" stroke="#CDF567" stroke-linecap="round" stroke-linejoin="round"/>
<path d="M25.8301 34.1899H29.3401" stroke="#C9B7EC" stroke-linecap="round" stroke-linejoin="round"/>
<path d="M31.6301 34.1899H38.2701" stroke="#CDF567" stroke-linecap="round" stroke-linejoin="round"/>
<path d="M27.5901 39.3799H31.9201" stroke="#CDF567" stroke-linecap="round" stroke-linejoin="round"/>
<path d="M49.96 15.3901C49.96 15.3901 68.38 14.8101 70.7 14.8101" stroke="#CDF567" stroke-linecap="round" stroke-linejoin="round"/>
<path d="M54.03 20.15C54.03 20.15 61.71 20.03 63.82 20.15" stroke="#5EE29D" stroke-linecap="round" stroke-linejoin="round"/>
<path d="M66.9001 20.0902C66.9001 20.0902 79.3001 19.7802 84.4801 20.0902C89.6701 20.4002 91.8301 19.9502 91.8301 19.9502" stroke="#CDF567" stroke-linecap="round" stroke-linejoin="round"/>
<path d="M49.96 44.87C49.96 44.87 68.38 44.29 70.7 44.29" stroke="#CDF567" stroke-linecap="round" stroke-linejoin="round"/>
<path d="M54.03 49.63C54.03 49.63 61.71 49.51 63.82 49.63" stroke="#5EE29D" stroke-linecap="round" stroke-linejoin="round"/>
<path d="M66.9001 49.5799C66.9001 49.5799 79.3001 49.2699 84.4801 49.5799C89.6601 49.8899 91.8301 49.4399 91.8301 49.4399" stroke="#CDF567" stroke-linecap="round" stroke-linejoin="round"/>
<path d="M49.96 24.91C49.96 24.91 69.98 24.36 73 24.91" stroke="#C9B7EC" stroke-linecap="round" stroke-linejoin="round"/>
<path d="M76.3201 24.6699C76.3201 24.6699 82.9801 24.9399 84.0701 24.7899" stroke="#CDF567" stroke-linecap="round" stroke-linejoin="round"/>
<path d="M50.9102 30.9098H80.5002C88.1602 30.9098 97.7202 29.8198 97.7202 29.8198" stroke="#5EE29D" stroke-linecap="round" stroke-linejoin="round"/>
<path d="M50.9102 36.0998C50.9102 36.0998 58.9602 36.2398 62.5102 36.0998C66.0602 35.9598 74.7602 35.5498 74.7602 35.5498" stroke="#C9B7EC" stroke-linecap="round" stroke-linejoin="round"/>
<path d="M78.8901 35.5502C78.8901 35.5502 86.9601 35.2802 90.2301 35.5502C93.4901 35.8202 97.0401 35.4302 97.0401 35.4302" stroke="#CDF567" stroke-linecap="round" stroke-linejoin="round"/>
<path d="M26.47 44.6899H33.86" stroke="#C9B7EC" stroke-linecap="round" stroke-linejoin="round"/>
<path d="M126.77 62.03C125.38 61.8 124.07 61.23 123 60.32C122.28 59.71 121.65 58.93 121.55 58.02C121.28 55.74 124.35 53.34 130.02 52.14C135.69 50.94 141.76 52.74 144.3 54.67C146.84 56.6 145.83 58.91 143.1 60.66C140.56 62.28 133.02 63.07 126.78 62.04L126.77 62.03Z" stroke="#0D1117" stroke-linecap="round" stroke-linejoin="round"/>
<path d="M145.75 61.8699C145.75 61.8699 147.29 60.6299 150.23 60.6499C153.17 60.6699 154.9 62.7299 154.57 67.0699C154.24 71.4099 151.35 74.9699 148.72 75.2199C146.09 75.4699 145.43 74.7299 145.43 74.7299" stroke="#0D1117" stroke-linecap="round" stroke-linejoin="round"/>
<path d="M145.75 65.1401C145.75 65.1401 147.73 63.2101 150.01 63.2401C152.29 63.2701 152.16 67.3401 151.16 69.4701C150.16 71.6001 148.21 73.2701 145.75 72.6101" stroke="#0D1117" stroke-linecap="round" stroke-linejoin="round"/>
<path d="M121.54 58.0201L121.52 74.7401C121.52 74.7401 121.2 79.5501 124.14 80.7601C127.08 81.9701 130.25 82.4901 134.8 82.5601C139.35 82.6301 142.82 81.3601 144.22 79.6201C145.62 77.8801 145.67 73.0501 145.75 71.1601C145.83 69.2701 145.75 57.1201 145.75 57.1201" stroke="#0D1117" stroke-linecap="round" stroke-linejoin="round"/>
<path d="M124.36 68.77C124.36 68.77 123.66 73 124.2 73.98" stroke="#0D1117" stroke-linecap="round" stroke-linejoin="round"/>
<path d="M124.19 75.8501C124.19 75.8501 124.53 77.0801 124.83 77.3301" stroke="#0D1117" stroke-linecap="round" stroke-linejoin="round"/>
<path d="M142.14 78.26C142.14 78.26 143.47 76.96 143.52 75.27" stroke="#0D1117" stroke-linecap="round" stroke-linejoin="round"/>
<path d="M144.1 59.9101C144.1 59.9101 143.52 57.4601 139.64 56.4701C135.76 55.4801 131 55.4001 126.96 57.1101C122.93 58.8301 122.99 60.3101 122.99 60.3101" stroke="#0D1117" stroke-linecap="round" stroke-linejoin="round"/>
<path d="M131.8 35.9199C131.8 35.9199 127.73 38.6599 129.43 43.5899C131.13 48.5199 134.52 50.3299 132.14 53.8199" stroke="#0D1117" stroke-linecap="round" stroke-linejoin="round"/>
<path d="M135.18 40.3499C135.18 40.3499 132.27 41.8999 134.7 45.1599C137.13 48.4199 136.46 49.2799 136.46 49.2799" stroke="#0D1117" stroke-linecap="round" stroke-linejoin="round"/>
</g>
<defs>
<clipPath id="clip0_5382_11744">
<rect width="156" height="142" fill="white"/>
</clipPath>
</defs>
</svg>
