<svg width="156" height="142" viewBox="0 0 156 142" fill="none" xmlns="http://www.w3.org/2000/svg">
<g clip-path="url(#clip0_5382_12075)">
<path d="M17.6414 98.0801C17.1892 102.848 17.0494 104.819 20.7739 107.96C24.0298 110.708 46.8621 119.386 58.3481 125.389C69.8341 131.392 85.02 138.361 90.4712 141.076C95.9223 143.791 99.8195 135.457 101.957 128.293C104.095 121.128 113.443 101.572 121.229 85.3049C129.016 69.0373 138.717 49.1874 138.717 49.1874C138.717 49.1874 142.006 43.4459 135.848 36.7393" fill="white"/>
<path d="M80.6707 8.24433C77.9246 7.2547 74.8249 6.08513 71.421 4.4412C64.6051 1.14515 63.0511 -1.17762 59.5486 1.73402C56.046 4.64567 47.7008 24.4956 42.0605 38.4322C36.4203 52.3689 32.5231 65.733 27.6557 74.6479C22.7883 83.5627 15.3804 97.4994 18.3074 100.591C21.2344 103.683 44.3956 112.017 55.8816 118.02C67.3676 124.023 82.5535 130.991 88.0047 133.707C93.4558 136.422 97.353 128.088 99.4907 120.923C101.628 113.759 110.977 94.2033 118.763 77.9357C126.549 61.6681 136.251 41.8182 136.251 41.8182C136.251 41.8182 139.367 37.3608 131.77 33.6885C128.637 32.1754 122.726 28.8467 115.852 25.0599" fill="#5EE29D"/>
<path d="M119.462 26.9248C122.8 21.2814 116.74 18.7705 113.904 16.8894C111.067 15.0083 112.235 15.2618 114.307 12.0884C116.379 8.91508 114.372 6.76406 108.872 4.41675L101.242 15.6708L121.641 28.2497" fill="#0D1117"/>
<path d="M110.886 15.1308C108.05 13.2497 108.946 12.8162 111.018 9.64288C113.09 6.46952 110.171 4.76833 104.662 2.42102C99.1618 0.0737089 98.8822 1.48864 97.5256 4.13856C96.169 6.78849 96.2594 6.1669 92.4445 5.34084C88.6213 4.51479 84.4445 3.5088 80.6707 8.26067C76.8886 13.0125 81.0653 14.4602 81.0653 14.4602C81.0653 14.4602 104.555 27.0473 108.724 28.5113C112.892 29.9753 112.539 30.6542 115.885 25.0108C119.223 19.3675 113.723 17.0201 110.894 15.139L110.886 15.1308ZM104.868 10.7388C102.525 13.994 100.379 12.3092 100.379 12.3092C100.379 12.3092 97.4927 10.7143 100.255 8.39971C103.487 5.70071 107.211 7.48368 104.868 10.7388Z" fill="#0D1117"/>
<path d="M80.6707 8.24433C77.9246 7.2547 74.8249 6.08513 71.421 4.4412C64.6051 1.14515 63.0511 -1.17762 59.5486 1.73402C56.046 4.64567 47.7008 24.4956 42.0605 38.4322C36.4203 52.3689 32.5231 65.733 27.6557 74.6479C22.7883 83.5627 15.3804 97.4994 18.3074 100.591C21.2344 103.683 44.3956 112.017 55.8816 118.02C67.3676 124.023 82.5535 130.991 88.0047 133.707C93.4558 136.422 97.353 128.088 99.4907 120.923C101.628 113.759 110.977 94.2033 118.763 77.9357C126.549 61.6681 136.251 41.8182 136.251 41.8182C136.251 41.8182 139.367 37.3608 131.77 33.6885C128.637 32.1754 122.726 28.8467 115.852 25.0599" stroke="#0D1117" stroke-linecap="round" stroke-linejoin="round"/>
<path d="M52.7819 48.2385L67.9349 55.5504" stroke="#0D1117" stroke-linecap="round" stroke-linejoin="round"/>
<path d="M95.1905 74.8687C95.1905 74.8687 87.6181 71.3518 80.3088 66.9762C72.9996 62.6005 50.603 53.4812 50.603 53.4812" stroke="#0D1117" stroke-linecap="round" stroke-linejoin="round"/>
<path d="M77.8423 114.838C77.8423 114.838 70.2699 111.322 62.9606 106.946C55.6513 102.57 33.2548 93.4509 33.2548 93.4509" stroke="#0D1117" stroke-linecap="round" stroke-linejoin="round"/>
<path d="M47.3965 65.6184L56.9586 69.078" stroke="#0D1117" stroke-linecap="round" stroke-linejoin="round"/>
<path d="M66.8824 74.5251L74.2986 77.4777" stroke="#0D1117" stroke-linecap="round" stroke-linejoin="round"/>
<path d="M44.3462 70.5667C44.3462 70.5667 58.8661 75.6048 68.2144 81.0764C77.5628 86.548 81.3695 88.7317 81.3695 88.7317" stroke="#0D1117" stroke-linecap="round" stroke-linejoin="round"/>
<path d="M65.7314 93.279C65.7314 93.279 55.7417 89.2633 50.4797 86.826C45.2177 84.3887 39.3883 81.6897 39.3883 81.6897" stroke="#0D1117" stroke-linecap="round" stroke-linejoin="round"/>
<path d="M35.7543 87.9385C35.7543 87.9385 45.9659 91.668 52.3543 94.6369C58.7428 97.614 69.8095 102.742 69.8095 102.742" stroke="#0D1117" stroke-linecap="round" stroke-linejoin="round"/>
<path d="M17.6414 98.0801C17.1892 102.848 17.0494 104.819 20.7739 107.96C24.0298 110.708 46.8621 119.386 58.3481 125.389C69.8341 131.392 85.02 138.361 90.4712 141.076C95.9223 143.791 99.8195 135.457 101.957 128.293C104.095 121.128 113.443 101.572 121.229 85.3049C129.016 69.0373 138.717 49.1874 138.717 49.1874C138.717 49.1874 142.006 43.4459 135.848 36.7393" stroke="#0D1117" stroke-linecap="round" stroke-linejoin="round"/>
<path d="M71.1496 23.1216C71.1496 23.1216 67.8526 20.4145 66.4138 23.8577C64.975 27.301 63.717 30.826 60.3542 29.4029C60.3542 29.4029 63.3553 31.7748 61.2915 35.4798C59.2278 39.1848 62.5248 40.9514 62.5248 40.9514" stroke="#0D1117" stroke-width="2" stroke-linecap="round" stroke-linejoin="round"/>
<path d="M94.4177 34.1384C94.4177 34.1384 98.4547 35.2753 96.9583 38.3096C95.4619 41.3439 94.2286 44.3701 95.9552 45.9241C95.9552 45.9241 93.6531 45.7359 91.4989 49.4C89.3448 53.0641 88.2019 53.4485 85.7354 52.0827" stroke="#0D1117" stroke-width="2" stroke-linecap="round" stroke-linejoin="round"/>
<path d="M72.5648 34.7013C73.0234 33.7528 72.6223 32.6141 71.6689 32.1579C70.7155 31.7016 69.5707 32.1006 69.1121 33.0491C68.6534 33.9975 69.0545 35.1362 70.008 35.5925C70.9614 36.0487 72.1061 35.6497 72.5648 34.7013Z" fill="#0D1117"/>
<path d="M80.2808 38.3927C80.7395 37.4443 80.3384 36.3055 79.385 35.8493C78.4315 35.3931 77.2868 35.792 76.8281 36.7405C76.3695 37.6889 76.7706 38.8276 77.724 39.2839C78.6775 39.7401 79.8222 39.3411 80.2808 38.3927Z" fill="#0D1117"/>
<path d="M88.0043 42.0875C88.463 41.1391 88.0619 40.0004 87.1085 39.5441C86.155 39.0879 85.0103 39.4869 84.5517 40.4353C84.093 41.3837 84.4941 42.5224 85.4475 42.9787C86.401 43.4349 87.5457 43.0359 88.0043 42.0875Z" fill="#0D1117"/>
<path d="M81.0653 14.4521C81.0653 14.4521 76.8886 13.0045 80.6707 8.25261C84.4528 3.50074 88.6213 4.50673 92.4445 5.33279C96.2677 6.15884 96.169 6.78043 97.5256 4.13051C98.8822 1.48058 99.1618 0.0656523 104.662 2.41296C110.163 4.76027 113.09 6.46964 111.018 9.63483C108.946 12.8082 108.05 13.2417 110.886 15.1228C113.723 17.0039 119.223 19.3512 115.877 24.9946C112.539 30.6379 112.884 29.9591 108.716 28.4951C104.547 27.0311 81.0571 14.4439 81.0571 14.4439L81.0653 14.4521Z" stroke="#0D1117" stroke-width="1.2" stroke-miterlimit="10"/>
<path d="M100.379 12.3174C100.379 12.3174 102.525 14.0023 104.868 10.7471C107.211 7.49197 103.487 5.70899 100.255 8.40799C97.4928 10.7226 100.379 12.3174 100.379 12.3174Z" stroke="#0D1117" stroke-width="1.2" stroke-miterlimit="10"/>
<path d="M108.872 4.4248C114.372 6.77211 116.387 8.92313 114.307 12.0965C112.235 15.2699 111.067 15.0081 113.904 16.8974C116.74 18.7867 122.8 21.2895 119.462 26.9328" stroke="#0D1117" stroke-width="1.2" stroke-miterlimit="10"/>
</g>
<defs>
<clipPath id="clip0_5382_12075">
<rect width="156" height="142" fill="white"/>
</clipPath>
</defs>
</svg>
