<svg width="156" height="142" viewBox="0 0 156 142" fill="none" xmlns="http://www.w3.org/2000/svg">
<path d="M53.1125 105.56C50.6625 106.98 49.6025 108.57 47.7725 109.12C45.9425 109.67 42.2625 100.93 38.6125 101.06C38.6125 101.06 16.4525 103.62 6.92246 86.4098C-2.58754 69.1898 -2.93754 44.3498 23.2025 32.8398" fill="#0D1117"/>
<path d="M53.1125 105.56C50.6625 106.98 49.6025 108.57 47.7725 109.12C45.9425 109.67 42.2625 100.93 38.6125 101.06C38.6125 101.06 16.4525 103.62 6.92246 86.4098C-2.58754 69.1898 -2.93754 44.3498 23.2025 32.8398" stroke="#0D1117" stroke-linecap="round" stroke-linejoin="round"/>
<path d="M54 105.5L51.5 104L48 99C48 99 47.06 97.37 43.5 97.5C39.94 97.63 29 98.29 18 89.48C9.00004 80.5 8.00004 68.5 8.00004 68.5C8.00004 68.5 3.5 48.5 14 39.5C23.12 31.23 32.19 29.96 40.64 27.81C49.09 25.66 62.2 25.9 70.33 30.71C78.46 35.52 79.99 39.07 79.99 39.07C79.99 39.07 71.32 44.61 67.35 59.49C63.38 74.37 66.36 82.36 66.36 82.36L69.06 89.48L58 94C58 94 55.5 96 55.07 100.83L54 105.5Z" fill="#FDAE1E"/>
<path d="M97.5 113C97.5 113 82.5024 116.46 81.6224 114.59C81.1095 113.5 82.2824 112.73 84.5924 109.76C86.9024 106.79 87.2224 102.77 87.2224 102.77C87.2224 102.77 77.0824 103.36 70.4424 92.97C63.7924 82.58 63.2324 71.72 67.6524 56.82C73.0124 38.74 92.0424 29.13 109.542 28" fill="#0D1117"/>
<path d="M97.5 113C97.5 113 82.5024 116.46 81.6224 114.59C81.1095 113.5 82.2824 112.73 84.5924 109.76C86.9024 106.79 87.2224 102.77 87.2224 102.77C87.2224 102.77 77.0824 103.36 70.4424 92.97C63.7924 82.58 63.2324 71.72 67.6524 56.82C73.0124 38.74 92.0424 29.13 109.542 28L100.5 106.5L97.5 113Z" stroke="#0D1117" stroke-linecap="round" stroke-linejoin="round"/>
<path d="M99 100.08C99 100.08 98.83 101.96 96.5 107C94.17 112.04 91.5 112.5 92 113.5C91.5 114.41 93.58 114.41 93.58 114.41C93.58 114.41 99.16 113.85 104.07 111.09C108.98 108.33 115.42 103.45 115.42 103.45L118.86 100.08L131.07 96.6299C131.07 96.6299 138.11 94.7899 145.1 88.0599C152.08 81.3299 155.85 73.2099 155.41 62.5799C154.98 51.9499 151.36 39.8099 140.9 33.7999C130.44 27.7999 121.33 27.8199 112.45 27.6099C103.58 27.4099 95 32 95 32C95 32 90.02 33.8699 81.5 41.9999C74.5 50.4999 72.57 65.5499 72 72.9999C72.5 80.4999 73.04 86.6999 80 93.4999C84 97.4079 89.5 99.4999 89.5 99.4999L99 100.08Z" fill="#CDF567"/>
<path d="M39.45 54.0401C39.45 54.0401 38.68 51.6501 40.78 50.2701C42.88 48.8901 47.64 51.2201 46.2 55.0701C44.76 58.9201 40.1 63.4101 41.93 68.8001C43.76 74.1901 46.23 74.0901 49.1 72.6401C51.97 71.1901 48.52 67.1601 51 64.5101C53.48 61.8601 58 54.6001 53.36 47.1801C48.72 39.7501 37.83 36.7701 32.3 44.4401C26.78 52.1101 31.73 61.1901 36.82 60.0801C41.91 58.9701 39.44 54.0501 39.44 54.0501L39.45 54.0401Z" fill="white"/>
<path d="M53 83.1701C53 83.1701 55.58 79.8701 53.42 77.2701C51.26 74.6701 47.78 74.6101 45.62 77.5901C43.46 80.5701 45.01 83.4601 47.84 84.7401C50.67 86.0201 53 83.1601 53 83.1601V83.1701Z" fill="white"/>
<path d="M91.7701 57.59C91.7701 57.59 89.3501 57.73 88.4201 58.37C87.4901 59.01 87.7101 62.78 89.5601 63C91.4101 63.22 114.26 59.09 114.26 59.09C114.26 59.09 125.15 57.6 129.92 56.81C134.69 56.02 136.25 56.38 136.82 54.96C137.39 53.54 136.46 51.05 135.11 51.05C133.76 51.05 124.15 52.69 119.52 53.47C114.89 54.25 98.1001 57.1 91.7601 57.6L91.7701 57.59Z" fill="white"/>
<path d="M108.28 67.7001C108.28 67.7001 98.88 69.3401 98.1 70.9001C97.32 72.4601 99.74 73.0401 103.19 72.6101C106.64 72.1801 116.46 70.1401 120.38 69.2701C124.3 68.4001 132.69 67.4101 132.69 65.2001C132.69 62.9901 117.42 65.2701 108.28 67.6901V67.7001Z" fill="white"/>
<path d="M122.52 75.17C122.52 75.17 116.61 75.88 113.05 77.52C109.49 79.16 112.62 80.65 115.72 79.8C118.82 78.95 122.45 78.52 124.3 78.31C126.15 78.1 127.32 74.32 122.52 75.18V75.17Z" fill="white"/>
<path d="M69.06 89.49C63.35 91.73 57.84 93.76 56.55 95.48C54.35 98.41 55.45 104.82 53.62 105.37C51.79 105.92 48.11 97.18 44.46 97.31C44.46 97.31 22.3 99.87 12.77 82.66C3.25004 65.44 3.98004 39.44 24.67 32.29C45.37 25.15 66.25 21.85 79.98 39.07" stroke="#0D1117" stroke-linecap="round" stroke-linejoin="round"/>
<path d="M98.9001 99.93C98.9001 99.93 97.8401 105.56 94.4901 109.81C91.1401 114.07 90.8401 115.59 98.9001 113.16C106.28 110.93 114.67 104.88 117.79 100.96C118.3 100.32 119.01 99.88 119.81 99.75C124.3 99.03 139.38 95.82 148.62 84.27C159.57 70.59 157.29 43.98 141.63 34.25C125.97 24.52 102.42 25.78 88.5401 35.12C75.1001 44.16 69.4001 67.55 73.3601 82C77.3201 96.45 89.6301 101.31 98.9001 99.94V99.93Z" stroke="#0D1117" stroke-linecap="round" stroke-linejoin="round"/>
<path d="M91.77 57.59C91.77 57.59 89.35 57.73 88.42 58.37C87.49 59.01 87.71 62.78 89.56 63C91.41 63.22 114.26 59.09 114.26 59.09C114.26 59.09 125.15 57.6 129.92 56.81C134.69 56.02 136.25 56.38 136.82 54.96C137.39 53.54 136.46 51.05 135.11 51.05C133.76 51.05 124.15 52.69 119.52 53.47C114.89 54.25 98.1 57.1 91.76 57.6L91.77 57.59Z" stroke="#0D1117" stroke-linecap="round" stroke-linejoin="round"/>
<path d="M108.28 67.7001C108.28 67.7001 98.88 69.3401 98.1 70.9001C97.32 72.4601 99.74 73.0401 103.19 72.6101C106.64 72.1801 116.46 70.1401 120.38 69.2701C124.3 68.4001 132.69 67.4101 132.69 65.2001C132.69 62.9901 117.42 65.2701 108.28 67.6901V67.7001Z" stroke="#0D1117" stroke-linecap="round" stroke-linejoin="round"/>
<path d="M122.52 75.17C122.52 75.17 116.61 75.88 113.05 77.52C109.49 79.16 112.62 80.65 115.72 79.8C118.82 78.95 122.45 78.52 124.3 78.31C126.15 78.1 127.32 74.32 122.52 75.18V75.17Z" stroke="#0D1117" stroke-linecap="round" stroke-linejoin="round"/>
<path d="M39.45 54.0401C39.45 54.0401 38.68 51.6501 40.78 50.2701C42.88 48.8901 47.64 51.2201 46.2 55.0701C44.76 58.9201 40.1 63.4101 41.93 68.8001C43.76 74.1901 46.23 74.0901 49.1 72.6401C51.97 71.1901 48.52 67.1601 51 64.5101C53.48 61.8601 58 54.6001 53.36 47.1801C48.72 39.7501 37.83 36.7701 32.3 44.4401C26.78 52.1101 31.73 61.1901 36.82 60.0801C41.91 58.9701 39.44 54.0501 39.44 54.0501L39.45 54.0401Z" stroke="#0D1117" stroke-linecap="round" stroke-linejoin="round"/>
<path d="M53 83.1701C53 83.1701 55.58 79.8701 53.42 77.2701C51.26 74.6701 47.78 74.6101 45.62 77.5901C43.46 80.5701 45.01 83.4601 47.84 84.7401C50.67 86.0201 53 83.1601 53 83.1601V83.1701Z" stroke="#0D1117" stroke-linecap="round" stroke-linejoin="round"/>
</svg>
