<svg width="156" height="142" viewBox="0 0 156 142" fill="none" xmlns="http://www.w3.org/2000/svg">
<g clip-path="url(#clip0_5382_11859)">
<path d="M109.25 29.6698C109.25 29.6698 104.96 30.6798 104.97 32.4898C104.98 34.2998 108.35 34.1298 108.35 34.1298L125.25 38.8298L125.6 33.1098C125.6 33.1098 125.04 29.5598 124.94 29.6598C124.84 29.7598 109.25 29.6598 109.25 29.6598V29.6698Z" fill="#FFDECE"/>
<path d="M11.78 18.28C11.78 18.28 1.76996 20.4 1.49996 28.69C1.22996 36.98 8.30996 41.06 8.30996 41.06L11.5 42.2L33.54 61.5L43.88 61.95C43.88 61.95 45.96 66.39 47.25 66.67C48.54 66.95 51.1 62.06 51.1 62.06L60.84 62.27L72.8 62.06L77.39 13.88L72.13 5.32996L52.49 2.95996C52.49 2.95996 31.72 4.60996 31.42 4.81996C31.12 5.02996 11.77 18.28 11.77 18.28H11.78Z" fill="#FFDECE"/>
<path d="M103.07 56.4099C101.26 60.9299 100.46 63.7899 104.66 64.5199C108.86 65.2499 118.56 62.3499 123.48 59.0199C126.4 57.0499 127.13 54.5199 127.24 52.7799L125.3 49.7899L124.7 46.5899C124.02 47.1599 123.36 47.7299 122.41 48.6099C121.03 49.8899 118.97 50.1799 117.33 49.2499C116.28 48.6499 114.93 48.0299 113.36 47.5999C113.36 47.5999 109.99 50.5199 109.61 48.7799L109.22 47.0399C108.1 47.0399 105.91 47.6299 105.91 46.4099L103.06 56.4099H103.07Z" fill="#0D1117"/>
<path d="M110.88 19.1999C110.88 19.1999 106.83 17.4599 107.26 12.3999C107.69 7.33994 114.06 8.48994 118.41 10.8099C122.76 13.1299 137.78 18.2299 133.66 37.9899L128.63 38.9599C128.89 37.2999 129.01 35.0899 127.96 34.5599C126.22 33.6899 125.35 33.8399 124.92 31.8099C124.49 29.7799 127.16 29.9299 126.98 27.6099C126.8 25.2899 121.26 24.4299 114.4 24.9999C107.54 25.5799 103.49 24.9999 103.2 21.3799C102.91 17.7599 108.7 17.4699 108.7 17.4699" fill="#0D1117"/>
<path d="M26.8299 80.6399C18.1999 79.3499 14.5399 78.2699 10.2199 77.4099C5.89995 76.5499 1.15995 75.0399 1.80995 80.2099C2.45995 85.3799 12.3699 116.39 14.9599 120.27C17.5499 124.15 19.4299 126.15 27.6599 128.31C35.8899 130.47 68.67 139.52 73.41 140.17C78.1499 140.82 83.2299 143.25 79.9899 132.47C77.7499 124.99 73.3099 105.72 69.3399 95.9499C66.7999 89.7099 62.2099 87.0799 58.6299 85.9699C55.7799 85.0899 35.4599 81.9399 26.8299 80.6399Z" fill="#C9B7EC"/>
<path d="M92.27 31.4499C92.31 14.6799 91.46 7.93988 90.3 5.42988C88.98 2.54988 86.42 1.74988 69.24 1.29988C52.06 0.849881 19.86 -0.270119 16.57 1.31988C12.52 3.26988 12.9 6.03988 12.47 9.96988C12.2 12.4099 11.94 15.2999 11.77 18.2699C13.88 17.7899 16.22 17.5699 18.71 17.6199C28.18 17.8399 39.5 24.3299 35.69 35.3999C35.69 35.3999 38.96 40.3699 37.98 41.6799C37 42.9899 30.36 39.8599 30.36 39.8599C30.36 39.8599 24.81 43.4899 14.69 42.6899C13.54 42.5999 12.48 42.4199 11.5 42.1799C11.69 50.3999 12.28 57.4699 13.71 58.8899C15.11 60.2699 25.87 61.2199 39.52 61.7599C39.58 61.6499 39.67 61.5599 39.8 61.5099C44.49 57.8899 49.03 57.0199 50.22 56.8499C50.29 56.7499 50.4 56.6799 50.53 56.6399V53.6999L51.18 53.7399C48.12 52.8699 45.2 50.8199 45.24 46.1699C45.25 44.8399 45.89 42.5999 46.27 41.4899C46.29 38.7899 45.88 37.0999 45.61 34.4099C42.61 33.5399 41.16 29.7899 42.41 28.1999C43.24 27.1599 44.23 27.2799 44.83 27.4899V25.3999C44.83 24.4399 45.4 23.6199 46.21 23.2499C45.56 23.0099 45.03 22.6399 44.93 22.0499C44.86 21.5999 44.97 21.1899 45.23 20.8299C45.23 20.8299 45.2 16.1699 49.18 12.9999C53.17 9.82988 50.05 14.4199 50.05 14.4199C50.05 14.4199 55.13 8.51988 57.53 9.16988C59.31 9.65988 57.5 11.5799 56.44 12.5499C57.79 11.4499 60.99 9.19988 63.38 10.3799C66.48 11.9099 62.33 14.9799 62.33 14.9799C62.33 14.9799 65.72 12.6499 67.47 13.9699C69.22 15.2999 63.38 19.8699 63.38 19.8699H63.37C64.65 20.2499 65.34 21.0599 65.19 22.0399C65.09 22.6499 64.53 23.0299 63.85 23.2699H63.91C64.7 23.6499 65.25 24.4599 65.25 25.3999V28.3599L65.37 27.4999C65.97 27.2799 66.96 27.1599 67.79 28.2099C68.98 29.7099 67.09 33.3899 64.39 34.4799C64.35 36.4499 64.52 37.5799 64.4 39.5499C65.26 41.0099 66.25 43.4499 66.31 45.7299C66.47 51.8199 62.41 53.6499 58.75 54.1599L59.67 54.2099V56.6599C59.79 56.6999 59.88 56.7699 59.95 56.8599C61.13 57.0299 65.99 57.9299 70.89 61.9099C70.97 61.9499 71.03 61.9999 71.08 62.0699C80.46 61.5899 88.56 60.1299 90.06 56.2999C92.58 49.8299 92.25 31.4599 92.25 31.4599L92.27 31.4499Z" fill="#CDF567"/>
<path d="M76.28 118.63L87.67 115.27L100.47 117.84C100.47 117.84 93.81 120.83 93.78 122.8C93.75 124.77 95.35 124.35 95.35 124.35C95.35 124.35 93.31 126.11 94.38 127.35C95.45 128.59 99.25 126.83 99.25 126.83C99.25 126.83 97.87 129.67 99.25 129.65C100.63 129.63 103.24 129.65 103.24 129.65L95.37 134.72L87.68 138.78L83.56 140.33L81.04 140.94H79.03C79.03 140.94 82.06 141.35 81.04 136.91C80.02 132.47 77.72 124.03 77.72 124.03L76.3 118.64L76.28 118.63Z" fill="#0D1117"/>
<path d="M42.9 105.82C42.9 105.82 41.57 104.66 38.91 104.99C36.25 105.32 35.42 108.79 38.91 111.46C42.4 114.13 43.89 108.65 43.89 108.65L42.9 105.81V105.82Z" fill="#0D1117"/>
<path d="M23.46 18.2398C23.46 18.2398 17.29 16.5998 9.94997 18.8298C2.60997 21.0598 -2.37003 30.1698 4.80997 37.9798C11.99 45.7898 23.99 42.1698 23.99 42.1698L30.36 39.8598C30.36 39.8598 37 42.8998 37.98 41.6798C38.96 40.4598 35.69 35.3998 35.69 35.3998C35.69 35.3998 37.92 26.9298 32.78 22.9798C27.64 19.0298 23.46 18.2398 23.46 18.2398Z" fill="white"/>
<path d="M106.95 42.4599C107.2 41.4299 107.43 40.3999 107.6 39.3599C107.63 39.1599 107.66 38.9599 107.69 38.7599C107.69 38.6999 107.74 38.3299 107.74 38.3299C107.8 37.7899 107.83 37.2499 107.85 36.6999C107.85 36.5999 107.87 36.4999 107.89 36.3999H107.87C107.87 36.3999 105.58 35.0799 103.9 38.9399C102.22 42.7999 105 45.8199 105 45.8199L105.82 46.6899C106.2 45.2799 106.6 43.8699 106.95 42.4499V42.4599Z" fill="white"/>
<path d="M136.38 40.5199L137.05 37.9799C137.05 37.9799 137.78 32.8099 137.05 29.3999C136.32 25.9899 132.96 23.8799 132.96 23.8799L134.22 30.6499L133.65 37.9699L129.81 38.1799C129.63 38.5299 129.36 38.8399 128.99 39.0199C128.38 39.3199 128.14 39.5099 127.62 40.1399C127.35 40.4699 126.86 41.2899 126.58 41.8499C126.04 42.9399 125.64 44.2899 125.32 45.6599C124.99 47.0799 124.75 48.6599 125.09 50.0199C125.41 51.2999 126.45 52.1299 127.29 53.1499L128.37 53.4199C128.37 53.4199 132.01 55.0799 134.73 51.3299C137.44 47.5799 137.22 43.5399 137.22 43.5399L136.37 40.5099L136.38 40.5199Z" fill="white"/>
<path d="M128.98 37.0099C128.93 37.2999 129 36.49 129 36.3899C129 36.2599 128.99 36.12 128.98 35.99C128.98 36.04 128.96 35.9599 128.93 35.7599C128.78 35.2899 128.74 35.1399 128.47 34.8499C128.27 34.6699 128.24 34.64 128.38 34.77C128.25 34.69 128.12 34.61 127.99 34.5499C127.79 34.4399 127.59 34.35 127.39 34.25C126.73 33.93 126.18 33.58 125.61 33.11C124.88 32.52 124.78 31.18 125.26 30.43C125.53 30.02 125.83 29.64 126.13 29.25C126.41 28.89 126.5 28.79 126.63 28.61C126.82 28.34 127.01 28.07 127.15 27.78C127.17 27.71 127.19 27.64 127.21 27.57C127.21 27.62 127.21 27.65 127.21 27.67C127.21 27.6 127.21 27.45 127.21 27.37C127.21 27.33 127.21 27.3 127.21 27.29C127.2 27.26 127.19 27.2099 127.17 27.15C127.13 27.0199 127.09 26.88 127.06 26.74C127.06 26.7 127.05 26.67 127.04 26.65C126.98 26.54 126.92 26.43 126.86 26.33C126.86 26.33 126.86 26.3299 126.84 26.3099C126.81 26.2899 126.8 26.28 126.79 26.26C126.7 26.2 126.6 26.15 126.5 26.1C126.47 26.1 126.44 26.09 126.4 26.08C122.54 25.41 118.62 25.37 114.73 24.86C114.5 24.83 114.28 24.77 114.07 24.7L110.14 25.18L109.1 30.3799C109.68 30.2599 110.25 30.11 110.8 29.9C110.85 29.88 110.9 29.85 110.95 29.83C111.85 29.39 112.85 29.6099 113.4 30.4699C113.65 30.8499 113.7 31.42 113.58 31.85C113.47 32.25 113.14 32.7299 112.76 32.9199C111.84 33.3699 110.87 33.7 109.86 33.8899C109.36 33.99 108.85 34.06 108.35 34.13L105.75 47.1699L109.23 46.93L110.1 49.2999L113.35 47.58L119.02 49.7799C119.02 49.7799 123.04 49.7799 124.94 45.82C126.55 42.4699 126.83 39.2199 129.04 38.2299C128.93 37.8399 128.91 37.42 128.98 37V37.0099ZM123.17 35.82C122.87 36.12 122.34 36.3799 121.9 36.3499C121.24 36.2899 120.67 36.16 120.06 35.9C119.59 35.7 119.15 35.48 118.72 35.22C118 34.78 117.3 34.2899 116.53 33.9399C115.61 33.5899 115.09 32.74 115.32 31.75C115.42 31.32 115.77 30.9 116.14 30.68C116.51 30.46 117.1 30.35 117.52 30.5C118.31 30.78 119.03 31.1899 119.74 31.6299C120.3 31.9899 120.87 32.3399 121.47 32.6199C121.69 32.6999 121.91 32.7599 122.14 32.7999C122.52 32.8699 122.86 33.01 123.16 33.29C123.51 33.61 123.66 34.09 123.69 34.56C123.71 35.01 123.48 35.52 123.16 35.83L123.17 35.82Z" fill="#FFDECE"/>
<path d="M107.23 64.8698L107.56 69.1298C107.56 69.1298 109.39 72.6498 116.12 72.7698C122.85 72.8898 124.8 68.8198 124.8 68.8198L124.44 58.8298L116.52 62.5998L107.23 64.8698Z" fill="#FFDECE"/>
<path d="M72.37 104.73L76.27 118.63C76.27 118.63 83.9 117.31 86.41 115.9C88.92 114.49 93.19 110.48 93.19 110.48L96.55 104.93L97.47 116.92L101.6 117.64L112.76 114.74C112.76 114.74 114.81 114.11 115.5 117.95C116.19 121.79 116.13 126.68 116.13 126.68L113.92 127.3C113.92 127.3 114.17 129.5 115.35 129.46C116.53 129.42 129.04 128.48 129.04 128.48C129.04 128.48 139.96 127.53 145.22 125.13C150.48 122.73 154.38 121.04 155.09 116.46C155.8 111.88 153.88 103.96 153.88 103.96L147.95 89.2498L142.28 80.4698L135.85 74.4998L130.5 71.0998L124.79 68.8398C124.79 68.8398 122.44 72.9398 116.11 72.7898C109.78 72.6398 107.55 69.1498 107.55 69.1498C107.55 69.1498 107.02 68.2998 104.52 69.4898C102.02 70.6798 98.33 73.4498 95.37 75.5198C92.41 77.5898 88.54 84.6998 88.54 84.6998L83.86 94.4198C83.86 94.4198 82.33 97.7299 79.54 100.48C76.75 103.23 72.36 104.74 72.36 104.74L72.37 104.73Z" fill="white"/>
<path d="M112.75 114.73C112.75 114.73 103.6 116.58 99 118.54C94.4 120.5 93.27 121.44 93.76 122.8C94.25 124.16 95.33 124.35 95.33 124.35C95.33 124.35 92.97 126.72 94.36 127.35C95.75 127.98 99.23 126.83 99.23 126.83C99.23 126.83 97.72 129.66 99.23 129.65C100.74 129.64 103.61 129.63 106.65 128.99C109.69 128.35 116.12 126.67 116.12 126.67C116.12 126.67 116.57 120.55 115.49 117.94C114.41 115.33 112.75 114.73 112.75 114.73Z" fill="#FFDECE"/>
<path d="M45.59 20.13C45.59 20.13 46.57 19.48 49.57 19.69C52.57 19.9 53.31 20.83 53.31 20.83L53.56 21.92L52.73 23.4L53.49 24.86H56.87L57.67 23.4C57.67 23.4 55.58 22.03 57.67 20.83C59.76 19.63 61.6 19.64 61.6 19.64L63.96 20.01C63.96 20.01 68.34 15.06 67.51 13.97C66.68 12.88 64.38 13.58 64.38 13.58C64.38 13.58 65.34 11.26 63.43 10.38C61.52 9.49998 57.63 11.7 57.63 11.7C57.63 11.7 59.9 9.22998 57.58 9.16998C55.26 9.10998 51.92 12.49 51.92 12.49C51.92 12.49 53.1 11.07 50.56 12.37C48.02 13.67 45.62 18.56 45.62 18.56V20.11L45.59 20.13Z" fill="#0D1017"/>
<path d="M66.34 44.6699C65.97 39.1899 62.35 37.24 62.35 37.24L58.57 34.95C58.57 34.95 58.39 36.59 55.4 36.72C52.4 36.85 51.52 35 51.52 35C51.52 35 46.07 39.99 45.37 44.63C44.67 49.27 46.59 50.7999 46.59 50.7999L50.05 53.36L56.22 54.33L63.85 52.4799C63.85 52.4799 66.72 50.1399 66.35 44.66L66.34 44.6699ZM58.68 49.1899C58.18 49.3199 57.69 48.9399 57.69 48.4199C57.69 47.9799 57.33 47.6199 56.89 47.6199H55.24C54.8 47.6199 54.44 47.9799 54.44 48.4199V48.5C54.44 48.9799 54.01 49.36 53.53 49.29C52.16 49.08 49.76 48.27 50.06 45.18C50.31 42.6 52.33 41.15 53.89 40.4C55.1 39.82 56.49 39.8499 57.7 40.4399C59.39 41.2599 61.58 42.8699 61.58 45.6899C61.58 48.0499 59.82 48.8999 58.67 49.2099L58.68 49.1899Z" fill="#0D1017"/>
<path d="M39.81 61.5199L43.89 61.9499C43.89 61.9499 45.66 66.5899 47.26 66.6699C48.86 66.7499 51.11 62.0599 51.11 62.0599L59.98 62.4999L71.11 62.0599L67.17 59.3799L61.6 57.4899L59.7 56.6499C59.7 56.6499 58.4 57.9899 54.75 58.1999C51.1 58.4099 50.54 56.6399 50.54 56.6399L44.84 58.4999L39.82 61.5099L39.81 61.5199Z" fill="white"/>
<path d="M109.1 29.9099C109.7 26.9599 110.1 25.1899 110.1 25.1899" stroke="#0D1117" stroke-linecap="round" stroke-linejoin="round"/>
<path d="M127.24 52.77C127.13 54.51 126.4 57.04 123.48 59.01C118.56 62.34 108.86 65.24 104.66 64.51C100.46 63.78 101.25 60.92 103.07 56.4C105.55 50.22 108.08 35.83 108.24 34.23" stroke="#0D1117" stroke-linecap="round" stroke-linejoin="round"/>
<path d="M128.64 38.95C128.9 37.29 129.02 35.08 127.97 34.55C126.23 33.68 125.36 33.83 124.93 31.8C124.5 29.77 127.17 29.92 126.99 27.6C126.81 25.28 121.27 24.42 114.41 24.99C107.55 25.57 103.5 24.99 103.21 21.37C102.92 17.75 108.71 17.46 108.71 17.46" stroke="#0D1117" stroke-linecap="round" stroke-linejoin="round"/>
<path d="M110.88 19.1999C110.88 19.1999 106.83 17.4599 107.26 12.3999C107.69 7.33994 114.06 8.48994 118.41 10.8099C122.76 13.1299 137.78 18.2299 133.66 37.9899" stroke="#0D1117" stroke-linecap="round" stroke-linejoin="round"/>
<path d="M136.859 47.3666C138.091 43.0202 136.502 38.7628 133.308 37.8574C130.115 36.952 126.527 39.7414 125.295 44.0877C124.062 48.4341 125.652 52.6915 128.845 53.597C132.039 54.5024 135.627 51.713 136.859 47.3666Z" stroke="#0D1117" stroke-linecap="round" stroke-linejoin="round"/>
<path d="M107.87 36.41C107.6 36.33 107.32 36.29 107.04 36.29C104.94 36.29 103.23 38.61 103.23 41.47C103.23 43.8 104.36 45.77 105.91 46.42" stroke="#0D1117" stroke-linecap="round" stroke-linejoin="round"/>
<path d="M134.07 46.5831C134.705 44.3462 134.043 42.1994 132.592 41.7881C131.142 41.3768 129.452 42.8568 128.817 45.0937C128.183 47.3306 128.845 49.4775 130.296 49.8887C131.746 50.3 133.436 48.82 134.07 46.5831Z" stroke="#0D1117" stroke-linecap="round" stroke-linejoin="round"/>
<path d="M112.71 36.5601C112.71 36.5601 112.39 39.4901 110.41 42.9801C108.43 46.4701 108.98 50.5901 111.56 48.8501C114.14 47.1101 115.33 46.0701 115.33 46.0701" stroke="#0D1117" stroke-linecap="round" stroke-linejoin="round"/>
<path d="M117.95 35.0499C117.95 35.0499 114 33.2199 115.33 31.1599C116.36 29.5699 119.69 30.8399 121.67 32.0299C123.65 33.2199 124.45 34.8799 123.49 35.9199C122.53 36.9599 117.94 35.0499 117.94 35.0499H117.95Z" stroke="#0D1117" stroke-linecap="round" stroke-linejoin="round"/>
<path d="M110.42 33.8998C110.42 33.8998 114.41 32.8498 113.51 30.7098C112.81 29.0598 109.5 29.6898 107.45 30.4698C105.4 31.2498 104.39 32.6698 105.1 33.7898C105.81 34.9098 110.42 33.8998 110.42 33.8998Z" stroke="#0D1117" stroke-linecap="round" stroke-linejoin="round"/>
<path d="M116.31 34.1499C116.99 34.6899 117.76 35.1199 118.57 35.4299C118.57 35.4899 118.58 35.5499 118.58 35.6099C118.58 36.8699 118 37.8999 117.29 37.8999C116.58 37.8999 116 36.8699 116 35.6099C116 35.0499 116.12 34.5399 116.31 34.1399V34.1499Z" fill="#0D1117"/>
<path d="M111.83 33.3398C111.97 33.6798 112.06 34.0898 112.06 34.5398C112.06 35.6498 111.55 36.5498 110.93 36.5498C110.31 36.5498 109.8 35.6498 109.8 34.5398C109.8 34.3798 109.81 34.2298 109.83 34.0798C110.5 33.8398 111.18 33.6198 111.83 33.3398Z" fill="#0D1117"/>
<path d="M109.22 47.0399C108.1 47.0399 105.91 47.6299 105.91 46.4099" stroke="#0D1117" stroke-linecap="round" stroke-linejoin="round"/>
<path d="M124.69 46.5898C124.01 47.1598 123.35 47.7298 122.4 48.6098C121.02 49.8898 118.96 50.1798 117.32 49.2498C116.27 48.6498 114.92 48.0298 113.35 47.5998" stroke="#0D1117" stroke-linecap="round" stroke-linejoin="round"/>
<path d="M114.41 52.6501C114.41 52.6501 111.56 54.3901 109.79 53.7601C108.02 53.1301 107.87 51.0601 107.87 51.0601" stroke="white" stroke-miterlimit="10" stroke-linecap="round"/>
<path d="M136.35 40.03C136.35 40.03 139.35 27.88 132.97 23.79" stroke="#0D1117" stroke-linecap="round" stroke-linejoin="round"/>
<path d="M124.42 58.29L124.8 68.52C124.8 70.71 120.92 72.48 116.12 72.48C111.33 72.48 107.44 70.71 107.44 68.52V64.56" stroke="#0D1117" stroke-linecap="round" stroke-linejoin="round"/>
<path d="M124.8 68.52C141.3 74.6 146.95 87.3 146.95 87.3C146.95 87.3 160.46 111.64 153.34 120.31C146.21 128.98 115.36 129.45 115.36 129.45" stroke="#0D1117" stroke-linecap="round" stroke-linejoin="round"/>
<path d="M107.45 68.52C107.45 68.52 102.07 69.51 96.1101 74.83C92.6301 77.93 89.9001 81.78 87.9401 86.01C85.0801 92.19 81.0201 102.5 72.8101 104.73" stroke="#0D1117" stroke-linecap="round" stroke-linejoin="round"/>
<path d="M97.4901 117.03C97.4901 117.03 95.3701 99.1399 97.4901 90.8599" stroke="#0D1117" stroke-linecap="round" stroke-linejoin="round"/>
<path d="M103.23 129.65C103.23 129.65 85.8 142.05 79.02 140.85" stroke="#0D1117" stroke-linecap="round" stroke-linejoin="round"/>
<path d="M141.78 111.46C141.78 111.46 134.65 110.3 135.42 111.46C136.19 112.62 139.66 114.16 139.66 114.16" stroke="#0D1117" stroke-linecap="round" stroke-linejoin="round"/>
<path d="M136.26 110.96C135.74 107.26 133.26 98.0299 129.85 91.6199" stroke="#0D1117" stroke-linecap="round" stroke-linejoin="round"/>
<path d="M112.75 114.73C112.75 114.73 111.8 113.41 117.42 113.09C123.04 112.77 135.43 111.45 135.43 111.45" stroke="#0D1117" stroke-linecap="round" stroke-linejoin="round"/>
<path d="M26.8301 80.6399C18.2001 79.3499 14.5401 78.2699 10.2201 77.4099C5.90007 76.5499 1.16007 75.0399 1.81007 80.2099C2.46007 85.3799 12.3701 116.39 14.9601 120.27C17.5501 124.15 19.4301 126.15 27.6601 128.31C35.8901 130.47 68.6701 139.52 73.4101 140.17C78.1501 140.82 83.2301 143.25 79.9901 132.47C77.7501 124.99 73.3101 105.72 69.3401 95.9499C66.8001 89.7099 62.2101 87.0799 58.6301 85.9699C55.7801 85.0899 35.4601 81.9399 26.8301 80.6399Z" stroke="#0D1117" stroke-linecap="round" stroke-linejoin="round"/>
<path d="M43.3601 110.47C44.0001 109.47 44.0701 108.19 43.6001 107.09C43.1301 105.99 42.1601 104.84 39.9101 104.73C35.8701 104.53 35.8701 108.39 37.9801 110.7C39.6601 112.53 42.1801 112.31 43.3501 110.47H43.3601Z" stroke="#0D1117" stroke-linecap="round" stroke-linejoin="round"/>
<path d="M9.11005 92.0398L10.38 96.1298" stroke="#0D1117" stroke-linecap="round" stroke-linejoin="round"/>
<path d="M11.6601 100.47C11.6601 100.47 15.1901 111.05 16.1701 113.79" stroke="#0D1117" stroke-linecap="round" stroke-linejoin="round"/>
<path d="M7.74006 100.96L1.50006 99.8499" stroke="#0D1117" stroke-linecap="round" stroke-linejoin="round"/>
<path d="M101.07 117.63L87.66 115.27" stroke="#0D1117" stroke-linecap="round" stroke-linejoin="round"/>
<path d="M155.5 127.36L144.45 125.38" stroke="#0D1117" stroke-linecap="round" stroke-linejoin="round"/>
<path d="M98.32 118.63L85.35 116.35" stroke="#0D1117" stroke-linecap="round" stroke-linejoin="round"/>
<path d="M104.87 120.13C104.87 120.13 94.19 122.95 94.24 126.29C94.29 129.63 99.24 126.83 99.24 126.83" stroke="#0D1117" stroke-linecap="round" stroke-linejoin="round"/>
<path d="M108.53 123.34C108.53 123.34 97.87 125.39 98.39 128.6C98.9 131.81 116.13 126.67 116.13 126.67" stroke="#0D1117" stroke-linecap="round" stroke-linejoin="round"/>
<path d="M95.33 124.36C93.76 124.98 91.58 121.16 98.9 118.41C106.22 115.66 113.35 114.74 113.35 114.74C113.35 114.74 115.35 114.84 116.12 121.29C116.89 127.74 115.63 129.96 114.91 129.38C114.19 128.8 113.91 127.3 113.91 127.3" stroke="#0D1117" stroke-linecap="round" stroke-linejoin="round"/>
<path d="M96.55 103.95C96.55 103.95 94.11 113.84 83.91 116.84C81.67 117.5 76.27 118.63 76.27 118.63" stroke="#0D1117" stroke-linecap="round" stroke-linejoin="round"/>
<path d="M11.78 18.2699C11.95 15.2999 12.21 12.3999 12.48 9.96988C12.91 6.04988 12.53 3.27988 16.58 1.31988C19.87 -0.270119 52.07 0.849881 69.25 1.29988C86.43 1.74988 88.99 2.54988 90.31 5.42988C91.46 7.93988 92.32 14.6799 92.28 31.4499C92.28 31.4499 92.61 49.8199 90.09 56.2899C87.57 62.7599 66.18 62.4499 51.68 62.1399C51.2 62.1299 50.77 62.3999 50.56 62.8299C49.94 64.1399 48.52 66.7899 47.27 66.6699C46.02 66.5499 44.65 63.8499 44.08 62.5699C43.9 62.1699 43.51 61.9099 43.08 61.8999C27.79 61.3799 15.24 60.3999 13.73 58.8999C12.29 57.4699 11.7 50.4099 11.52 42.1899" stroke="#0D1117" stroke-linecap="round" stroke-linejoin="round"/>
<path d="M52.3 23.32C53.05 23.72 53.56 24.5 53.56 25.41V30.13C53.56 31.43 52.5 32.49 51.2 32.49H47.2C45.9 32.49 44.84 31.43 44.84 30.13V25.41C44.84 24.45 45.41 23.63 46.22 23.26" stroke="#0D1117" stroke-linecap="round" stroke-linejoin="round"/>
<path d="M63.9401 23.2798C64.7301 23.6598 65.2801 24.4698 65.2801 25.4098V30.1298C65.2801 31.4298 64.2201 32.4898 62.9201 32.4898H58.9201C57.6201 32.4898 56.5601 31.4298 56.5601 30.1298V25.4098C56.5601 24.4898 57.0801 23.6998 57.8401 23.3098" stroke="#0D1117" stroke-linecap="round" stroke-linejoin="round"/>
<path d="M51.3701 32.72C51.3701 32.72 50.3301 36.72 54.8101 36.72C59.2901 36.72 59.2901 33.6 57.8501 32.24" stroke="#0D1117" stroke-linecap="round" stroke-linejoin="round"/>
<path d="M53.64 25.1798C53.64 25.1798 55.14 23.7898 56.46 25.1798" stroke="#0D1117" stroke-linecap="round" stroke-linejoin="round"/>
<path d="M64.36 31.99C64.46 34.83 64.5 37.43 64.42 39.55" stroke="#0D1117" stroke-linecap="round" stroke-linejoin="round"/>
<path d="M46.59 40.8299C46.37 39.5599 46.2 37.8999 46.12 35.7099C46.08 34.5599 46.02 33.3599 45.96 32.1499" stroke="#0D1117" stroke-linecap="round" stroke-linejoin="round"/>
<path d="M49.3 23.6599C49.3 23.6599 53.91 23.9199 53.69 21.6599C53.53 19.9199 50.25 19.5299 48.11 19.6499C45.97 19.7699 44.74 20.7699 44.94 22.0499C45.22 23.8099 49.29 23.6499 49.29 23.6499L49.3 23.6599Z" stroke="#0D1117" stroke-linecap="round" stroke-linejoin="round"/>
<path d="M60.86 23.6599C60.86 23.6599 56.25 23.9199 56.47 21.6599C56.63 19.9199 59.91 19.5299 62.05 19.6499C64.19 19.7699 65.42 20.7699 65.22 22.0499C64.94 23.8099 60.87 23.6499 60.87 23.6499L60.86 23.6599Z" stroke="#0D1117" stroke-linecap="round" stroke-linejoin="round"/>
<path d="M51.11 28.6899C51.6844 28.6899 52.15 28.0721 52.15 27.3099C52.15 26.5478 51.6844 25.9299 51.11 25.9299C50.5356 25.9299 50.07 26.5478 50.07 27.3099C50.07 28.0721 50.5356 28.6899 51.11 28.6899Z" fill="#0D1117"/>
<path d="M59.19 28.6899C59.7644 28.6899 60.23 28.0721 60.23 27.3099C60.23 26.5478 59.7644 25.9299 59.19 25.9299C58.6156 25.9299 58.15 26.5478 58.15 27.3099C58.15 28.0721 58.6156 28.6899 59.19 28.6899Z" fill="#0D1117"/>
<path d="M51.2701 35.35C51.2701 35.35 45.3001 39.42 45.2501 46.17C45.2001 52.92 51.3801 54.2 55.1501 54.32C58.9201 54.43 66.5601 54.04 66.3401 45.73C66.1201 37.42 58.5601 35 58.5601 35" stroke="#0D1117" stroke-linecap="round" stroke-linejoin="round"/>
<path d="M44.83 27.5C44.23 27.28 43.24 27.16 42.41 28.21C41.13 29.83 42.67 33.72 45.81 34.48" stroke="#0D1117" stroke-linecap="round" stroke-linejoin="round"/>
<path d="M57.7101 40.4298C56.5101 39.8398 55.1101 39.8098 53.9001 40.3898C52.3301 41.1398 50.3201 42.5898 50.0701 45.1698C49.7701 48.2598 52.1701 49.0698 53.5401 49.2798C54.0201 49.3498 54.4501 48.9798 54.4501 48.4898V48.4098C54.4501 47.9698 54.8101 47.6098 55.2501 47.6098H56.9001C57.3401 47.6098 57.7001 47.9698 57.7001 48.4098C57.7001 48.9298 58.1901 49.3098 58.6901 49.1798C59.8501 48.8798 61.6001 48.0198 61.6001 45.6598C61.6001 42.8498 59.4101 41.2398 57.7201 40.4098L57.7101 40.4298Z" stroke="#0D1117" stroke-linecap="round" stroke-linejoin="round"/>
<path d="M65.39 27.5C65.99 27.28 66.98 27.16 67.81 28.21C69.09 29.83 67.55 33.72 64.41 34.48" stroke="#0D1117" stroke-linecap="round" stroke-linejoin="round"/>
<path d="M59.0701 43.5498C55.7901 48.4098 52.5001 43.5498 52.5001 43.5498H59.0701Z" stroke="#0D1117" stroke-linecap="round" stroke-linejoin="round"/>
<path d="M45.2401 20.8399C45.2401 20.8399 45.2101 16.1799 49.1901 13.0099C53.1701 9.8399 50.0601 14.4299 50.0601 14.4299C50.0601 14.4299 55.1401 8.5299 57.5401 9.1799C59.9401 9.8299 55.8001 13.1099 55.8001 13.1099C55.8001 13.1099 60.2901 8.8499 63.3901 10.3799C66.4901 11.9099 62.3401 14.9799 62.3401 14.9799C62.3401 14.9799 65.7301 12.6499 67.4801 13.9699C69.2301 15.2899 63.3901 19.8699 63.3901 19.8699" stroke="#0D1117" stroke-linecap="round" stroke-linejoin="round"/>
<path d="M50.53 53.71V56.82C50.53 56.82 52.44 58.15 55.24 58.2C58.04 58.25 59.69 56.82 59.69 56.82V54.2" stroke="#0D1117" stroke-linecap="round" stroke-linejoin="round"/>
<path d="M50.53 56.8198C50.53 56.8198 45.2 57.3098 39.71 61.5898" stroke="#0D1117" stroke-linecap="round" stroke-linejoin="round"/>
<path d="M59.69 56.8198C59.69 56.8198 65.32 57.3298 70.96 61.9498" stroke="#0D1117" stroke-linecap="round" stroke-linejoin="round"/>
<path d="M35.7 35.3999C35.7 35.3999 38.97 40.3699 37.99 41.6799C37.01 42.9899 30.37 39.8599 30.37 39.8599C30.37 39.8599 24.82 43.4899 14.7 42.6899C4.57005 41.8999 1.19005 35.0399 1.52005 28.1299C1.85005 21.2199 9.25004 17.4099 18.72 17.6299C28.19 17.8499 39.51 24.3399 35.7 35.4099V35.3999Z" stroke="#0D1117" stroke-linecap="round" stroke-linejoin="round"/>
<path d="M11.43 24.4499C11.43 24.4499 9.01004 23.8499 9.13004 26.0399C9.25004 28.2299 9.49004 30.3999 7.35004 30.4999C7.35004 30.4999 9.53004 30.9999 9.39004 33.4799C9.25004 35.9599 11.43 36.0599 11.43 36.0599" stroke="#0D1117" stroke-linecap="round" stroke-linejoin="round"/>
<path d="M26.46 24.3898C26.46 24.3898 28.87 23.9698 28.86 25.9498C28.85 27.9298 28.97 29.8398 30.27 30.2298C30.27 30.2298 29.01 30.7098 28.81 33.1898C28.61 35.6698 28.11 36.1698 26.46 36.0698" stroke="#0D1117" stroke-linecap="round" stroke-linejoin="round"/>
<path d="M14.0001 31.3399C14.6186 31.3399 15.1201 30.8384 15.1201 30.2199C15.1201 29.6013 14.6186 29.0999 14.0001 29.0999C13.3815 29.0999 12.8801 29.6013 12.8801 30.2199C12.8801 30.8384 13.3815 31.3399 14.0001 31.3399Z" stroke="#0D1117" stroke-linecap="round" stroke-linejoin="round"/>
<path d="M18.9901 31.3399C19.6086 31.3399 20.1101 30.8384 20.1101 30.2199C20.1101 29.6013 19.6086 29.0999 18.9901 29.0999C18.3715 29.0999 17.8701 29.6013 17.8701 30.2199C17.8701 30.8384 18.3715 31.3399 18.9901 31.3399Z" stroke="#0D1117" stroke-linecap="round" stroke-linejoin="round"/>
<path d="M23.9901 31.3399C24.6086 31.3399 25.1101 30.8384 25.1101 30.2199C25.1101 29.6013 24.6086 29.0999 23.9901 29.0999C23.3715 29.0999 22.8701 29.6013 22.8701 30.2199C22.8701 30.8384 23.3715 31.3399 23.9901 31.3399Z" stroke="#0D1117" stroke-linecap="round" stroke-linejoin="round"/>
</g>
<defs>
<clipPath id="clip0_5382_11859">
<rect width="156" height="142" fill="white"/>
</clipPath>
</defs>
</svg>
