<svg width="1170" height="556" fill="none" xmlns="http://www.w3.org/2000/svg"><g clip-path="url(#a)" stroke-width="11" stroke-linecap="round" stroke-linejoin="round"><path d="M359.799 9.926c3.872.067 6.869-3.226 9.343-6.208s5.598-6.208 9.464-5.934c4.687.335 8.413 5.812 12.966 4.644" stroke="#fff" stroke-opacity=".4"/><path d="M934 498.158c3.872.067 6.869-3.225 9.343-6.208 2.474-2.982 5.598-6.208 9.464-5.934 4.686.335 8.413 5.813 12.965 4.644" stroke="#0D1117" stroke-opacity=".1"/><path d="M116.377 372.95c-3.872-.067-6.869 3.226-9.343 6.208s-5.598 6.208-9.464 5.934c-4.687-.334-8.413-5.812-12.966-4.644M375.634 553.653c.79-3.689 4.346-6.099 7.853-7.48 3.508-1.382 7.331-2.185 10.328-4.48 2.99-2.288 4.796-6.817 2.607-9.884M971.831 407.417c.791-3.688 4.346-6.098 7.854-7.48 3.507-1.382 7.33-2.185 10.327-4.48 2.991-2.288 4.796-6.816 2.608-9.884M48.343 106.437c.79-3.688 4.346-6.098 7.854-7.48 3.507-1.381 7.33-2.185 10.327-4.48 2.99-2.288 4.796-6.816 2.608-9.883M904.107 173c-1.064 3.621-4.79 5.758-8.388 6.872-3.599 1.113-7.477 1.631-10.632 3.694-3.154 2.057-5.294 6.439-3.337 9.659M474.489 415.345c1.604 6.208 9.263 8.29 15.646 8.813 6.382.524 13.895 1.217 17.159 6.726M1151.85 171.403c1.61 6.208 9.26 8.289 15.65 8.813 6.38.523 13.89 1.217 17.16 6.725M757.692 530.963c-6.377.584-9.665 7.821-11.209 14.041-1.544 6.22-3.44 13.53-9.403 15.873M966.488 3.348c-.912 2.92 1.66 5.879 4.498 7.01 2.839 1.133 6.012 1.14 8.893 2.155 7.544 2.672 11.057 13.074 6.687 19.78" stroke="#fff" stroke-opacity=".4"/><path d="M665.772 189.158c-3.872.067-6.868-3.225-9.342-6.208-2.474-2.982-5.599-6.208-9.465-5.934-4.686.335-8.412 5.813-12.965 4.644M132.772 504.158c-3.872.067-6.868-3.225-9.342-6.208-2.474-2.982-5.599-6.208-9.465-5.934-4.686.335-8.412 5.813-12.965 4.644M1070.08 340.334c3.88-.067 6.87 3.226 9.35 6.208 2.47 2.982 5.6 6.208 9.46 5.934 4.69-.335 8.41-5.812 12.97-4.644M642.261 38.155c-.79-3.688-4.346-6.098-7.853-7.48-3.508-1.381-7.331-2.185-10.328-4.48-2.99-2.288-4.796-6.816-2.607-9.884M190.756 178.844c-.79-3.689-4.346-6.099-7.853-7.48-3.508-1.382-7.331-2.185-10.328-4.48-2.99-2.288-4.796-6.816-2.608-9.884M1046.76 178.844c-.79-3.689-4.35-6.099-7.86-7.48-3.5-1.382-7.33-2.185-10.32-4.48-3-2.288-4.8-6.816-2.61-9.884M245 419c1.064 3.621 4.79 5.758 8.388 6.872 3.599 1.113 7.477 1.631 10.632 3.694 3.154 2.057 5.294 6.439 3.337 9.659M698.511 415.345c-1.604 6.208-9.263 8.29-15.646 8.813-6.382.524-13.895 1.218-17.159 6.726M21.155 278c-1.605 6.208-9.264 8.29-15.646 8.813-6.383.523-13.896 1.217-17.16 6.725M461.074 483.393c6.376.584 9.665 7.821 11.209 14.041 1.544 6.22 3.44 13.53 9.403 15.873M206.518.347c.912 2.922-1.66 5.88-4.498 7.012-2.839 1.132-6.012 1.138-8.893 2.154-7.543 2.672-11.057 13.074-6.686 19.78" stroke="#0D1117" stroke-opacity=".1"/></g><defs><clipPath id="a"><path fill="#fff" transform="rotate(-90 278 278)" d="M0 0h556v1170H0z"/></clipPath></defs></svg>
