<svg width="328" height="699" fill="none" xmlns="http://www.w3.org/2000/svg"><g clip-path="url(#a)" stroke-width="11" stroke-linecap="round" stroke-linejoin="round"><path d="M214.612-6c-6.376.584-9.665 7.82-11.209 14.041-1.543 6.22-3.44 13.53-9.403 15.873" stroke="#fff" stroke-opacity=".4"/><path d="M57.885 27.093c-2.955-2.503-3.036-6.955-2.93-10.828.108-3.873-.114-8.359-3.2-10.702-3.744-2.84-10.158-1.179-12.81-5.06M89.756 252.844c-.79-3.688-4.346-6.099-7.853-7.48-3.508-1.382-7.331-2.185-10.328-4.48-2.99-2.288-4.796-6.816-2.608-9.884M301.756 398.844c-.79-3.688-4.346-6.099-7.853-7.48-3.508-1.382-7.331-2.185-10.328-4.48-2.99-2.288-4.796-6.816-2.608-9.884" stroke="#0D1117" stroke-opacity=".1"/><path d="M-3 228.844c.79-3.688 4.346-6.099 7.853-7.48 3.508-1.382 7.331-2.185 10.328-4.48 2.99-2.288 4.796-6.816 2.607-9.884M306 216c1.605 6.208 9.264 8.289 15.646 8.813 6.382.523 13.895 1.217 17.16 6.725" stroke="#fff" stroke-opacity=".4"/><path d="M285.806 66c-1.605 6.208-9.264 8.29-15.646 8.813-6.383.523-13.896 1.217-17.16 6.725" stroke="#0D1117" stroke-opacity=".1"/><path d="M46.187 540c-.912 2.921 1.66 5.879 4.498 7.011 2.839 1.132 6.012 1.139 8.893 2.155 7.543 2.672 11.057 13.073 6.686 19.78" stroke="#fff" stroke-opacity=".4"/><path d="M17.806 433c-1.605 6.208-9.264 8.289-15.646 8.813-6.383.523-13.896 1.217-17.16 6.725" stroke="#0D1117" stroke-opacity=".1"/><path d="M251 699.844c.79-3.688 4.346-6.099 7.853-7.48 3.508-1.382 7.331-2.185 10.328-4.48 2.99-2.288 4.796-6.816 2.607-9.884" stroke="#fff" stroke-opacity=".4"/><path d="M190.772 572.158c-3.872.067-6.868-3.225-9.342-6.208-2.474-2.982-5.599-6.208-9.465-5.934-4.686.335-8.412 5.813-12.965 4.644M98.73 685.334c-.287 3.047-3.8 4.782-6.856 4.729-3.056-.052-5.985-1.272-9.035-1.448-7.99-.449-15.25 7.788-13.809 15.663" stroke="#0D1117" stroke-opacity=".1"/></g><defs><clipPath id="a"><rect width="328" height="699" rx="30" fill="#fff"/></clipPath></defs></svg>
