<svg width="328" height="354" fill="none" xmlns="http://www.w3.org/2000/svg"><g clip-path="url(#a)" stroke-width="11" stroke-linecap="round" stroke-linejoin="round"><path d="M303.612 29c-6.376.584-9.665 7.82-11.209 14.041-1.543 6.22-3.44 13.53-9.403 15.873M306 216c1.605 6.208 9.264 8.289 15.646 8.813 6.382.523 13.895 1.217 17.16 6.725M55.187 232c-.912 2.921 1.66 5.879 4.498 7.011 2.839 1.132 6.012 1.138 8.893 2.155 7.543 2.672 11.057 13.073 6.686 19.78M167 365.785c3.695-.76 7.331 1.526 10.007 4.182 2.675 2.656 4.948 5.833 8.254 7.654 3.298 1.818 8.17 1.65 10.099-1.587M-14 19.785c3.695-.76 7.331 1.527 10.007 4.182 2.675 2.656 4.948 5.834 8.254 7.655 3.298 1.817 8.17 1.65 10.099-1.588M247 306.785c3.695-.76 7.331 1.526 10.007 4.182 2.675 2.656 4.948 5.833 8.254 7.654 3.298 1.818 8.17 1.65 10.099-1.587M136.885 21.093c-2.955-2.503-3.036-6.955-2.929-10.828.107-3.873-.115-8.359-3.201-10.702-3.744-2.84-10.158-1.179-12.809-5.06" stroke="#fff" opacity=".4"/><path d="M136.885 21.093c-2.955-2.503-3.036-6.955-2.929-10.828.107-3.873-.115-8.359-3.201-10.702-3.744-2.84-10.158-1.179-12.809-5.06" stroke="#0D1117" opacity=".1"/><path d="M205.062 192.364c-3.671-.867-7.373 1.312-10.125 3.889-2.752 2.576-5.117 5.686-8.474 7.409-3.35 1.721-8.215 1.411-10.048-1.881" stroke="#fff" opacity=".4"/><path d="M205.062 192.364c-3.671-.867-7.373 1.312-10.125 3.889-2.752 2.576-5.117 5.686-8.474 7.409-3.35 1.721-8.215 1.411-10.048-1.881" stroke="#0D1117" opacity=".1"/><path d="M176.756 358.844c-.79-3.689-4.346-6.099-7.853-7.48-3.508-1.382-7.331-2.185-10.328-4.48-2.99-2.288-4.796-6.816-2.608-9.884" stroke="#fff" opacity=".4"/><path d="M176.756 358.844c-.79-3.689-4.346-6.099-7.853-7.48-3.508-1.382-7.331-2.185-10.328-4.48-2.99-2.288-4.796-6.816-2.608-9.884" stroke="#0D1117" opacity=".1"/><path d="M121.779 389.474c-6.185 1.69-11.796-3.923-15.42-9.203-3.624-5.28-7.957-11.456-14.359-11.554" stroke="#fff" opacity=".4"/><path d="M121.779 389.474c-6.185 1.69-11.796-3.923-15.42-9.203-3.624-5.28-7.957-11.456-14.359-11.554" stroke="#0D1117" opacity=".1"/><path d="M17.806 333c-1.605 6.208-9.264 8.289-15.646 8.813-6.383.523-13.896 1.217-17.16 6.725" stroke="#fff" opacity=".4"/><path d="M17.806 333c-1.605 6.208-9.264 8.289-15.646 8.813-6.383.523-13.896 1.217-17.16 6.725" stroke="#0D1117" opacity=".1"/></g><defs><clipPath id="a"><rect width="328" height="776" rx="30" fill="#fff" opacity=".4"/></clipPath></defs></svg>
