<svg width="1170" height="325" viewBox="0 0 1170 325" fill="none" xmlns="http://www.w3.org/2000/svg">
<g clip-path="url(#clip0_5385_12862)">
<path d="M937 328.158C940.872 328.225 943.869 324.933 946.343 321.95C948.817 318.968 951.941 315.742 955.807 316.016C960.493 316.351 964.22 321.829 968.772 320.66" stroke="#0D1117" stroke-opacity="0.1" stroke-width="11" stroke-linecap="round" stroke-linejoin="round"/>
<path d="M119.377 202.95C115.505 202.883 112.508 206.176 110.034 209.158C107.56 212.14 104.436 215.366 100.57 215.092C95.8833 214.758 92.1572 209.28 87.6044 210.448" stroke="white" stroke-opacity="0.4" stroke-width="11" stroke-linecap="round" stroke-linejoin="round"/>
<path d="M974.831 237.417C975.622 233.729 979.177 231.319 982.685 229.937C986.192 228.555 990.015 227.752 993.012 225.457C996.003 223.169 997.808 218.641 995.62 215.573" stroke="white" stroke-opacity="0.4" stroke-width="11" stroke-linecap="round" stroke-linejoin="round"/>
<path d="M477.489 191.345C479.093 197.553 486.752 199.635 493.135 200.158C499.517 200.682 507.03 201.375 510.294 206.884" stroke="white" stroke-opacity="0.4" stroke-width="11" stroke-linecap="round" stroke-linejoin="round"/>
<path d="M1154.85 1.40285C1156.46 7.61088 1164.11 9.69238 1170.5 10.2158C1176.88 10.7392 1184.39 11.4331 1187.66 16.9412" stroke="white" stroke-opacity="0.4" stroke-width="11" stroke-linecap="round" stroke-linejoin="round"/>
<path d="M658.772 39.1584C654.9 39.2254 651.904 35.9327 649.43 32.9504C646.956 29.9681 643.831 26.7424 639.965 27.0163C635.279 27.351 631.553 32.8286 627 31.6601" stroke="white" stroke-opacity="0.4" stroke-width="11" stroke-linecap="round" stroke-linejoin="round"/>
<path d="M135.772 334.158C131.9 334.225 128.904 330.933 126.43 327.95C123.956 324.968 120.831 321.742 116.965 322.016C112.279 322.351 108.553 327.829 104 326.66" stroke="#0D1117" stroke-opacity="0.1" stroke-width="11" stroke-linecap="round" stroke-linejoin="round"/>
<path d="M1073.08 170.334C1076.96 170.267 1079.95 173.56 1082.43 176.542C1084.9 179.524 1088.03 182.75 1091.89 182.476C1096.58 182.141 1100.3 176.664 1104.86 177.832" stroke="#0D1117" stroke-opacity="0.1" stroke-width="11" stroke-linecap="round" stroke-linejoin="round"/>
<path d="M173.756 58.8438C172.966 55.1555 169.41 52.7453 165.903 51.3637C162.395 49.9821 158.572 49.1787 155.575 46.8842C152.585 44.5957 150.779 40.0675 152.967 37" stroke="white" stroke-opacity="0.4" stroke-width="11" stroke-linecap="round" stroke-linejoin="round"/>
<path d="M1049.76 8.84375C1048.97 5.15545 1045.41 2.74529 1041.9 1.3637C1038.4 -0.0178903 1034.57 -0.82131 1031.58 -3.11585C1028.58 -5.40429 1026.78 -9.9325 1028.97 -13" stroke="#0D1117" stroke-opacity="0.1" stroke-width="11" stroke-linecap="round" stroke-linejoin="round"/>
<path d="M248 249C249.064 252.621 252.79 254.758 256.388 255.872C259.987 256.985 263.865 257.503 267.02 259.566C270.174 261.623 272.314 266.005 270.357 269.225" stroke="#0D1117" stroke-opacity="0.1" stroke-width="11" stroke-linecap="round" stroke-linejoin="round"/>
<path d="M781.511 285.345C779.907 291.553 772.248 293.635 765.865 294.158C759.483 294.682 751.97 295.376 748.706 300.884" stroke="white" stroke-opacity="0.4" stroke-width="11" stroke-linecap="round" stroke-linejoin="round"/>
<path d="M24.1549 108C22.5502 114.208 14.8913 116.29 8.50884 116.813C2.12642 117.336 -5.3866 118.03 -8.65076 123.538" stroke="#0D1117" stroke-opacity="0.1" stroke-width="11" stroke-linecap="round" stroke-linejoin="round"/>
<path d="M464.074 313.393C470.45 313.977 473.739 321.214 475.283 327.434C476.827 333.654 478.723 340.964 484.686 343.307" stroke="#0D1117" stroke-opacity="0.1" stroke-width="11" stroke-linecap="round" stroke-linejoin="round"/>
</g>
<defs>
<clipPath id="clip0_5385_12862">
<rect y="325" width="325" height="1170" rx="60" transform="rotate(-90 0 325)" fill="white"/>
</clipPath>
</defs>
</svg>
