<svg viewBox="0 0 144 32" xmlns="http://www.w3.org/2000/svg">
  <defs>
    <linearGradient id="logo-gradient" x1="119.024" y1="7.432" x2="119.024" y2="24.651" gradientUnits="userSpaceOnUse">
      <stop stop-color="#F28F41"/><stop offset="1" stop-color="#EB5E30"/>
    </linearGradient>
    <linearGradient id="logo-gradient-2" x1="14.643" y1="-.108" x2="14.643" y2="31.813" gradientUnits="userSpaceOnUse">
      <stop stop-color="#F28F41"/><stop offset="1" stop-color="#EB5E30"/>
    </linearGradient>
    <clipPath id="logo-clip"><path fill="#fff" d="M0 0h143.377v32H0z"/></clipPath>
  </defs>
  <g clip-path="url(#logo-clip)">
    <path d="M46.763 16.127c0-5.477 2.81-8.717 8.215-8.717 5.405 0 8.065 3.24 8.065 8.48s-2.66 8.718-8.28 8.718c-5.405.021-8-3.22-8-8.481Zm11.24-.215c0-2.868-1.008-4.301-3.025-4.301-2.021 0-3.169 1.584-3.169 4.394 0 2.954 1.076 4.466 3.17 4.466 2.093 0 3.024-1.534 3.024-4.58v.02ZM64.92 7.697h6.697c6.702 0 8.43 3.677 8.43 8.359 0 4.68-1.87 8.287-8.43 8.287H64.92V7.697Zm7.263 12.538c2.014 0 2.867-1.728 2.867-4.251 0-2.524-.795-4.251-2.867-4.251h-2.294v8.502h2.294ZM95.755 24.271a8.602 8.602 0 0 1-2.596-4.079h-6.193v-2.15H92.7a8.187 8.187 0 0 1-.072-1.871c.012-.7.06-1.399.143-2.094h-5.735v-2.15h6.345a8.754 8.754 0 0 1 2.15-3.585c.197-.21.413-.403.646-.573H82.069v16.574h13.772l-.086-.072Z" fill="#3B3C46"/>
    <path d="M113.626 24.343V18.76l-5.735-11.026h5.326l2.81 6.631 2.739-6.631h5.405l-5.692 10.954v5.692l-4.853-.036Zm24.926 0-.215-9.8-2.81 6.624h-3.312l-2.739-6.552-.215 9.728h-4.832l.717-16.646h5.621l3.097 7.635 3.096-7.635h5.692l.717 16.646h-4.817Zm-34.41-4.036h-.431c-2.021 0-3.964-.796-3.964-4.18 0-3.383 1.943-4.3 4.301-4.3 1.36.025 2.712.193 4.036.501l-1.878-3.584-.573-1.154c-.717-.072-1.513-.072-2.309-.072-5.541 0-8.645 3.384-8.645 8.717 0 6.122 3.584 8.502 8.724 8.502a21.35 21.35 0 0 0 5.613-.795v-6.617h-4.824v2.953l-.05.029Z" fill="url(#logo-gradient)"/>
    <path d="M45.106 20.02c-.94.144-1.8.215-2.739.287-2.308 0-4.25-.796-4.25-4.18 0-3.383 2.014-4.179 4.25-4.179.941 0 1.88.072 2.81.215a9.549 9.549 0 0 1 2.151-3.814 23.334 23.334 0 0 0-3.312-.652s-1.226-.143-1.87-.143H40.64c-4.467.358-7.57 2.81-7.57 8.43v.215c0 5.692 3.103 8.144 7.57 8.503h1.433c.646 0 1.871-.144 1.871-.144a24.2 24.2 0 0 0 3.24-.58 10.036 10.036 0 0 1-2.078-3.958Z" fill="#3B3C46"/>
    <path d="m26.231 26.142-8.717 5.018a5.779 5.779 0 0 1-5.907 0l-8.725-5.018a6.122 6.122 0 0 1-2.867-5.119V10.987a6.022 6.022 0 0 1 2.953-5.111L11.693.858a5.814 5.814 0 0 1 5.907 0l8.717 5.018a6.022 6.022 0 0 1 2.954 5.111v10.036a6.267 6.267 0 0 1-3.04 5.12Z" fill="url(#logo-gradient-2)"/>
    <path d="M17.076 26.214a4.668 4.668 0 0 1-1.942-.358c-.359-.144-.646-.287-1.011-.438a5.17 5.17 0 0 1-1.37-1.075 3.647 3.647 0 0 1-.716-1.37 5.676 5.676 0 0 1-.215-1.584v-2.093a2.724 2.724 0 0 0-.366-1.512 1.534 1.534 0 0 0-1.219-.574v-2.38a1.212 1.212 0 0 0 1.219-.574c.306-.44.437-.98.366-1.512V10.65a6.024 6.024 0 0 1 .215-1.584c.121-.509.367-.98.717-1.37a5.799 5.799 0 0 1 1.433-1.153c.294-.144.653-.287 1.011-.43a5.384 5.384 0 0 1 1.871-.287h.294v2.373a2.33 2.33 0 0 0-.717.15.96.96 0 0 0-.502.43l-.215.43c-.064.16-.091.331-.079.502 0 .223-.071.366-.071.581v2.524a3.584 3.584 0 0 1-.574 1.87 3.8 3.8 0 0 1-1.806 1.37c.726.26 1.354.739 1.8 1.369.36.558.559 1.206.573 1.871v2.595c-.016.194.009.39.071.574 0 .143.08.365.08.509l.214.43c.152.16.32.305.502.43.23.082.472.13.717.143v2.38h-.294l.014-.143Z" fill="#fff"/>
  </g>
</svg>
