<svg viewBox="0 0 144 32" fill="none" xmlns="http://www.w3.org/2000/svg">
    <path d="M46.763 16.128c0-5.478 2.81-8.718 8.215-8.718 5.405 0 8.065 3.24 8.065 8.48 0 5.241-2.66 8.718-8.28 8.718-5.405.022-8-3.219-8-8.48zm11.24-.216c0-2.867-1.008-4.3-3.025-4.3-2.021 0-3.169 1.583-3.169 4.394 0 2.953 1.076 4.466 3.17 4.466 2.093 0 3.024-1.534 3.024-4.581v.021zM64.921 7.697h6.696c6.703 0 8.43 3.678 8.43 8.36 0 4.68-1.87 8.286-8.43 8.286H64.92V7.697zm7.262 12.539c2.014 0 2.868-1.728 2.868-4.252 0-2.523-.796-4.25-2.868-4.25h-2.294v8.502h2.294zM95.755 24.271a8.602 8.602 0 0 1-2.596-4.079h-6.193v-2.15H92.7a8.188 8.188 0 0 1-.072-1.872c.012-.7.06-1.398.143-2.093h-5.735v-2.15h6.345a8.754 8.754 0 0 1 2.15-3.585c.197-.21.413-.403.646-.573H82.069v16.574h13.772l-.086-.072z" fill="#fff"/>
    <path d="M113.626 24.343v-5.585l-5.735-11.025h5.326l2.81 6.63 2.739-6.63h5.405l-5.692 10.954v5.692l-4.853-.036zm24.926 0-.215-9.8-2.81 6.624h-3.312l-2.739-6.552-.215 9.728h-4.832l.717-16.646h5.621l3.097 7.635 3.096-7.635h5.692l.717 16.646h-4.817zm-34.41-4.036h-.431c-2.021 0-3.964-.796-3.964-4.18 0-3.383 1.943-4.301 4.301-4.301 1.36.026 2.712.194 4.036.502l-1.878-3.585-.573-1.154c-.717-.071-1.513-.071-2.309-.071-5.541 0-8.645 3.383-8.645 8.717 0 6.122 3.584 8.502 8.724 8.502a21.345 21.345 0 0 0 5.613-.796v-6.616h-4.824v2.953l-.05.029zM45.106 20.02c-.94.144-1.8.215-2.739.287-2.308 0-4.25-.796-4.25-4.18 0-3.383 2.014-4.179 4.25-4.179.941 0 1.88.072 2.81.215a9.549 9.549 0 0 1 2.151-3.814 23.334 23.334 0 0 0-3.312-.652s-1.226-.143-1.87-.143H40.64c-4.467.358-7.57 2.81-7.57 8.43v.215c0 5.692 3.103 8.144 7.57 8.503h1.433c.646 0 1.871-.144 1.871-.144a24.2 24.2 0 0 0 3.24-.58 10.036 10.036 0 0 1-2.078-3.958z" fill="#fff"/>
    <path fill-rule="evenodd" clip-rule="evenodd" d="m17.514 31.16 8.717-5.018a6.266 6.266 0 0 0 3.04-5.118V10.987a6.022 6.022 0 0 0-2.954-5.11L17.6.856a5.814 5.814 0 0 0-5.907 0l-8.725 5.02a6.022 6.022 0 0 0-2.953 5.11v10.037a6.122 6.122 0 0 0 2.867 5.118l8.725 5.018a5.778 5.778 0 0 0 5.907 0zm-2.38-5.304a4.668 4.668 0 0 0 1.942.358l-.014.143h.294v-2.38a2.544 2.544 0 0 1-.717-.143 3.11 3.11 0 0 1-.502-.43l-.215-.43c0-.072-.02-.163-.04-.255a1.334 1.334 0 0 1-.039-.254 1.436 1.436 0 0 1-.071-.574v-2.595a3.584 3.584 0 0 0-.574-1.871 3.756 3.756 0 0 0-1.8-1.37 3.8 3.8 0 0 0 1.807-1.368c.361-.559.56-1.207.574-1.871v-2.524c0-.107.017-.196.035-.285a1.44 1.44 0 0 0 .037-.296 1.118 1.118 0 0 1 .078-.501l.215-.43a.96.96 0 0 1 .502-.43 2.33 2.33 0 0 1 .717-.151V5.826h-.294a5.384 5.384 0 0 0-1.87.287h-.001c-.358.143-.717.286-1.01.43a5.799 5.799 0 0 0-1.434 1.154c-.35.39-.596.86-.717 1.37a6.024 6.024 0 0 0-.215 1.583v2.094a2.15 2.15 0 0 1-.366 1.512 1.212 1.212 0 0 1-1.219.574v2.38a1.533 1.533 0 0 1 1.219.573c.266.458.393.984.366 1.513v2.093a5.676 5.676 0 0 0 .215 1.585c.138.502.383.969.717 1.369a5.17 5.17 0 0 0 1.369 1.075c.17.07.324.14.476.207.173.078.344.154.535.23z" fill="#fff"/>
</svg>
