<svg viewBox="0 0 147 32" fill="none" xmlns="http://www.w3.org/2000/svg">
  <path fill-rule="evenodd" clip-rule="evenodd" d="M35.256 11.922V7.456h6.574V17.86a6.54 6.54 0 0 1-.555 2.682 7.156 7.156 0 0 1-1.491 2.184 7.146 7.146 0 0 1-2.199 1.482 6.656 6.656 0 0 1-2.7.551H31.49a8.66 8.66 0 0 0 .838-3.72v-1.298h1.154c.283 0 1.752-.054 2.013-.162.262-.119.48-.26.664-.454.185-.184.338-.4.447-.649a1.9 1.9 0 0 0 .163-.79v-5.764h-1.513zm6.716 12.837 5.377-17.303h5.66l5.377 17.303h-5.04l-.555-2.055h-5.246l-.534 2.055h-5.04zm8.207-10.89-1.012 3.99h1.991l-.98-3.99zm11.843-6.413 2.21 8.565 2.209-8.565h5.518l-4.648 17.141h-6.15l-4.658-17.14h5.519zm13.312 0L69.957 24.76h5.04l.532-2.055h5.258l.555 2.055h5.04L80.994 7.456h-5.66zM77.15 17.86l1.013-3.991.98 3.99H77.15z" fill="#3B3C46"/>
  <path fill-rule="evenodd" clip-rule="evenodd" d="m17.731 31.205 8.784-5.04a5.88 5.88 0 0 0 2.983-5.115V10.96a5.934 5.934 0 0 0-2.983-5.126L17.72.794a5.972 5.972 0 0 0-5.953 0l-8.785 5.04A5.88 5.88 0 0 0 0 10.95v10.09a5.885 5.885 0 0 0 2.982 5.126l8.795 5.04a5.972 5.972 0 0 0 5.954 0zm112.897-15.27c.349.421.632.886.828 1.395.206.508.304 1.049.283 1.622.021.843-.109 1.6-.392 2.282-.283.67-.653 1.276-1.165 1.762-.969.909-2.329 1.742-4.702 1.86-1.84.098-4.474-.227-7.783-1.892a8.59 8.59 0 0 0 .893-1.536 7.896 7.896 0 0 0 .664-3.18v-.194l.472.205.002.001h.002c.985.428 2.601 1.13 3.344 1.395.36.13 1.666.432 2.079.432.262-.021.479-.075.653-.183.175-.109.283-.293.316-.563a.857.857 0 0 0-.163-.508 1.766 1.766 0 0 0-.425-.379 2.346 2.346 0 0 0-.522-.26c-.392-.15-1.97-.778-3.015-1.46-2.874-1.866-2.754-3.996-2.725-4.51l.004-.085c0-.509.076-1.006.217-1.482.142-.476.37-.92.686-1.32.316-.4.708-.756 1.176-1.07.478-.314 1.044-.54 1.698-.703a8.397 8.397 0 0 1 2.068-.281c.849-.032 1.698 0 2.536.108.838.097 1.698.303 2.558.606-.033.27-.044.465-.044.595v.584c0 .19-.006.454-.013.79l-.004.2-.005.2c-.01.529-.054 1.34-.119 2.422-.512-.206-1.1-.4-1.774-.574a16.655 16.655 0 0 0-1.851-.378 3.746 3.746 0 0 0-.925.021 1.765 1.765 0 0 0-.784.336c-.174.173-.207.357-.087.551.12.195.272.346.446.454l2.732.887a6.093 6.093 0 0 1 1.59.736 5.88 5.88 0 0 1 1.251 1.114zm-25.339 8.056a8.128 8.128 0 0 1-1.785-2.552 6.62 6.62 0 0 1-.371-1.016 8.84 8.84 0 0 1-.947.616 3.35 3.35 0 0 1-.783.27 3.507 3.507 0 0 1-.817.098c-.272 0-.511-.044-.718-.14-.446-.195-.805-.401-1.067-.628a9.34 9.34 0 0 1-.653-.627 7.046 7.046 0 0 0 1.916-1.969 6.54 6.54 0 0 0 .98-2.66c.141-.94.098-1.85-.131-2.725a7.133 7.133 0 0 0-1.132-2.39 6.9 6.9 0 0 0-1.949-1.806 6.808 6.808 0 0 0-2.58-.963 9.313 9.313 0 0 0-1.044-.043h-6.063V24.76h5.04v-3.623c.25.27.522.573.794.909.272.335.566.681.893 1.027.326.346.707.703 1.132 1.06.435.357.936.703 1.513 1.038.403.227.87.4 1.415.53a7.42 7.42 0 0 0 1.72.195c.446 0 .925-.022 1.437-.076a9.543 9.543 0 0 0 1.491-.249c.479-.119.936-.27 1.36-.465.36-.162.664-.357.926-.573a19.946 19.946 0 0 0-.201-.185c-.128-.118-.255-.235-.376-.356zm-9.753-8.478a1.567 1.567 0 0 1-1.165.486h-1.164v-3.32h1.164a1.6 1.6 0 0 1 1.165.476c.316.314.479.703.479 1.168-.011.465-.163.855-.48 1.19zm45.759-8.057v6.11h-2.949v-6.11h-5.04V24.76h5.04v-6.186h2.949v6.186h5.04V7.456h-5.04zm-28.692 10.566c0 .4-.152.746-.468 1.038-.316.292-.675.443-1.088.443-.403 0-.751-.151-1.067-.443a1.362 1.362 0 0 1-.468-1.038V7.402h-5.04V18.26c0 .886.174 1.73.534 2.52.348.789.827 1.47 1.425 2.054a6.9 6.9 0 0 0 2.09 1.384 6.252 6.252 0 0 0 2.537.509 6.57 6.57 0 0 0 2.547-.509 6.802 6.802 0 0 0 2.1-1.384 6.509 6.509 0 0 0 1.426-2.055c.349-.79.534-1.622.534-2.52V7.403h-5.04v10.62h-.022z" fill="url(#a)"/>
  <path d="M10.994 17.395c.206.097.38.248.511.432.13.184.24.411.305.67.065.26.098.563.098.888V21.6c0 .574.076 1.125.229 1.644.152.52.413 1.006.794 1.439.37.443.86.832 1.47 1.178.61.347 1.35.617 2.21.833l.772-1.936a2.15 2.15 0 0 1-.784-.465 2.321 2.321 0 0 1-.49-.713 3.703 3.703 0 0 1-.26-.909 8.24 8.24 0 0 1-.077-1.06v-2.217c0-.724-.196-1.384-.588-1.968-.392-.595-1.012-1.07-1.872-1.417.86-.346 1.48-.822 1.872-1.405a3.521 3.521 0 0 0 .588-1.98v-2.238c0-.368.022-.725.076-1.06a2.95 2.95 0 0 1 .261-.908c.12-.27.283-.509.49-.714.207-.206.468-.357.784-.465l-.773-1.925c-.86.216-1.6.487-2.21.822-.609.335-1.099.724-1.469 1.168-.37.443-.631.919-.794 1.438a5.825 5.825 0 0 0-.23 1.644v2.217c0 .66-.13 1.179-.402 1.568-.261.39-.686.584-1.273.584v2.477c.294.01.544.054.762.162z" fill="#fff"/>
  <defs>
    <linearGradient id="a" x1="14.748" y1=".384" x2="14.748" y2="32.141" gradientUnits="userSpaceOnUse"><stop stop-color="#F48F41"/><stop offset="1" stop-color="#F05E2D"/></linearGradient>
  </defs>
</svg>
