<svg width="236" height="137" viewBox="0 0 236 137" fill="none" xmlns="http://www.w3.org/2000/svg">
<g id="Frame">
<g id="&#208;&#161;&#208;&#187;&#208;&#190;&#208;&#185; 3">
<path id="Vector" d="M152.43 35.89C152.43 35.89 156.66 24.56 154.95 17.48C153.24 10.4 149.15 7.59 143.18 8.44C143.18 8.44 141.92 4.94 135.94 2.64C129.96 0.340002 123.91 2.38 119.31 3.58C114.71 4.78 111.89 5.5 109.93 1.6C109.93 1.6 105.5 5.12 105.33 14.15C105.16 23.18 111.72 27.54 116.67 28.9C121.62 30.26 136.11 31.03 140.46 27.02C140.46 27.02 147.33 29.4 146.39 41.42C145.45 53.44 131.68 53.36 131.68 53.36C131.68 53.36 131.85 50.97 128.95 50.89C126.05 50.81 125.88 53.36 125.88 53.36C125.88 53.36 113.52 52.25 112.58 40.32C112.58 40.32 111.13 51.32 115.99 55.24C120.85 59.16 124.6 59.25 130.23 59.16C135.86 59.07 141.23 58.9 144.47 56.01C147.71 53.12 148.91 49.59 148.91 46.86V36.55L152.43 35.88V35.89Z" fill="#0D1117"/>
<path id="Vector_2" d="M123.66 62.1699C123.66 62.1699 124.32 66.9499 130.88 67.0499C137.44 67.1499 139.13 62.1699 139.13 62.1699C139.13 62.1699 142.51 63.9499 141.1 67.5199C139.69 71.0899 131.5 72.3599 127.5 71.3699C123.93 70.4799 118.5 67.5199 123.65 62.1799L123.66 62.1699Z" fill="#0D1117"/>
<g id="Group">
<path id="Vector_3" d="M124.25 82.35V85.19C124.25 85.19 122.08 84.35 122.08 86.81C122.08 89.27 122.86 94.31 119.79 94.31C119.79 94.31 121.8 95 121.8 98.79C121.8 102.58 122.75 103.92 124.25 103.86V106.76C124.25 106.76 119.73 107.48 119.4 104.08C119.07 100.68 119.07 96.11 115.94 95.88V91.91C115.94 91.91 119.17 92.03 119.34 89.19C119.51 86.35 118.62 84.17 120.18 82.95C121.74 81.73 124.25 82.34 124.25 82.34V82.35Z" fill="#0D1117"/>
<path id="Vector_4" d="M128.6 82.1899V85.3499C128.6 85.3499 131.72 84.8299 132.06 86.5799C132.4 88.3299 132 89.5299 132.06 91.2599C132.12 92.9899 133.51 94.6299 134.62 94.5099C134.62 94.5099 132.11 95.6099 131.89 98.7399C131.67 101.87 131.5 104.13 128.6 103.86V106.81C128.6 106.81 132.73 107.26 133.84 104.13C134.95 101 133.73 96.8999 137.52 96.2799V92.0999C137.52 92.0999 135.18 92.3799 135.12 89.1999C135.06 86.0199 135.18 82.1899 128.6 82.1899Z" fill="#0D1117"/>
</g>
<g id="Group_2">
<path id="Vector_5" d="M18.4501 104.9C18.4501 104.9 20.4601 115.11 22.9701 117.96L18.4501 104.9Z" fill="#CDF567"/>
<path id="Vector_6" d="M133.82 128.17C133.82 128.17 116.61 128.08 101.18 128.1C98.8801 121.63 94.4501 109.05 93.4601 105.73C92.1201 101.21 80.5701 63.7 79.7301 60.69C78.8901 57.68 70.0201 58.46 70.0201 58.46C68.5001 58.41 67.34 58.61 67.34 58.61C67.34 58.61 9.81006 62.69 4.50006 62.69C-0.809943 62.69 0.830056 66.94 0.830056 66.94C0.830056 66.94 3.07006 77.58 7.36006 92.07C11.6401 106.55 21.0301 129.2 21.0301 129.2L22.4401 130.09C21.2701 130.39 20.5501 131.11 21.6301 132.69C24.1401 136.37 29.5001 135.87 33.6901 135.87C37.8801 135.87 90.2901 135.92 104.52 135.89C118.75 135.86 130.14 135.7 132.99 134.53C135.84 133.36 140.36 128.2 133.83 128.17H133.82ZM96.2901 126.6L96.7001 127.67C96.7001 127.67 96.5501 127.31 96.2901 126.6Z" fill="#CDF567"/>
<path id="Vector_7" d="M51.7701 93.8299C51.7701 93.8299 49.2601 89.3299 44.0701 89.6599C38.8801 89.9899 36.0301 94.8499 37.3701 99.5399C38.7101 104.23 44.9001 105.74 48.0901 104.9C51.2801 104.06 53.9501 98.6599 51.7701 93.8299Z" fill="white"/>
</g>
<path id="Vector_8" d="M221.73 85.0598C219.92 84.9098 202.89 85.2098 193.54 85.0598C184.19 84.9098 167.46 85.1198 164.45 85.0198C161.43 84.9098 159.93 85.2098 159.93 87.4798C159.93 89.7498 158.12 102.01 161.14 102.05C155.45 102.07 152.52 102.13 151.02 102.07C148.01 101.96 146.5 102.26 146.5 104.53C146.5 106.8 144.69 119.06 147.71 119.1C150.73 119.14 187.06 118.85 187.06 118.85C187.06 118.85 198.97 118.55 203.04 118.85C203.33 118.87 203.61 118.89 203.89 118.92L153.07 119.22C152.32 119.56 151.94 120.21 151.94 121.34C151.94 123.6 150.13 135.87 153.15 135.91C156.17 135.96 192.5 135.66 192.5 135.66C192.5 135.66 204.41 135.36 208.48 135.66C212.55 135.96 214.81 136.56 214.66 133.4C214.51 130.24 215.56 119.08 213.76 118.93C213.17 118.88 211.98 118.88 208.97 118.9H208.17C208.93 118.61 209.31 117.95 209.25 116.6C209.1 113.43 210.06 101.84 208.26 101.68C211.41 101.66 214.72 101.68 216.51 101.8C220.58 102.1 222.84 102.7 222.69 99.5398C222.54 96.3798 223.59 85.2198 221.79 85.0698L221.73 85.0598Z" fill="#5EE29D"/>
<path id="Vector_9" d="M178.91 84.9902V102.05H165.62V119.01L170.9 119.11V135.91L196.23 135.57V118.71L190.8 118.77V101.87L204.24 101.66V85.0902L178.91 84.9902Z" fill="white"/>
<path id="Vector_10" d="M169.91 60.8802C169.91 60.8802 173.33 61.2402 175.67 57.8202C178.01 54.4002 177.83 51.7002 177.83 51.7002C177.83 51.7002 178.37 56.7402 180.53 58.7202C182.69 60.7002 185.03 60.8902 185.03 60.8902C185.03 60.8902 177.65 63.2202 177.47 69.8802C177.47 69.8802 175.85 61.0602 169.91 60.8802Z" fill="#C9B7EC"/>
<path id="Vector_11" d="M68.0701 28.89C68.0701 28.89 71.4901 29.25 73.8301 25.83C76.1701 22.41 75.9901 19.71 75.9901 19.71C75.9901 19.71 76.5301 24.75 78.6901 26.73C80.8501 28.71 83.1901 28.9 83.1901 28.9C83.1901 28.9 75.8101 31.23 75.6301 37.89C75.6301 37.89 74.0101 29.07 68.0701 28.89Z" fill="#5EE29D"/>
<path id="Vector_12" d="M35.52 42.8699C35.52 42.8699 37.84 43.1099 39.43 40.7899C41.02 38.4699 40.9 36.6299 40.9 36.6299C40.9 36.6299 41.27 40.0499 42.73 41.3999C44.19 42.7499 45.79 42.8699 45.79 42.8699C45.79 42.8699 40.78 44.4499 40.66 48.9699C40.66 48.9699 39.56 42.9799 35.53 42.8599L35.52 42.8699Z" fill="#C9B7EC"/>
<path id="Vector_13" d="M202.62 43.0999C202.62 43.0999 204.65 43.3099 206.04 41.2799C207.43 39.2499 207.32 37.6499 207.32 37.6499C207.32 37.6499 207.64 40.6399 208.92 41.8199C210.2 42.9999 211.59 43.1099 211.59 43.1099C211.59 43.1099 207.21 44.4899 207.1 48.4399C207.1 48.4399 206.14 43.2099 202.61 43.0999H202.62Z" fill="#CDF567"/>
</g>
<g id="&#208;&#161;&#208;&#187;&#208;&#190;&#208;&#185; 2">
<g id="Group_3">
<path id="Vector_14" d="M142.07 34.2501V35.6001H140.57V36.9401H139.24V38.3101H137.81V39.6601C134.5 39.6601 131.24 39.6601 127.93 39.6601V38.2901H126.49V36.9201H125.1V35.6101H122.39V36.9401H120.95V38.2801H111.27V36.9201H109.7V35.5601H108.48V32.8501C122.39 32.8501 136.28 32.8501 150.2 32.8501V34.2001H153.07V35.5501H150.18V34.2301C147.47 34.2301 144.79 34.2301 142.07 34.2301V34.2501ZM135.07 38.2501H136.42V36.9501H135.06C135.06 36.5001 135.07 36.0401 135.08 35.5901C135.51 35.5901 135.94 35.5901 136.4 35.5901V34.2501H135.1V35.6001H133.78V36.9501H132.43V38.2501H133.76V36.9401C134.2 36.9401 134.64 36.9401 135.07 36.9401V38.2501ZM118.1 35.6001V34.2501H116.8V35.6101H115.46V36.9001H116.79V35.6001C117.22 35.6001 117.65 35.6001 118.1 35.6001ZM139.14 35.5501V34.2501H137.87V35.6201H136.48V36.9101H137.78C137.81 36.4701 137.84 36.0401 137.86 35.6201C138.28 35.6001 138.69 35.5801 139.14 35.5501ZM119.82 34.2301C119.75 34.2301 119.64 34.3401 119.64 34.4001C119.62 34.7801 119.64 35.1601 119.64 35.5601H120.97V34.2201C120.59 34.2201 120.21 34.2201 119.83 34.2201L119.82 34.2301ZM119.62 35.6101H118.3V36.9101H119.62V35.6101Z" fill="#0D1117"/>
<path id="Vector_15" d="M169.91 60.8802C169.91 60.8802 173.33 61.2402 175.67 57.8202C178.01 54.4002 177.83 51.7002 177.83 51.7002C177.83 51.7002 178.37 56.7402 180.53 58.7202C182.69 60.7002 185.03 60.8902 185.03 60.8902C185.03 60.8902 177.65 63.2202 177.47 69.8802C177.47 69.8802 175.85 61.0602 169.91 60.8802Z" stroke="#0D1117" stroke-linecap="round" stroke-linejoin="round"/>
<path id="Vector_16" d="M68.0701 28.89C68.0701 28.89 71.4901 29.25 73.8301 25.83C76.1701 22.41 75.9901 19.71 75.9901 19.71C75.9901 19.71 76.5301 24.75 78.6901 26.73C80.8501 28.71 83.1901 28.9 83.1901 28.9C83.1901 28.9 75.8101 31.23 75.6301 37.89C75.6301 37.89 74.0101 29.07 68.0701 28.89Z" stroke="#0D1117" stroke-linecap="round" stroke-linejoin="round"/>
<path id="Vector_17" d="M35.52 42.8699C35.52 42.8699 37.84 43.1099 39.43 40.7899C41.02 38.4699 40.9 36.6299 40.9 36.6299C40.9 36.6299 41.27 40.0499 42.73 41.3999C44.19 42.7499 45.79 42.8699 45.79 42.8699C45.79 42.8699 40.78 44.4499 40.66 48.9699C40.66 48.9699 39.56 42.9799 35.53 42.8599L35.52 42.8699Z" stroke="#0D1117" stroke-linecap="round" stroke-linejoin="round"/>
<path id="Vector_18" d="M202.62 43.0999C202.62 43.0999 204.65 43.3099 206.04 41.2799C207.43 39.2499 207.32 37.6499 207.32 37.6499C207.32 37.6499 207.64 40.6399 208.92 41.8199C210.2 42.9999 211.59 43.1099 211.59 43.1099C211.59 43.1099 207.21 44.4899 207.1 48.4399C207.1 48.4399 206.14 43.2099 202.61 43.0999H202.62Z" stroke="#0D1117" stroke-linecap="round" stroke-linejoin="round"/>
<path id="Vector_19" d="M112.58 40.3301C112.58 40.3301 111.13 51.3301 115.99 55.2501C120.85 59.1701 124.6 59.2601 130.23 59.1701C135.86 59.0801 141.23 58.9101 144.47 56.0201C147.71 53.1301 148.91 49.6001 148.91 46.8701V42.2501" stroke="#0D1117" stroke-linecap="round" stroke-linejoin="round"/>
<path id="Vector_20" d="M152.43 34.89C152.43 34.89 156.66 24.56 154.95 17.48C153.24 10.4 149.15 7.59 143.18 8.44C143.18 8.44 141.92 4.94 135.94 2.64C129.96 0.340002 123.91 2.38 119.31 3.58C114.71 4.78 111.89 5.5 109.93 1.6C109.93 1.6 105.5 5.12 105.33 14.15C105.16 23.18 111.72 27.54 116.67 28.9C121.62 30.26 136.11 31.03 140.46 27.02C140.46 27.02 147.33 29.4 146.39 41.42C145.45 53.44 131.68 53.36 131.68 53.36C131.68 53.36 131.85 50.97 128.95 50.89C126.05 50.81 125.88 53.36 125.88 53.36C125.88 53.36 113.52 52.25 112.58 40.32V27.36" stroke="#0D1117" stroke-linecap="round" stroke-linejoin="round"/>
<path id="Vector_21" d="M123.66 34.5698V39.8898C123.66 39.8898 120.6 39.1998 120.6 41.4198C120.6 43.6398 123.66 42.9498 123.66 42.9498" stroke="#0D1117" stroke-linecap="round" stroke-linejoin="round"/>
<path id="Vector_22" d="M148.91 43.2499C148.91 43.2499 149.23 45.2099 151.44 45.2099C153.65 45.2099 154.72 41.4199 154.72 39.3999C154.72 37.3799 152.76 34.5499 148.91 36.3799V43.2599V43.2499Z" stroke="#0D1117" stroke-linecap="round" stroke-linejoin="round"/>
<path id="Vector_23" d="M151.81 38.2002C151.81 38.2002 150.55 40.6002 149.35 41.3602C149.35 41.3602 150.68 42.1202 151.37 42.8102" stroke="#0D1117" stroke-linecap="round" stroke-linejoin="round"/>
<path id="Vector_24" d="M124.54 46.91C124.54 46.91 128.8 49.28 132.2 43.96" stroke="#0D1117" stroke-linecap="round" stroke-linejoin="round"/>
<path id="Vector_25" d="M151.37 129.94C145.87 130.83 140.47 131.3 136.56 131.54" stroke="#0D1117" stroke-linecap="round" stroke-linejoin="round"/>
<path id="Vector_26" d="M141.12 64.3701C159.38 71.0901 165.63 84.9901 165.63 84.9901" stroke="#0D1117" stroke-linecap="round" stroke-linejoin="round"/>
<path id="Vector_27" d="M109.54 118.32C107.19 120.32 103.61 121.87 99.53 123.07" stroke="#0D1117" stroke-linecap="round" stroke-linejoin="round"/>
<path id="Vector_28" d="M121.91 64.3701C121.91 64.3701 115.96 65.4701 109.36 71.3501C105.51 74.7801 102.49 79.0401 100.32 83.7201C98.29 88.1201 96.6 98.5501 92.55 102.72" stroke="#0D1117" stroke-linecap="round" stroke-linejoin="round"/>
<path id="Vector_29" d="M109.95 122.67C109.95 122.67 108.55 98.2498 110.89 89.0898" stroke="#0D1117" stroke-linecap="round" stroke-linejoin="round"/>
<path id="Vector_30" d="M151.5 101.94C150.26 97.9399 148.61 93.5399 146.7 89.9399" stroke="#0D1117" stroke-linecap="round" stroke-linejoin="round"/>
<path id="Vector_31" d="M127.78 115.51C127.78 115.51 126.73 114.05 132.95 113.7C136.06 113.52 141.04 113.07 145.24 112.66" stroke="#0D1117" stroke-linecap="round" stroke-linejoin="round"/>
<path id="Vector_32" d="M119.05 121.48C119.05 121.48 109.7 124.28 109.75 127.97" stroke="#0D1117" stroke-linecap="round" stroke-linejoin="round"/>
<path id="Vector_33" d="M122.25 124.83C122.25 124.83 117.42 126.04 114.4 127.97" stroke="#0D1117" stroke-linecap="round" stroke-linejoin="round"/>
<path id="Vector_34" d="M107.8 127.85C106.99 126.77 107.55 123.62 113.17 120.37C120.25 116.29 128.45 115.5 128.45 115.5C128.45 115.5 130.67 115.61 131.52 122.75C131.78 124.97 131.83 126.73 131.75 128.1" stroke="#0D1117" stroke-linecap="round" stroke-linejoin="round"/>
<g id="Group_4">
<path id="Vector_35" d="M123.66 62.1699C123.66 62.1699 124.32 66.9499 130.88 67.0499C137.44 67.1499 139.13 62.1699 139.13 62.1699C139.13 62.1699 142.51 63.9499 141.1 67.5199C139.69 71.0899 131.5 72.3599 127.5 71.3699C123.93 70.4799 118.5 67.5199 123.65 62.1799L123.66 62.1699Z" stroke="#0D1117" stroke-linecap="round" stroke-linejoin="round"/>
<path id="Vector_36" d="M123.66 59.3701V62.1701" stroke="#0D1117" stroke-linecap="round" stroke-linejoin="round"/>
<path id="Vector_37" d="M139.14 62.1699V59.1899" stroke="#0D1117" stroke-linecap="round" stroke-linejoin="round"/>
</g>
<g id="Group_5">
<path id="Vector_38" d="M21.0301 129.2C21.0301 129.2 11.6501 106.55 7.36005 92.0699C3.07005 77.5899 0.840053 66.9399 0.840053 66.9399C0.840053 66.9399 -0.789947 62.6899 4.51005 62.6899C9.81005 62.6899 67.3501 58.6099 67.3501 58.6099C67.3501 58.6099 75.5101 57.1799 76.7301 62.8899C77.9501 68.5999 87.7501 99.1999 91.0101 110.42C94.2701 121.64 96.7001 127.66 96.7001 127.66" stroke="#0D1117" stroke-linecap="round" stroke-linejoin="round"/>
<path id="Vector_39" d="M70.03 58.4698C70.03 58.4698 78.9 57.6898 79.74 60.6998C80.58 63.7098 92.13 101.22 93.47 105.74C94.81 110.26 100.95 127.67 100.95 127.67" stroke="#0D1117" stroke-linecap="round" stroke-linejoin="round"/>
<path id="Vector_40" d="M18.4501 104.9C18.4501 104.9 20.4601 115.11 22.9701 117.96" stroke="#0D1117" stroke-linecap="round" stroke-linejoin="round"/>
<path id="Vector_41" d="M24.3101 121.48L25.4901 124.83" stroke="#0D1117" stroke-linecap="round" stroke-linejoin="round"/>
<path id="Vector_42" d="M133.82 128.17C133.82 128.17 103.51 128 87.2701 128.17C71.0301 128.34 56.9601 128.89 45.9101 129.2C34.8601 129.51 26.3201 130.01 26.3201 130.01C26.3201 130.01 19.1201 129.01 21.6301 132.69C24.1401 136.37 29.5001 135.87 33.6901 135.87C37.8801 135.87 90.2901 135.92 104.52 135.89C118.75 135.86 130.14 135.7 132.99 134.53C135.84 133.36 140.36 128.2 133.83 128.17H133.82Z" stroke="#0D1117" stroke-linecap="round" stroke-linejoin="round"/>
<path id="Vector_43" d="M51.7701 93.8299C51.7701 93.8299 49.2601 89.3299 44.0701 89.6599C38.8801 89.9899 36.0301 94.8499 37.3701 99.5399C38.7101 104.23 44.9001 105.74 48.0901 104.9C51.2801 104.06 53.9501 98.6599 51.7701 93.8299Z" stroke="#0D1117" stroke-linecap="round" stroke-linejoin="round"/>
</g>
<g id="Group_6">
<path id="Vector_44" d="M124.25 82.35V85.19C124.25 85.19 122.08 84.35 122.08 86.81C122.08 89.27 122.86 94.31 119.79 94.31C119.79 94.31 121.8 95 121.8 98.79C121.8 102.58 122.75 103.92 124.25 103.86V106.76C124.25 106.76 119.73 107.48 119.4 104.08C119.07 100.68 119.07 96.11 115.94 95.88V91.91C115.94 91.91 119.17 92.03 119.34 89.19C119.51 86.35 118.62 84.17 120.18 82.95C121.74 81.73 124.25 82.34 124.25 82.34V82.35Z" stroke="#0D1117" stroke-linecap="round" stroke-linejoin="round"/>
<path id="Vector_45" d="M128.6 82.1899V85.3499C128.6 85.3499 131.72 84.8299 132.06 86.5799C132.4 88.3299 132 89.5299 132.06 91.2599C132.12 92.9899 133.51 94.6299 134.62 94.5099C134.62 94.5099 132.11 95.6099 131.89 98.7399C131.67 101.87 131.5 104.13 128.6 103.86V106.81C128.6 106.81 132.73 107.26 133.84 104.13C134.95 101 133.73 96.8999 137.52 96.2799V92.0999C137.52 92.0999 135.18 92.3799 135.12 89.1999C135.06 86.0199 135.18 82.1899 128.6 82.1899Z" stroke="#0D1117" stroke-linecap="round" stroke-linejoin="round"/>
</g>
<path id="Vector_46" d="M221 81C221 81 221 76.0662 221 73" stroke="#0D1117" stroke-linecap="round" stroke-linejoin="round"/>
<path id="Vector_47" d="M227 86C227 86 232.786 85.7753 235 85" stroke="#0D1117" stroke-linecap="round" stroke-linejoin="round"/>
<path id="Vector_48" d="M229 77C229 77 225.418 80.4345 225 82" stroke="#0D1117" stroke-linecap="round" stroke-linejoin="round"/>
<g id="Group_7">
<path id="Vector_49" d="M200.47 101.79C200.47 101.79 212.38 101.49 216.45 101.79C220.52 102.09 222.78 102.69 222.63 99.5302C222.48 96.3702 223.53 85.2102 221.73 85.0602C219.93 84.9102 202.89 85.2102 193.54 85.0602C184.19 84.9102 167.46 85.1202 164.45 85.0202C161.44 84.9202 159.93 85.2102 159.93 87.4802C159.93 89.7502 158.12 102.01 161.14 102.05C164.16 102.09 200.49 101.8 200.49 101.8L200.47 101.79Z" stroke="#0D1117" stroke-linecap="round" stroke-linejoin="round"/>
<path id="Vector_50" d="M216.9 89.5801C216.9 89.5801 211.47 89.8801 209.97 89.5801" stroke="#0D1117" stroke-linecap="round" stroke-linejoin="round"/>
<path id="Vector_51" d="M204.24 85.0903V101.05" stroke="#0D1117" stroke-linecap="round" stroke-linejoin="round"/>
<path id="Vector_52" d="M178.91 85.0903V101.96" stroke="#0D1117" stroke-linecap="round" stroke-linejoin="round"/>
<path id="Vector_53" d="M184.04 85.0903V93.5203" stroke="#0D1117" stroke-linecap="round" stroke-linejoin="round"/>
<path id="Vector_54" d="M199.12 101.8V94.7002" stroke="#0D1117" stroke-linecap="round" stroke-linejoin="round"/>
<path id="Vector_55" d="M172.58 89.3102C172.58 89.3102 167.76 89.1902 165.95 89.3102" stroke="#0D1117" stroke-linecap="round" stroke-linejoin="round"/>
<path id="Vector_56" d="M168.06 94.7002C168.06 94.7002 173.49 94.4002 175.15 94.7002" stroke="#0D1117" stroke-linecap="round" stroke-linejoin="round"/>
<path id="Vector_57" d="M172.58 98.25C172.58 98.25 165.95 98.78 164.74 98.25" stroke="#0D1117" stroke-linecap="round" stroke-linejoin="round"/>
<path id="Vector_58" d="M217.81 98.3701C217.81 98.3701 211.18 99.1701 209.37 98.3701" stroke="#0D1117" stroke-linecap="round" stroke-linejoin="round"/>
<path id="Vector_59" d="M207.1 94.5703C207.1 94.5703 213.43 94.2503 214.79 94.7003" stroke="#0D1117" stroke-linecap="round" stroke-linejoin="round"/>
<path id="Vector_60" d="M161.13 102.04C155.44 102.06 152.51 102.12 151.01 102.06C148 101.95 146.49 102.25 146.49 104.52C146.49 106.79 144.68 119.05 147.7 119.09C150.71 119.14 187.05 118.84 187.05 118.84C187.05 118.84 198.96 118.54 203.03 118.84C207.1 119.14 209.36 119.74 209.21 116.58C209.06 113.42 210.02 101.81 208.21 101.66" stroke="#0D1117" stroke-linecap="round" stroke-linejoin="round"/>
<path id="Vector_61" d="M203.47 106.63C203.47 106.63 198.04 106.93 196.54 106.63" stroke="#0D1117" stroke-linecap="round" stroke-linejoin="round"/>
<path id="Vector_62" d="M190.8 102.14V118.1" stroke="#0D1117" stroke-linecap="round" stroke-linejoin="round"/>
<path id="Vector_63" d="M165.48 102.14V119.01" stroke="#0D1117" stroke-linecap="round" stroke-linejoin="round"/>
<path id="Vector_64" d="M170.6 102.14V110.57" stroke="#0D1117" stroke-linecap="round" stroke-linejoin="round"/>
<path id="Vector_65" d="M185.68 118.85V111.76" stroke="#0D1117" stroke-linecap="round" stroke-linejoin="round"/>
<path id="Vector_66" d="M159.15 106.36C159.15 106.36 154.33 106.24 152.52 106.36" stroke="#0D1117" stroke-linecap="round" stroke-linejoin="round"/>
<path id="Vector_67" d="M154.62 111.76C154.62 111.76 160.05 111.46 161.71 111.76" stroke="#0D1117" stroke-linecap="round" stroke-linejoin="round"/>
<path id="Vector_68" d="M159.15 115.31C159.15 115.31 152.52 115.84 151.31 115.31" stroke="#0D1117" stroke-linecap="round" stroke-linejoin="round"/>
<path id="Vector_69" d="M204.37 115.42C204.37 115.42 197.74 116.22 195.93 115.42" stroke="#0D1117" stroke-linecap="round" stroke-linejoin="round"/>
<path id="Vector_70" d="M193.67 111.62C193.67 111.62 200 111.3 201.36 111.75" stroke="#0D1117" stroke-linecap="round" stroke-linejoin="round"/>
<path id="Vector_71" d="M153.04 119.21C152.29 119.55 151.91 120.2 151.91 121.33C151.91 123.59 150.1 135.86 153.12 135.9C156.14 135.94 192.47 135.65 192.47 135.65C192.47 135.65 204.38 135.35 208.45 135.65C212.52 135.95 214.78 136.55 214.63 133.39C214.48 130.23 215.53 119.07 213.73 118.92C213.14 118.87 211.95 118.87 208.94 118.89" stroke="#0D1117" stroke-linecap="round" stroke-linejoin="round"/>
<path id="Vector_72" d="M208.89 123.44C208.89 123.44 203.46 123.74 201.96 123.44" stroke="#0D1117" stroke-linecap="round" stroke-linejoin="round"/>
<path id="Vector_73" d="M196.23 118.95V134.91" stroke="#0D1117" stroke-linecap="round" stroke-linejoin="round"/>
<path id="Vector_74" d="M170.9 118.95V135.81" stroke="#0D1117" stroke-linecap="round" stroke-linejoin="round"/>
<path id="Vector_75" d="M176.03 118.95V127.38" stroke="#0D1117" stroke-linecap="round" stroke-linejoin="round"/>
<path id="Vector_76" d="M191.11 135.66V128.56" stroke="#0D1117" stroke-linecap="round" stroke-linejoin="round"/>
<path id="Vector_77" d="M164.57 123.16C164.57 123.16 159.75 123.04 157.94 123.16" stroke="#0D1117" stroke-linecap="round" stroke-linejoin="round"/>
<path id="Vector_78" d="M160.05 128.56C160.05 128.56 165.48 128.26 167.14 128.56" stroke="#0D1117" stroke-linecap="round" stroke-linejoin="round"/>
<path id="Vector_79" d="M164.57 132.11C164.57 132.11 157.94 132.64 156.73 132.11" stroke="#0D1117" stroke-linecap="round" stroke-linejoin="round"/>
<path id="Vector_80" d="M209.8 132.23C209.8 132.23 203.17 133.03 201.36 132.23" stroke="#0D1117" stroke-linecap="round" stroke-linejoin="round"/>
<path id="Vector_81" d="M199.09 128.43C199.09 128.43 205.42 128.11 206.78 128.56" stroke="#0D1117" stroke-linecap="round" stroke-linejoin="round"/>
</g>
</g>
</g>
</g>
</svg>
