<svg width="48" height="48" viewBox="0 0 48 48" fill="none" xmlns="http://www.w3.org/2000/svg">
<g id="Frame 267" clip-path="url(#clip0_5230_18164)">
<path id="Subtract" d="M22.0541 1.65806C23.1754 0.702521 24.8246 0.702521 25.9459 1.65806L30.6084 5.63143C31.0889 6.04091 31.6863 6.28837 32.3156 6.33858L38.4221 6.82589C39.8906 6.94308 41.0567 8.10921 41.1739 9.57774L41.6612 15.6842C41.7115 16.3135 41.9589 16.911 42.3684 17.3914L46.3418 22.054C47.2973 23.1752 47.2973 24.8244 46.3418 25.9457L42.3684 30.6082C41.9589 31.0887 41.7115 31.6861 41.6612 32.3154L41.1739 38.4219C41.0567 39.8904 39.8906 41.0566 38.4221 41.1738L32.3156 41.6611C31.6863 41.7113 31.0889 41.9587 30.6084 42.3682L25.9459 46.3416C24.8246 47.2971 23.1754 47.2971 22.0541 46.3416L17.3916 42.3682C16.9111 41.9587 16.3137 41.7113 15.6844 41.6611L9.57792 41.1738C8.10939 41.0566 6.94326 39.8904 6.82607 38.4219L6.33877 32.3154C6.28855 31.6861 6.04109 31.0887 5.63162 30.6082L1.65825 25.9457C0.702705 24.8244 0.702704 23.1752 1.65824 22.054L5.63162 17.3914C6.04109 16.911 6.28855 16.3135 6.33877 15.6842L6.82607 9.57774C6.94326 8.10921 8.10939 6.94308 9.57792 6.82589L15.6844 6.33858C16.3137 6.28837 16.9111 6.04091 17.3916 5.63143L22.0541 1.65806Z" fill="#5EE29D"/>
<path id="Vector 1 (Stroke)" fill-rule="evenodd" clip-rule="evenodd" d="M33.9965 16.8789C34.6157 17.4293 34.6715 18.3774 34.1211 18.9966L22.1211 32.4966C21.8467 32.8053 21.457 32.9872 21.0441 32.9994C20.6311 33.0115 20.2315 32.8528 19.9393 32.5607L13.9393 26.5607C13.3536 25.9749 13.3536 25.0251 13.9393 24.4394C14.5251 23.8536 15.4749 23.8536 16.0607 24.4394L20.9358 29.3145L31.8789 17.0035C32.4293 16.3843 33.3774 16.3285 33.9965 16.8789Z" fill="#0D1117"/>
</g>
<defs>
<clipPath id="clip0_5230_18164">
<rect width="48" height="48" fill="white"/>
</clipPath>
</defs>
</svg>
