<svg width="156" height="144" fill="none" xmlns="http://www.w3.org/2000/svg"><path d="m144.572 41.705-100.414.994-33.268 66.528 3.392 10.657s4.398 6.465 13.946 7.021c9.549.555 79.98 2.122 79.98 2.122l36.373-87.313-.009-.01z" fill="#FDAE1E" stroke="#0D1117" stroke-linecap="round" stroke-linejoin="round"/><g stroke="#0D1117" stroke-linecap="round" stroke-linejoin="round"><path d="m25.635 120.063 77.197 1.245 35.844-75.851s-8.894-4.191-8.768-20.857l-35.575 78.976-68.447-.627s-7.539.323-8.49 7.514c-.323 2.471.27 4.379 1.194 5.812.861 1.343 2.109 2.364 3.536 3.009a8.89 8.89 0 0 0 3.518.779h-.01z" fill="#fff"/><path d="m102.832 121.308-7.242-14.947M18.59 116.275l82.151.725 34.901-73.997"/><path d="m17.396 110.463 80.778 1.236 34.238-73.63"/></g><path d="m93.05 101.884 39.756-88.953-82.232-.483-41.623 94.755s.62-2.373 3.913-4.128c2.81-1.496 7.332-1.621 7.332-1.621l72.854.43z" fill="#FDAE1E" stroke="#0D1117" stroke-linecap="round" stroke-linejoin="round"/><path d="m132.806 12.931 2.352 5.588-39.568 87.842-72.486-1.46s-14.018-1.039-8.992 10.917c3.984 9.474 15.435 9.089 15.435 9.089l76.938 1.657 38.096-84.869 2.082 4.953-37.998 84.653-77.574-2.436s-15.687.538-21.144-12.447c-6.883-16.379 12.313-14.956 12.313-14.956l70.799.421 39.747-88.952z" fill="#FDAE1E" stroke="#0D1117" stroke-linecap="round" stroke-linejoin="round"/><g fill="#0D1117"><path d="M58.828 44.056c-.906-2.883-4.308-4.558-7.036-3.008-1.256.716-2.198 1.997-2.387 3.438-.188 1.442.43 2.875 1.49 3.824.79.708 2.89 1.827 3.697.573.341-.528.225-1.262-.188-1.719-.485-.537-1.239-.752-1.93-.85-2.818-.413-5.824 1.459-6.012 4.432-.1 1.487.529 3.054 1.723 3.967 1.561 1.191 3.67.967 5.402.34.539-.197.305-1.065-.242-.86-1.283.467-2.782.762-4.066.153-.888-.412-1.498-1.245-1.768-2.167-.637-2.176.7-4.218 2.827-4.836.943-.278 2.307-.358 3.168.233.207.143.494.43.368.725-.125.314-.538.233-.807.17a3.215 3.215 0 0 1-1.49-.743c-1.822-1.558-1.66-4.263.27-5.66 2.225-1.611 5.312-.304 6.102 2.221.17.547 1.04.314.861-.241l.018.008z"/><path d="M56.522 47.307a37.685 37.685 0 0 1-.808 6.806c-.117.565.736.806.862.242a11.05 11.05 0 0 1 1.364-3.313 9.092 9.092 0 0 1 1.059-1.415c.332-.358.87-.86 1.409-.627.457.197.61.761.601 1.209-.009.68-.287 1.334-.449 1.988-.215.887-.583 2.131-.045 2.973.297.466.862.627 1.364.439.629-.242.862-.869 1.32-1.299.422-.403-.216-1.03-.637-.635-.207.197-.36.42-.53.653-.126.17-.377.538-.637.475-.35-.09-.251-.824-.225-1.075.09-.653.243-1.29.422-1.925.18-.636.36-1.263.297-1.916-.108-1.012-.898-1.97-2.002-1.81-1.104.162-1.956 1.353-2.548 2.24a11.633 11.633 0 0 0-1.643 3.814l.862.242c.484-2.32.772-4.674.834-7.048.018-.573-.88-.573-.897 0l.027-.018z"/><path d="M69.256 48.74c-1.373-.582-3.006-.367-4.03.77-.897.994-1.327 2.732-.466 3.878.907 1.218 2.684.69 3.698-.09 1.112-.86 1.794-2.149 2.405-3.385l-.835-.223c.108 3.376.117 7.907-3.455 9.626-3.114 1.496-6.138-1.647-9.136-2.06-1.866-.25-3.751.422-5.07 1.756-.404.412.224 1.048.637.636a5.2 5.2 0 0 1 5.017-1.37c1.642.42 3.078 1.37 4.675 1.925 1.508.52 3.123.564 4.55-.224 1.427-.788 2.396-2.087 2.97-3.52.862-2.14.79-4.513.719-6.77-.01-.411-.629-.644-.835-.223-.422.868-.87 1.755-1.517 2.498-.601.69-1.633 1.496-2.62 1.218-1.167-.322-.772-2.087-.278-2.794.69-.994 2.028-1.334 3.132-.869.53.224.987-.546.448-.77l-.009-.009zM72.864 55.904c1.526-1.29 2.576-3.018 3.312-4.862.43-1.093.745-2.23 1.014-3.377.125-.537.242-1.083.35-1.63.08-.411.197-.86.08-1.28-.26-.922-1.3-.824-1.929-.35-.673.52-1.041 1.317-1.256 2.114-.584 2.158-.602 4.523-.27 6.726.153 1.03.314 2.328 1.122 3.08.628.591 1.624.672 2.28.08.421-.393-.207-1.02-.637-.635-.342.313-.853.107-1.122-.197-.314-.358-.431-.86-.539-1.307a16.62 16.62 0 0 1-.413-3.26 16.922 16.922 0 0 1 .27-3.493c.152-.815.359-1.764 1.014-2.328.125-.108.44-.394.61-.197.108.134-.036.564-.054.698a52.635 52.635 0 0 1-.35 1.63c-.242 1.048-.52 2.087-.888 3.09-.682 1.854-1.706 3.573-3.222 4.854-.44.376.197 1.003.637.635l-.009.01zM79.667 55.134c1.14-.877 2.037-1.997 2.602-3.322.314-.743 1.364-3.582-.206-3.564-.682.009-1.167.627-1.508 1.146a5.326 5.326 0 0 0-.727 1.773c-.278 1.334-.117 2.731.413 3.985.287.68.7 1.433 1.49 1.603.852.188 1.606-.43 2.163-.985.412-.412-.225-1.039-.638-.636-.323.323-.834.869-1.346.743-.466-.107-.709-.734-.87-1.128a6.049 6.049 0 0 1-.422-2.875c.09-.877.458-2.006 1.176-2.588a.748.748 0 0 1 .215-.125c.045-.018.063 0 .027-.036-.072-.071-.036.126-.036.17a6.093 6.093 0 0 1-.117.797 6.929 6.929 0 0 1-.475 1.478 7.25 7.25 0 0 1-2.19 2.794c-.198.152-.287.385-.162.609.108.188.422.305.61.161zM90.48 50.146a3 3 0 0 0-2.566-.116c-.826.349-1.705 1.164-1.597 2.149.107.985 1.014 1.307 1.642 1.871.673.619.978 1.684.35 2.445-.853 1.021-2.127.17-2.872-.52-.422-.393-1.059.243-.637.637.754.698 1.705 1.379 2.791 1.244.951-.116 1.723-.895 1.912-1.826.206-.985-.234-2.033-.988-2.678-.583-.492-1.768-.994-1.076-1.898.592-.77 1.758-.977 2.593-.529.512.269.97-.501.449-.77v-.009zM94.34 45.194a111.718 111.718 0 0 1-3.922 12.286c-.18.475.583.788.817.35.762-1.389 1.534-2.803 2.602-3.994.548-.61 1.167-1.147 1.876-1.559.152-.09.323-.206.493-.25.377-.09.503.026.62.376.134.394.17.815.152 1.236-.045.886-.35 1.737-.601 2.579-.206.698-.503 1.531-.377 2.274.323 1.89 2.647.61 3.527-.071.458-.35-.18-.986-.637-.636a4.321 4.321 0 0 1-1.31.707c-.324.108-.61.197-.71-.206-.035-.152.018-.367.036-.51.144-.896.485-1.755.71-2.633.206-.797.34-1.62.206-2.445-.108-.636-.368-1.424-1.077-1.594-.71-.17-1.382.305-1.92.663a9.196 9.196 0 0 0-1.733 1.55c-1.059 1.217-1.857 2.632-2.63 4.047l.817.35a110.532 110.532 0 0 0 3.922-12.287c.144-.556-.718-.797-.861-.242v.009zM82.915 43.654c-.664-.045-1.184.582-1.31 1.182-.126.6.036 1.28.556 1.665.431.323 1.104.386 1.562.063.556-.385.718-1.137.556-1.764a1.533 1.533 0 0 0-.61-.896 1.4 1.4 0 0 0-1.068-.224c-.233.036-.386.34-.314.556.08.25.305.358.556.313-.134.027.028 0 .063 0h.063s-.107-.018-.018 0c.027 0 .117.018.135.036l-.054-.018s.027.009.045.018a.787.787 0 0 1 .09.054c.018.009.035.027.053.035-.071-.026-.044-.035-.017-.008.026.026.098.071.107.107-.018-.054-.036-.054-.009-.018l.045.072a.265.265 0 0 1 .036.071c.054.09-.027-.09 0 .01.018.053.036.107.045.152 0 .017 0 .044.009.062.018.09 0-.018 0-.018.018.027 0 .135 0 .162 0 .053 0 .116-.01.16.037-.107 0-.017 0 .01a.165.165 0 0 1-.017.062c-.009.018-.01.045-.018.063 0 .027-.027.126 0 .018a.372.372 0 0 1-.063.116s-.054.099-.018.036c.036-.053-.036.036-.054.054-.018.018-.035.027-.044.036.044-.063.062-.045.026-.027-.035.018-.08.036-.116.063.063-.054.072-.027.036-.018-.027 0-.054.018-.072.018-.018 0-.036 0-.054.009.072 0 .09-.01.054 0h-.171c-.053 0-.018-.027.036 0-.009 0-.036 0-.054-.01-.044-.008-.09-.026-.125-.035-.072-.018.027 0 .036.018-.018-.018-.063-.027-.081-.045-.027-.018-.072-.054-.099-.063.072.018.054.054.018.01-.018-.019-.036-.028-.045-.046l-.036-.035c.01 0 .054.08.018.018-.009-.018-.098-.135-.09-.153 0 0 .036.108.01.027 0-.027-.018-.045-.027-.072-.01-.044-.018-.09-.027-.134-.018-.098 0 .08 0 .018V45.14c0-.098-.018.08 0 .01 0-.028.009-.063.018-.09.009-.054.026-.108.044-.162 0-.009.01-.044.018-.053-.026.062-.026.071 0 .026 0-.017.018-.026.018-.044.018-.036.054-.126.09-.143 0 0-.072.08-.009.017l.063-.062s.072-.08.027-.027c-.045.045.036-.027.054-.036.018 0 .045-.018.054-.027-.054.027-.072.027-.036.018.018 0 .027-.009.045-.009h.027c-.045 0-.045 0 0 0h.062c.234.018.458-.215.449-.448-.009-.26-.197-.43-.449-.447l-.009-.01z"/></g><g fill="#0D1117"><path d="M30.076 92.302a93.182 93.182 0 0 0 3.553-9.475c.171-.555-.69-.788-.861-.242a89.743 89.743 0 0 1-3.464 9.26c-.233.52.547.976.772.448v.009z"/><path d="m28.685 84.43 4.621 7.567c.297.493 1.077.045.772-.448l-4.622-7.567c-.296-.492-1.076-.044-.771.448z"/><path d="M27.249 91.344a71.024 71.024 0 0 1 8.74-5.705c.503-.277.055-1.057-.448-.77a70.342 70.342 0 0 0-8.741 5.704c-.449.35 0 1.12.449.77z"/><path d="M27.024 87.475c2.55.654 5.116 1.236 7.691 1.746.566.117.808-.752.243-.86a142.335 142.335 0 0 1-7.691-1.746c-.557-.143-.8.717-.243.86z"/></g><g fill="#0D1117"><path d="M83.688 93.546a93.192 93.192 0 0 0 3.554-9.474c.17-.556-.69-.788-.861-.242a89.72 89.72 0 0 1-3.464 9.26c-.234.519.547.976.771.447v.01z"/><path d="M82.288 85.675c1.544 2.525 3.079 5.041 4.622 7.567.296.492 1.077.045.772-.448-1.544-2.525-3.078-5.042-4.622-7.567-.296-.493-1.077-.045-.772.448z"/><path d="M80.862 92.579a71.023 71.023 0 0 1 8.74-5.704c.503-.278.054-1.057-.448-.77a70.354 70.354 0 0 0-8.741 5.704c-.449.349 0 1.12.449.77z"/><path d="M80.637 88.72a142.41 142.41 0 0 0 7.691 1.746c.566.116.808-.752.242-.86a142.43 142.43 0 0 1-7.69-1.746c-.557-.144-.8.716-.243.86z"/></g><g fill="#0D1117"><path d="M83.578 30.567a93.216 93.216 0 0 0 3.554-9.474c.17-.556-.691-.788-.862-.242a89.743 89.743 0 0 1-3.464 9.26c-.233.519.548.976.772.447v.01z"/><path d="M82.187 22.696c1.544 2.525 3.078 5.041 4.622 7.567.296.492 1.077.045.772-.448-1.544-2.525-3.078-5.042-4.622-7.567-.296-.493-1.077-.045-.772.448z"/><path d="M80.751 29.6a71.016 71.016 0 0 1 8.741-5.705c.503-.277.054-1.056-.448-.77a70.343 70.343 0 0 0-8.741 5.705c-.45.349 0 1.12.448.77z"/><path d="M80.527 25.74c2.549.654 5.115 1.236 7.69 1.747.566.116.809-.752.243-.86a142.427 142.427 0 0 1-7.69-1.746c-.557-.143-.8.716-.243.86z"/></g><path d="M59.054 87.215a2.213 2.213 0 0 1-1.185 2.901 2.221 2.221 0 0 1-2.907-1.182 2.213 2.213 0 0 1 1.184-2.901 2.221 2.221 0 0 1 2.908 1.182zM112.188 28.866a2.212 2.212 0 0 1-1.184 2.901 2.222 2.222 0 0 1-2.908-1.182 2.22 2.22 0 0 1 4.092-1.72zM60.73 23.95a2.213 2.213 0 0 1-1.185 2.9 2.221 2.221 0 0 1-2.908-1.181 2.213 2.213 0 0 1 1.185-2.902 2.221 2.221 0 0 1 2.907 1.182z" fill="#fff" stroke="#0D1117" stroke-linecap="round" stroke-linejoin="round"/></svg>