<svg width="156" height="142" fill="none" xmlns="http://www.w3.org/2000/svg"><path d="M153.765 68.624c-.428-.351-4.286-3.265-12.58-3.265-2.147 0-4.361.21-6.508.568-1.576-10.85-10.65-16.102-11.011-16.386l-2.214-1.278-1.426 2.055a30.274 30.274 0 0 0-3.933 9.078c-1.501 6.172-.571 11.985 2.574 16.954-3.79 2.13-9.937 2.623-11.221 2.698H5.922c-2.642 0-4.789 2.129-4.789 4.752a71.157 71.157 0 0 0 4.436 25.882c3.506 9.079 8.722 15.818 15.44 19.928 7.58 4.61 19.943 7.233 33.889 7.233 6.29 0 12.58-.568 18.802-1.704a78.015 78.015 0 0 0 24.589-8.862 67.25 67.25 0 0 0 16.731-13.613c8.076-9.004 12.865-19.076 16.37-28.013h1.433c8.797 0 14.224-3.474 17.226-6.455 2.004-1.846 3.506-4.117 4.579-6.665l.645-1.846-1.501-1.06h-.007z" fill="#CDF567"/><path d="M48.338 51.924s2.229-.03 5.329 0c3.1.03 8.038-.164 11.791-.164s7.641.164 9.96.164c2.32 0 3.799-.194 3.889.673.09.866.172 10.37.172 15.833 0 5.462-.262 10.625-.262 10.625l-30.744-.404.533-11.67.217-14.4s.195-.65-.878-.65l-.007-.007z" fill="#5EE29D"/><path d="m83.863 78.883.563-4.984.12-2.496-.36-2.854 2.124-.874 11.701.269 9.991-.27.953 1.353-.143 3.721-.893 5.686-.48.613-23.576-.164z" fill="#C9B7EC"/><path d="M53.967 38.094s-1.411-.3-1.524.612c-.112.912.135 3.804.135 3.804l.12 5.574 6.403.239H73.49s2.47.067 2.747-.523c.278-.59-.128-4.11-.128-4.11l.225-5.604-2.484-.216-19.883.216v.008z" fill="#fff"/><path d="m25.325 64.514 7.393-.044L44.555 43.1s14.449-25.083 17.143-29.178c2.695-4.094 4.203-5.918 3.963-6.515-.24-.598-.9-1.158-.9-1.158s-.578-.837-1.337-.59c-.758.246-2.034 2.062-2.034 2.062l-7.566 11.738-22.9 36.403-5.607 8.652h.008zM12.752 64.56l4.564-.09-4.759-6.463-2.041-3.303s-.803-1.031-1.742-.276c-.938.754 0 1.793 0 1.793l1.787 3.138 2.199 5.2h-.008z" fill="#0D1117"/><path d="M6.635 79.055s-.563-3.684 1.719-4.244c2.282-.56 13.023-1.046 13.023-1.046s8.721-.396 12.444.134c3.723.53 5.742.732 6.373 2.107.63 1.375 1.013 3.049 1.013 3.049H6.635z" fill="#fff"/><path d="m10.035 74.55-.277-4.992s-.706-4.58 0-4.797c.705-.216 2.326-.202 2.326-.202l22.15-.082s1.246-.194 1.584.247c.338.44.413 1.756.413 1.756l-.188 7.643-2.89-.306-7.273.082-15.837.65h-.008z" fill="#0D1117"/><path d="m49.02 65.725.196 2.055 25.587-.105 4.676.21v-2.332l-2.754.172-6.906-.09-8.346-.082-7.731.172H49.02z" fill="#fff"/><path d="M64.122 9.947v12.344l-1.816.06s-.645 3.534 0 4.206c.646.673 1.621 1.203 3.183 1.278 1.56.075 1.733-2.78 1.733-2.78l.218-2.555-1.741-.224-.023-13.763-1.554 1.427v.007z" fill="#C9B7EC"/><path d="M62.178 30.129s.188.239.586.896c.398.658 1.388 1.293 1.959.718.57-.576.938-.867.72-1.57-.217-.702-1.073-2.338-1.073-2.338l2.072-.194s2.41 2.189 1.433 4.587c-.975 2.399-3.16 2.175-3.16 2.175s-2.041.127-3.017-1.36.473-2.914.473-2.914h.007z" fill="#C9B7EC"/><path d="M107.521 104.541s.218-2.092-2.462-2.017c-2.679.075-3.257 2.667-2.462 4.109.796 1.443 3.333 1.226 4.129.434.795-.792.795-2.518.795-2.518v-.008zM90.723 105.102s-.195-2.264-2.53-2.586c-2.761-.373-2.964 1.562-2.746 2.586.217 1.023 1.373 2.555 3.04 2.585 1.666.03 2.469-1.479 2.244-2.585h-.008zM73.715 104.758s.075-2.07-2.462-2.294c-2.537-.224-2.605 1.764-2.605 2.645 0 .882.578 1.891 2.537 2.033 1.96.142 2.68-1.614 2.53-2.376v-.008z" fill="#0D1117"/><path d="M15.35 102.576s-3.731 0-4.196.307c-.466.306-.57 2.48 0 2.533.57.052 13.63-.322 16.903-.344 3.272-.022 13.375-.082 15.604 0 2.23.082 2.59.374 2.177-.523-.413-.897-.465-2.391-1.606-2.339-1.141.053-27.321.337-28.875.359l-.008.007z" fill="#fff"/><g fill="#fff"><path d="M18.202 68.848s.518-1.57-1.87-1.465c-2.867.127-2.867.262-3.114 1.465-.248 1.203-.75 2.137 1.493 2.212 2.245.074 3.243.336 3.49-2.212zM33.108 68.81s.518-1.531-1.869-1.427c-2.867.12-2.867.255-3.115 1.428-.247 1.173-.442 2.189 1.802 2.264 2.244.067 2.935.224 3.182-2.264zM23.035 67.48s-2.431-.485-2.499.703c-.068 1.188-.84 2.87.908 2.9 1.75.029 3.288.044 3.85 0 .564-.046.489-1.256.564-2.183.075-.926.105-1.517-2.823-1.42z"/></g><g><g stroke="#0D1117" stroke-linecap="round" stroke-linejoin="round"><path d="M153.765 68.624c-.428-.352-4.286-3.266-12.58-3.266-2.147 0-4.361.21-6.508.568-1.576-10.849-10.65-16.102-11.011-16.386l-2.214-1.277-1.426 2.055a30.274 30.274 0 0 0-3.933 9.078c-1.501 6.172-.571 11.985 2.574 16.954-3.79 2.13-9.937 2.622-11.221 2.697H5.922c-2.642 0-4.789 2.13-4.789 4.752a71.16 71.16 0 0 0 4.436 25.883c3.506 9.078 8.722 15.818 15.44 19.927 7.58 4.611 19.943 7.233 33.889 7.233 6.29 0 12.58-.568 18.802-1.703a78.04 78.04 0 0 0 24.589-8.862 67.253 67.253 0 0 0 16.731-13.614c8.076-9.004 12.865-19.076 16.37-28.012h1.433c8.797 0 14.224-3.474 17.226-6.456 2.004-1.845 3.506-4.117 4.579-6.665l.645-1.845-1.501-1.061h-.007z"/><path d="M107.521 104.541s.218-2.092-2.462-2.017c-2.679.075-3.257 2.667-2.462 4.109.796 1.443 3.333 1.226 4.129.434.795-.792.795-2.518.795-2.518v-.008zM90.723 105.102s-.195-2.264-2.53-2.586c-2.761-.373-2.964 1.562-2.746 2.586.217 1.023 1.373 2.555 3.04 2.585 1.666.03 2.469-1.479 2.244-2.585h-.008zM73.715 104.758s.075-2.07-2.462-2.294c-2.537-.224-2.605 1.763-2.605 2.645 0 .882.578 1.89 2.537 2.032 1.96.142 2.68-1.614 2.53-2.376v-.007zM68.648 104.698c-7.618-.179-6.852-.314-10.635-.523-3.783-.209-5.6-.104-6.065-.306-.465-.202-.105-1.031-2.492-.979-2.387.052-4.09 0-4.09 0"/><path d="M85.379 105.288c-3.1-.097-9.21-.186-11.65-.261M102.139 105.677c-2.702-.09-8.609-.18-11.378-.269M120.176 106.192s-5.697-.157-12.82-.396M3.82 103.883s1.216-.037 3.55 0c2.335.038 3.393 0 3.393 0"/><path d="M15.35 102.576s-3.73 0-4.196.306c-.466.307-.57 2.481 0 2.533.57.053 13.63-.321 16.903-.343 3.272-.023 13.375-.083 15.604 0 2.23.082 2.59.373 2.177-.523-.413-.897-.465-2.391-1.606-2.339-1.14.052-27.321.336-28.875.358l-.007.008zM15.747 102.568l.556 2.757M17.526 102.568l.503 2.713M21.174 102.568l.706 2.623M23.32 102.568l.586 2.578M26.638 102.441l.788 2.638M28.672 102.441l.766 2.593M32.05 102.382l.713 2.667M37.604 102.314l1.059 2.72M39.48 102.285l1.052 2.682"/><g><path d="M10.035 74.631s-.127-3.616-.367-6.127c-.24-2.51-.894-4.042 1.14-3.968 2.034.075 11.132-.09 15.605 0 4.474.09 6.665-.134 8.287-.022 1.62.112 1.628.351 1.463 2.615-.165 2.264-.097 7.009-.097 7.009"/><path d="M25.325 64.514S61.615 7.391 62.088 6.63c.346-.553.856-1.165 1.344-.979.855.33 2.852.98 2.064 2.518-.833 1.63-5.232 5.956-32.77 56.294M17.316 64.47s-3.783-4.745-4.759-6.464c-.975-1.718-1.891-3.041-1.891-3.041s-.63-1.48-1.892-.545c-1.26.934-.21 1.247.593 2.645.803 1.397 3.746 7.487 3.746 7.487M10.035 54.12 62.088 6.63M18.202 68.848s.518-1.57-1.87-1.465c-2.867.127-2.867.262-3.114 1.465-.248 1.203-.75 2.137 1.493 2.212 2.245.074 3.243.336 3.49-2.212zM33.108 68.81s.518-1.531-1.869-1.427c-2.867.12-2.867.255-3.115 1.428-.247 1.173-.442 2.189 1.802 2.264 2.244.067 2.935.224 3.182-2.264zM23.035 67.48s-2.431-.485-2.5.703c-.067 1.188-.84 2.87.91 2.9 1.748.029 3.287.044 3.85 0 .563-.046.487-1.256.563-2.183.075-.926.105-1.517-2.823-1.42z"/><g><path d="M64.535 22.335s-1.208.06-1.734 0c-.525-.06-.675-.202-.645 1.263.03 1.464-.383 3.048.796 3.63 1.178.584 3.152.942 3.617.18.466-.762.676-2.406.826-3.69.15-1.286-.06-1.36-.736-1.413-.675-.052-2.116.037-2.116.037l-.008-.007zM65.443 8.52v13.77M64.122 10.41v11.88M63.74 31.884c.285-.127.472-.149.66-.142 1.209.03 7.626 6.135 7.626 6.135M56.316 38.093s3.198-2.832 5.577-4.774"/><path d="M52.699 48.083s0-3.407-.068-4.871c-.068-1.465-.526-4.558-.21-4.842.315-.284 4.683-.247 4.683-.247s11.364-.104 13.714-.172c2.349-.067 3.775-.142 4.51 0 .736.142.841.142.841.904 0 .763-.142 7.21 0 8.025.143.815.21 1.233-1.29 1.375-1.502.142-22.871 0-22.871 0"/></g></g><g><path d="M60.332 40.044s-1.291-.314-1.23.844c.06 1.158.187 2.316-.947 2.369 0 0 1.164.261 1.089 1.576-.075 1.315 1.088 1.367 1.088 1.367M68.356 40.006s1.283-.224 1.276.83c-.008 1.053.06 2.07.75 2.271 0 0-.668.254-.78 1.577-.113 1.322-.376 1.576-1.254 1.524M61.706 43.69a.591.591 0 1 0 0-1.18.592.592 0 0 0-.593.59c0 .326.265.59.593.59zM64.37 43.69a.591.591 0 1 0 0-1.18.592.592 0 0 0-.593.59c0 .326.266.59.593.59zM67.035 43.69a.592.592 0 0 0 .593-.59.592.592 0 0 0-.593-.59.592.592 0 0 0-.593.59c0 .326.265.59.593.59z"/></g><path d="M63.912 27.648s2.2 2.167 1.374 3.52c-.826 1.352-2.35.739-2.5 0-.15-.74-.315-.987-.615-1.032-.3-.045-.803.673-.78 1.83.022 1.159.953 2.422 3.317 2.444 2.364.022 3.257-1.666 3.407-3.377.15-1.711-1.5-2.997-1.898-3.333M41.207 78.883s-.48-3.131-2.056-3.886c-1.577-.754-4.354-1.45-13.451-1.173-9.097.277-11.356.546-14.846.747-3.49.202-4.451.135-4.174 4.29"/><g><path d="M83.863 78.352s.293-2.899.653-4.984c.36-2.084-.51-3.788-.323-4.819.188-1.031 3.738-.74 5.33-.62 1.59.12 9.209-.015 12.842 0 3.633.015 6.53-.837 6.597 1.098.068 1.936-.382 8.369-1.178 9.721"/><path d="M90.1 70.492s5.164-.516 10.306-.411c5.141.105 8.556.732 8.556.732"/></g><g><path d="M48.473 78.651s.39-5.559.39-7.651c0-2.092.39-11.32.353-13.158-.038-1.838 0-5.91 0-5.91"/><path d="M48.338 51.924s2.229-.03 5.329 0c3.1.03 8.038-.164 11.791-.164s7.641.164 9.96.164c2.32 0 3.799-.194 3.889.673.09.866.172 10.37.172 15.833 0 5.462-.262 10.625-.262 10.625"/><path d="M48.998 65.896s7.288-.306 13.008-.336c5.72-.03 9.652.142 12.227.165 2.574.022 5.239 0 5.239 0M79.48 67.877s-8.782-.194-11.747-.194-9.263.164-11.094.194c-1.831.03-7.633 0-7.633 0M51.918 75.52l1.05.972M55.678 71.306s1.967 2.324 2.755 3.392c.788 1.069 1.659 1.794 1.659 1.794M61.473 71.052c.127.082 2.53 3.153 3.453 4.207.923 1.053 1.313 1.48 1.313 1.48M71.523 76.492s-2.62-4.409-3.408-5.193M74.165 70.604s1.133 1.143 1.269 1.591M72.446 63.722s-2.664-3.063-4.976-5.424-4.759-4.252-4.759-4.252M75.681 59.112s-1.733-1.89-2.499-2.854c-.766-.964-1.163-1.554-1.163-1.554M63.664 63.14s-1.268-2.168-3.19-4.402c-1.921-2.234-4.413-4.498-4.413-4.498M56.159 62.893s-2.447-3.542-3.716-4.82"/></g></g></g></svg>