<svg width="156" height="142" fill="none" xmlns="http://www.w3.org/2000/svg"><path d="m55.06 52.35-4.02 9.71-7.66 17.51-1.71 4.84 2.85 3.5 2.85 2.89 34.41 26.85s3.48 2.16 5.51-.29 1.42-4.66 1.42-4.66 4.83.99 5.93-1.38c1.1-2.37.77-4.54.77-4.54s3.88 1.44 5.52-.79c1.64-2.23 0-5.61 0-5.61s3.07.95 5.25-.9c2.19-1.85.98-6.18.98-6.18s-1.92-7.17-8.4-12.77-11.68-9.87-11.68-9.87l-5.57-14.57s-3.53-5.4-7.87-6.71c-4.34-1.31-18.59 2.98-18.59 2.98l.01-.01z" fill="#FFDECE"/><path d="M40.41 41.58s-2.74-1.94-4.8 0c-2.06 1.94-7.88 14.73-11.19 23.75-3.31 9.02-6.62 14.5-2.4 16.22 4.23 1.71 11.08 4 13.82 5.25s4.45 2.17 5.82-2.4 9.36-21.7 11.08-26.95c1.71-5.25 4.23-8.11 0-10.05-4.23-1.94-12.33-5.82-12.33-5.82zM122.4 46.38s-.8-2.85-3.88-1.71c-3.08 1.14-10.39 5.48-10.39 5.48s-2.74 1.14-.57 5.25c2.17 4.11 8.91 17.7 11.88 22.5 2.97 4.8 4 7.99 6.05 7.08 2.05-.91 9.82-6.28 11.19-7.54 1.37-1.26 2.28-1.29.69-4.18-1.59-2.89-14.96-26.88-14.96-26.88h-.01z" fill="#0D1117"/><path d="M76.27 76.07c-8.11 1.94-11.31-1.83-6.4-8.22 4.91-6.39 17.24-17.81 21.81-17.7 4.57.11 14.96 3.31 14.96 3.31l15.76 29.23-15.24 10.61s-3.45-8.29-8.4-12.77-11.68-9.87-11.68-9.87-2.72 3.47-10.83 5.41h.02zM60.17 94.11s5.94-5.6 2.06-9.71c-3.88-4.11-9.59 0-12.22 3.2-2.63 3.2-3.08 7.42-.57 9.59 2.51 2.17 8.18.38 10.73-3.08z" fill="#C9B7EC"/><path d="M61.47 92.63c5.76-3.77 11.94 0 11.26 4.68-.69 4.68-5.82 7.31-5.82 7.31s-6.62 5.02-10.39.57c-3.77-4.45.97-8.65.97-8.65" fill="#C9B7EC"/><path d="M71.56 100.38s3.34-1.73 6.2.8c2.85 2.53.88 7.32-3.1 10.29-3.98 2.97-7.29 2.97-9.58.46-2.29-2.51-1.16-5.65-1.16-5.65" fill="#C9B7EC"/><path d="M78.41 107.03s3.56-2.87 6.99-1.04 3.31 7.99-2.63 10.96c-5.94 2.97-10.13 3.11-11.4-3.64" fill="#C9B7EC"/><g stroke-linecap="round" stroke-linejoin="round"><path d="M40.41 41.58s-2.74-1.94-4.8 0c-2.06 1.94-7.88 14.73-11.19 23.75-3.31 9.02-6.62 14.5-2.4 16.22 4.23 1.71 11.08 4 13.82 5.25s4.45 2.17 5.82-2.4 9.36-21.7 11.08-26.95c1.71-5.25 4.23-8.11 0-10.05-4.23-1.94-12.33-5.82-12.33-5.82z" stroke="#0D1117"/><path d="M81.52 56.09s-5.37-6.74-9.59-7.19c-4.22-.45-17.32 3.6-17.32 3.6M41.67 84.41s4.34 5.6 5.71 6.4" stroke="#0D1117"/><path d="M92.94 65.91s-8.56 8.22-16.67 10.16c-8.11 1.94-11.31-1.83-6.4-8.22 4.91-6.39 17.24-17.81 21.81-17.7 4.57.11 14.96 3.31 14.96 3.31" stroke="#0D1117"/><path d="M36.87 75.73s-.34-3.31-4.23-3.31c-3.89 0-4.45 2.97-4.34 4.91.11 1.94 2.16 3.31 4.28 3.2 2.12-.11 4.29-1.26 4.29-4.8z" fill="#fff" stroke="#0D1117"/><path d="m44.52 50.95-10.28 6.51M39.72 50.15l-4.79 2.32M38.12 46.95l-3.19 1.91" stroke="#fff"/><path d="M98.42 73.22s-3.66.82-8.4-4.78M122.4 82.69l-14.27 9.94M122.4 46.38s-.8-2.85-3.88-1.71c-3.08 1.14-10.39 5.48-10.39 5.48s-2.74 1.14-.57 5.25c2.17 4.11 8.91 17.7 11.88 22.5 2.97 4.8 4 7.99 6.05 7.08 2.05-.91 9.82-6.28 11.19-7.54 1.37-1.26 2.28-1.29.69-4.18-1.59-2.89-14.96-26.88-14.96-26.88h-.01zM87.09 70.66s12.36 9.18 16.7 15.58 4.57 11.53 2.4 13.25c-2.17 1.71-5.25.46-5.25.46M84.49 83.49S90.43 88.06 95.68 94c5.25 5.94 8.11 9.36 5.25 11.99-2.86 2.63-6.17.46-6.17.46" stroke="#0D1117"/><path d="M88.1 112.49c1.45.56 4.6 1.37 6.55-1.16 2.77-3.58.12-4.88-5.37-10.95C83.8 94.31 77.29 89.2 77.29 89.2" stroke="#0D1117"/><path d="M113.5 51.31h5.13M120.12 55.17s-5.14-1.48-7.08-.97M113.04 57.91s4.8 0 6.17.69" stroke="#fff"/><path d="M60.17 94.11s5.94-5.6 2.06-9.71c-3.88-4.11-9.59 0-12.22 3.2-2.63 3.2-3.08 7.42-.57 9.59 2.51 2.17 8.18.38 10.73-3.08z" stroke="#0D1117"/><path d="M61.47 92.63c5.76-3.77 11.94 0 11.26 4.68-.69 4.68-5.82 7.31-5.82 7.31s-6.62 5.02-10.39.57c-3.77-4.45.97-8.65.97-8.65" stroke="#0D1117"/><path d="M71.56 100.38s3.34-1.73 6.2.8c2.85 2.53.88 7.32-3.1 10.29-3.98 2.97-7.29 2.97-9.58.46-2.29-2.51-1.16-5.65-1.16-5.65" stroke="#0D1117"/><path d="M78.41 107.03s3.56-2.87 6.99-1.04 3.31 7.99-2.63 10.96c-5.94 2.97-10.13 3.11-11.4-3.64" stroke="#0D1117"/><path d="M81.52 117.55s2.7 2.42 5.57 0c0 0 3.23-2.59.58-6.25" stroke="#0D1117"/><path d="M129.87 70.84s-.13-3.28-3.73-3.34c-3.59-.07-3.82 3.07-3.67 4.58.15 1.51.99 2.88 4.07 3.01 3.07.13 3.56-3.2 3.33-4.24v-.01z" fill="#fff" stroke="#0D1117"/><g stroke="#fff"><path d="M129.2 49.37s4.78-10.34 10.15-15.56M135.84 62.74s12.67 5.49 18.66 5.34M147.48 48.27s-9.77 4.04-12.14 6.93"/></g><g stroke="#fff"><path d="M23.77 50.16S18.99 39.82 13.62 34.6M15.36 67.78s-8.87.14-14.86-.01M5.49 50.95s9.77 4.42 12.14 7.31"/></g><path d="M59.18 13.69s5.69-1.11 6.58-6.09c0 0 3.91 6.93 6.4 7.11 0 0-6.93 3.56-6.49 7.64 0 0-2.22-8.27-6.49-8.67v.01z" fill="#7FF4C1" stroke="#0D1117" stroke-width="1.2"/><path d="M80.72 22.35s-.89 6.04-4.98 7.47c0 0 6.04 3.91 6.04 9.24 0 0 1.07-8.35 5.51-9.6 0 0-6.22-1.78-6.58-7.11h.01zM29.38 108.79s4.26-2.05 5.12-5.97c0 0 2.22 6.14 5.29 5.97 0 0-5.29 3.07-5.2 7.16 0 0-.43-6.65-5.2-7.16h-.01z" fill="#CDF567" stroke="#0D1117" stroke-width="1.2"/><path d="M107.84 126.25s4.26-2.05 5.46-5.12c0 0 2.22 5.12 4.95 5.12 0 0-5.46 3.92-5.2 7.5 0 0-1.28-6.99-5.2-7.5h-.01z" fill="#7FF4C1" stroke="#0D1117" stroke-width="1.2"/></g></svg>