<svg width="247" height="142" fill="none" xmlns="http://www.w3.org/2000/svg"><g clip-path="url(#a)"><path d="M25.303 87.12s.492 3.845 1.423 5.59c0 0-8.123.698-12.304 1.282-4.182.584-8.123.933-8.123.933s-2.554-1.86-4.41-10.701c-1.857-8.836-.583-12.56-.583-12.56l2.725-.447" fill="#C9B7EC"/><path d="M9.08 89.454s7.775-1.047 12.887-1.86c5.107-.812 6.387-.698 6.387-.698s-2.44-4.418-3.599-10.523c-1.16-6.106-1.857-9.362-1.857-9.362s-7.774.349-13.463.812l-5.69.464s.463 6.048 1.742 12.326c1.28 6.278 3.6 8.835 3.6 8.835l-.007.006z" fill="#CDF567"/><path d="M40.647 64.722h-3.188s-.234 9.768.931 16.395c1.16 6.626 2.262 9.184 2.262 9.184s8.42-.933 14.92-1.974c6.502-1.047 7.547-.813 7.547-.813l-1.051-3.33" fill="#fff"/><path d="M40.824 61.815s-.811 7.788 1.045 15.118c1.857 7.325 2.788 9.42 2.788 9.42s6.615-1.626 13.464-1.975c6.849-.349 8.47-.349 8.47-.349s-3.135-8.372-3.598-14.186c-.462-5.814-.462-9.654-.462-9.654s-7.895.35-13.584.933c-5.69.584-8.123.698-8.123.698v-.005z" fill="#5EE29D"/><path d="M97.741 64.287h-2.416s-2.32 11.284-.697 18.145C96.25 89.294 99.5 93.478 99.5 93.478s7.432-.698 13.35-1.625c5.918-.933 6.501-.933 6.501-.933s-1.463-4.813-1.663-6.129" fill="#0D1117"/><path d="M116.797 61.27s-.114 8.373 1.046 14.421c1.159 6.049 2.439 8.956 2.439 8.956s-4.759.114-10.214 1.162c-5.455 1.047-8.591 1.281-8.591 1.281s-3.016-3.954-3.599-9.882c-.583-5.929 0-15.931 0-15.931s11.145.114 14.275 0c3.13-.115 4.644 0 4.644 0v-.006z" fill="#CDF567"/><path d="M108.96 67.005a.949.949 0 0 0 .948-.95.949.949 0 1 0-.948.95z" fill="#CDF567"/><path d="M97.113 105.574s-.811 7.788 1.045 15.119c1.857 7.324 2.788 9.419 2.788 9.419s6.614-1.625 13.464-1.975c6.849-.349 8.471-.349 8.471-.349s-3.136-8.372-3.599-14.186c-.463-5.814-.463-9.653-.463-9.653s-7.894.349-13.583.932c-5.69.584-8.123.699-8.123.699v-.006z" fill="#C9B7EC"/><path d="M131.769 61.815s-.811 7.788 1.046 15.118c1.856 7.325 2.787 9.42 2.787 9.42s6.615-1.626 13.464-1.975c6.849-.349 8.471-.349 8.471-.349s-3.136-8.372-3.598-14.186c-.463-5.814-.463-9.654-.463-9.654s-7.894.35-13.584.933c-5.689.584-8.123.698-8.123.698v-.005z" fill="#5EE29D"/><path d="M185.391 62.696s-.811 7.788 1.045 15.119c1.857 7.324 2.788 9.419 2.788 9.419s6.615-1.625 13.464-1.974c6.849-.35 8.471-.35 8.471-.35s-3.136-8.371-3.599-14.185c-.462-5.814-.462-9.654-.462-9.654s-7.895.349-13.584.933c-5.69.583-8.123.698-8.123.698v-.006z" fill="#0D1117"/><path d="M242.937 85.591s.491 3.846 1.422 5.591c0 0-8.123.698-12.304 1.282-4.182.584-8.123.933-8.123.933s-2.554-1.86-4.41-10.701c-1.857-8.842-.583-12.561-.583-12.561l2.725-.447" fill="#CDF567"/><path d="M226.719 87.926s7.775-1.047 12.887-1.86c5.107-.813 6.387-.698 6.387-.698s-2.439-4.418-3.599-10.524c-1.16-6.105-1.857-9.362-1.857-9.362s-7.774.35-13.463.813l-5.69.463s.463 6.05 1.742 12.327c1.28 6.277 3.599 8.835 3.599 8.835l-.006.006z" fill="#C9B7EC"/><path d="M22.915 17.02a23.628 23.628 0 0 0-6.335.515 41.236 41.236 0 0 0-6.015 1.825c-.514.195-.902.172-1.165-.063-.269-.235-.4-.47-.4-.704.148-.406.417-.738.8-.995 4.37-2.135 8.745-2.925 13.115-2.37.211.063.389.218.526.464.137.246.188.452.142.624-.045.212-.108.389-.194.526-.085.138-.245.2-.48.178h.006zM18.374 28.2c0 .235-.08.447-.24.624-.16.183-.36.292-.594.338-.429.063-.703-.012-.834-.224a1.622 1.622 0 0 1-.223-.738c-.023-1.493-.046-2.987-.08-4.469a98.276 98.276 0 0 0-.206-4.47c0-.085-.011-.188-.034-.303a.929.929 0 0 1 0-.354.624.624 0 0 1 .143-.304c.074-.085.194-.148.366-.194.49-.086.84 0 1.056.24.212.246.32.487.32.721.172 1.54.28 3.067.32 4.584.04 1.516.04 3.033 0 4.55h.006zM32.895 18.587c.64.235 1.176.59 1.616 1.06.434.468.771 1 1.005 1.584.235.59.366 1.19.4 1.808a4.873 4.873 0 0 1-.205 1.729 10.25 10.25 0 0 1-.897 1.762 8.238 8.238 0 0 1-1.245 1.54c-.469.452-1 .812-1.6 1.087-.594.28-1.257.418-1.982.418-.874 0-1.611-.2-2.205-.607a4.26 4.26 0 0 1-1.405-1.568c-.343-.64-.56-1.368-.657-2.18a8.94 8.94 0 0 1 .046-2.438 8.766 8.766 0 0 1 .434-1.745c.2-.567.462-1.07.782-1.505.32-.441.686-.796 1.103-1.076.417-.28.89-.418 1.422-.418.297 0 .674.057 1.12.177.445.12.862.287 1.245.498.28-.257.617-.297 1.023-.126zm-1.217 2.34a9.696 9.696 0 0 1-.817-.594c-.309-.246-.583-.366-.817-.366-.257 0-.508.12-.754.354-.246.235-.457.51-.64.819-.183.309-.337.623-.462.944a6.3 6.3 0 0 0-.258.767c-.062.32-.108.704-.125 1.156-.023.446.011.892.097 1.327.086.44.251.836.497 1.185.245.355.611.6 1.102.755.297.086.652.08 1.057-.017a3.937 3.937 0 0 0 1.2-.527 5.015 5.015 0 0 0 1.12-1.024c.353-.429.622-.915.816-1.476.212-.618.217-1.265.017-1.94a2.268 2.268 0 0 0-1.233-1.46.747.747 0 0 1-.446.16.852.852 0 0 1-.354-.062zM52.825 13.523c-.063-.383-.04-.738.08-1.059.114-.32.354-.503.72-.543.32-.04.6.046.845.257.245.212.4.492.462.836.429 2.455.829 4.898 1.2 7.324.371 2.427.708 4.802 1.005 7.13.086.619.04 1.042-.125 1.265-.172.223-.372.39-.606.498-.257.109-.497.109-.72 0-.222-.109-.365-.298-.434-.578l-.034-.194-.126.034c-.702.257-1.44.4-2.204.435a6.436 6.436 0 0 1-2.206-.275 4.999 4.999 0 0 1-1.873-1.041c-.543-.481-.931-1.093-1.165-1.843-.514-1.642-.195-3.142.96-4.486a8.027 8.027 0 0 1 1.822-1.505c.725-.447 1.599-.801 2.621-1.059l.577-.126-.8-5.064v-.006zm-3.233 11.44c.125.514.36.909.702 1.184.343.28.748.463 1.217.56.468.098.97.115 1.502.046a7.757 7.757 0 0 0 1.565-.355l.286-.097-.897-5.642-.64.16a7.076 7.076 0 0 0-1.422.595 6.15 6.15 0 0 0-1.325.944c-.383.36-.68.767-.88 1.22-.206.446-.24.91-.114 1.378l.006.006zM66.197 18.587c.64.235 1.177.59 1.617 1.06.434.468.77 1 1.005 1.584.234.59.366 1.19.4 1.808a4.873 4.873 0 0 1-.206 1.729 10.25 10.25 0 0 1-.897 1.762 8.238 8.238 0 0 1-1.245 1.54c-.468.452-1 .812-1.6 1.087-.593.28-1.256.418-1.982.418-.873 0-1.61-.2-2.204-.607a4.26 4.26 0 0 1-1.406-1.568c-.342-.64-.56-1.368-.657-2.18a8.94 8.94 0 0 1 .046-2.438 8.766 8.766 0 0 1 .434-1.745c.2-.567.463-1.07.783-1.505.32-.441.685-.796 1.102-1.076.417-.28.891-.418 1.423-.418.297 0 .674.057 1.12.177.445.12.862.287 1.245.498.28-.257.617-.297 1.022-.126zm-1.217 2.34a9.713 9.713 0 0 1-.817-.594c-.308-.246-.582-.366-.816-.366-.257 0-.509.12-.754.354-.246.235-.457.51-.64.819-.183.309-.337.623-.463.944a6.3 6.3 0 0 0-.257.767c-.063.32-.108.704-.126 1.156-.022.446.012.892.098 1.327.085.44.25.836.497 1.185.245.355.61.6 1.102.755.297.086.651.08 1.057-.017a3.938 3.938 0 0 0 1.2-.527 5.015 5.015 0 0 0 1.119-1.024c.354-.429.623-.915.817-1.476.211-.618.217-1.265.017-1.94a2.268 2.268 0 0 0-1.234-1.46.747.747 0 0 1-.445.16.852.852 0 0 1-.355-.062zM101.209 17.111c-.319.126-.594.137-.834.034-.234-.108-.405-.246-.514-.417a.76.76 0 0 1-.125-.676c.063-.234.245-.435.542-.606.492-.275 1.108-.51 1.857-.687a7.059 7.059 0 0 1 2.399-.143 6.453 6.453 0 0 1 2.353.687 6.16 6.16 0 0 1 1.823 1.425 6.27 6.27 0 0 1 1.154 1.968c.268.733.388 1.51.365 2.323a9.494 9.494 0 0 1-.497 2.564 10.425 10.425 0 0 1-1.182 2.404 10.437 10.437 0 0 1-1.794 2.037 8.226 8.226 0 0 1-2.285 1.425c-.577.148-1.011.171-1.314.063-.297-.11-.502-.235-.605-.384-.046-.109-.057-.252-.046-.435.012-.183.12-.366.337-.56a62.465 62.465 0 0 1-.463-6.01c-.051-1.933-.08-3.702-.08-5.304a6.94 6.94 0 0 0-1.085.286l-.006.006zm3.485-.418a2.949 2.949 0 0 0-.4-.046 4.85 4.85 0 0 0-.4-.017c.126.172.234.378.32.624s.126.486.126.721c0 1.305.017 2.701.045 4.2.035 1.494.132 3.108.303 4.841.937-.68 1.742-1.544 2.417-2.58.674-1.036 1.028-2.129 1.073-3.285.023-1.07-.245-2.014-.799-2.838-.554-.824-1.451-1.362-2.685-1.62zM120.014 18.587a4.13 4.13 0 0 1 1.617 1.06c.434.468.771 1 1.005 1.584.234.59.366 1.19.4 1.808a4.896 4.896 0 0 1-.205 1.729c-.235.6-.532 1.184-.897 1.762a8.234 8.234 0 0 1-1.246 1.54 5.683 5.683 0 0 1-1.599 1.087c-.594.28-1.257.418-1.982.418-.874 0-1.611-.2-2.205-.607a4.257 4.257 0 0 1-1.405-1.568c-.343-.64-.56-1.368-.657-2.18a8.969 8.969 0 0 1 .045-2.438 8.768 8.768 0 0 1 .435-1.745c.199-.567.462-1.07.782-1.505a4.37 4.37 0 0 1 1.103-1.076c.417-.28.891-.418 1.422-.418.297 0 .674.057 1.12.177.445.12.862.287 1.245.498.28-.257.617-.297 1.022-.126zm-1.216 2.34a9.505 9.505 0 0 1-.817-.594c-.309-.246-.583-.366-.817-.366-.257 0-.508.12-.754.354-.246.235-.457.51-.64.819a6.57 6.57 0 0 0-.463.944c-.125.32-.211.578-.257.767a7.61 7.61 0 0 0-.125 1.156c-.023.446.011.892.097 1.327.085.44.251.836.497 1.185.245.355.611.6 1.102.755.297.086.651.08 1.057-.017a3.944 3.944 0 0 0 1.2-.527 5.015 5.015 0 0 0 1.119-1.024c.354-.429.623-.915.817-1.476.211-.618.217-1.265.017-1.94a2.267 2.267 0 0 0-1.234-1.46.745.745 0 0 1-.445.16.848.848 0 0 1-.354-.062zM130.959 16.7c-.046.21-.194.331-.445.354a7.442 7.442 0 0 1-.64.034 15.187 15.187 0 0 0-3.422.544c-.257.086-.531.051-.834-.097-.303-.15-.48-.447-.543-.899 0-.171.063-.309.195-.418.125-.108.274-.2.445-.286.28-.126.606-.24.994-.337a8.154 8.154 0 0 1 1.165-.206 7.722 7.722 0 0 1 1.137-.046c.36.011.663.046.897.114.343.11.611.27.817.481.2.212.28.47.24.767l-.006-.006zm-.737 10.672c.149.343.229.71.24 1.104.012.395-.103.67-.337.818-.297.195-.617.183-.96-.034a1.97 1.97 0 0 1-.765-.864c-.234-.447-.417-.996-.543-1.648a21.48 21.48 0 0 1-.285-1.94 23.772 23.772 0 0 1-.115-1.797 70.227 70.227 0 0 1-.017-1.247c.023-.298.109-.578.257-.836.149-.257.343-.406.577-.446.383.023.692.2.926.526.234.332.342.744.32 1.236 0 .384.011.813.034 1.282.023.47.063.939.126 1.408.062.469.137.927.222 1.362.086.44.195.795.32 1.076zM135.369 19.194c.063.32.131.68.206 1.076.074.394.154.8.24 1.218a29.886 29.886 0 0 1 .382 2.484c.257-.555.532-1.145.834-1.763.297-.617.623-1.19.977-1.716a6.72 6.72 0 0 1 1.12-1.3c.394-.343.828-.514 1.296-.514a2.35 2.35 0 0 1 1.777.767c.48.515.885 1.15 1.217 1.905.331.761.594 1.557.782 2.386.189.83.354 1.568.48 2.21.126.577-.126 1-.765 1.281-.297.149-.526.172-.674.063-.149-.109-.235-.212-.258-.32-.108-.258-.239-.704-.399-1.345a42.41 42.41 0 0 0-.543-1.957c-.2-.664-.434-1.242-.686-1.729-.257-.492-.542-.715-.862-.675-.383.023-.726.31-1.023.864-.257.447-.519.945-.782 1.488a54.78 54.78 0 0 0-.783 1.665c-.257.567-.508 1.134-.754 1.7-.245.567-.474 1.082-.685 1.556a1.141 1.141 0 0 1-.56.304c-.223.051-.451.04-.686-.046a1.088 1.088 0 0 1-.514-.32c-.125-.15-.194-.298-.194-.447a138.82 138.82 0 0 0-.594-4.55 61.163 61.163 0 0 0-.783-4.2c-.148-.491-.177-.88-.079-1.167.097-.286.411-.4.942-.337.748.126 1.205.6 1.377 1.407l-.006.012zM152.711 20.928c.172.234.338.526.497.881.16.355.28.71.366 1.076.126.578.274 1.202.434 1.877.16.675.32 1.373.48 2.1a71.757 71.757 0 0 1 .811 4.355 6.33 6.33 0 0 1-.205 2.706 6.143 6.143 0 0 1-1.326 2.324c-.617.687-1.388 1.23-2.302 1.636-.919.407-1.953.63-3.102.676-.257-.023-.525-.143-.799-.367-.28-.223-.417-.452-.417-.686-.023-.235.091-.424.337-.561.245-.137.497-.229.754-.275a7.597 7.597 0 0 0 1.394-.274 5.648 5.648 0 0 0 1.359-.596 5.663 5.663 0 0 0 1.165-.927c.355-.366.623-.79.817-1.281.149-.384.223-.859.223-1.425 0-.567-.04-1.128-.114-1.683a17.822 17.822 0 0 0-.286-1.585c-.12-.503-.217-.881-.303-1.139a5.842 5.842 0 0 1-.559.481 5.398 5.398 0 0 1-.754.48 4.17 4.17 0 0 1-.914.356c-.332.085-.669.12-1.006.097a1.807 1.807 0 0 1-1.005-.384 3.343 3.343 0 0 1-.817-.915 4.899 4.899 0 0 1-.56-1.3 5.694 5.694 0 0 1-.205-1.538c.04-1.282.365-2.421.976-3.411.606-.996 1.583-1.768 2.925-2.323.109-.023.251-.046.434-.063.183-.023.366-.029.56-.017.194.011.377.04.56.08.183.045.337.108.463.194.234.172.354.418.354.738s-.075.556-.223.704l-.012-.011zm-4.032 4.389c0 .235.022.498.062.784.04.286.183.498.417.624.257.148.572.171.943.063a2.98 2.98 0 0 0 1.04-.544c.297-.235.497-.498.594-.784.097-.286.091-.675-.017-1.167a68.6 68.6 0 0 0-.355-1.54 11.95 11.95 0 0 1-.257-1.442 4.506 4.506 0 0 0-.817.544 3.943 3.943 0 0 0-.782.881 5.906 5.906 0 0 0-.594 1.168 4 4 0 0 0-.24 1.407l.006.006zM187.977 17.111c-.32.126-.594.137-.834.034-.234-.108-.406-.246-.514-.417a.76.76 0 0 1-.126-.676c.063-.234.246-.435.543-.606.491-.275 1.108-.51 1.856-.687a7.06 7.06 0 0 1 2.399-.143c.852.086 1.64.315 2.354.687a6.156 6.156 0 0 1 1.822 1.425 6.232 6.232 0 0 1 1.52 4.291 9.494 9.494 0 0 1-.497 2.564 10.47 10.47 0 0 1-1.183 2.404 10.464 10.464 0 0 1-1.793 2.037 8.24 8.24 0 0 1-2.285 1.425c-.577.148-1.012.171-1.314.063-.297-.11-.503-.235-.606-.384-.045-.109-.057-.252-.045-.435.011-.183.12-.366.337-.56a62.146 62.146 0 0 1-.463-6.01c-.052-1.933-.08-3.702-.08-5.304-.36.063-.726.16-1.085.286l-.006.006zm3.484-.418a2.916 2.916 0 0 0-.399-.046 4.887 4.887 0 0 0-.4-.017 2.393 2.393 0 0 1 .445 1.345c0 1.305.017 2.701.046 4.2a63.84 63.84 0 0 0 .303 4.841c.936-.68 1.742-1.544 2.416-2.58.674-1.036 1.028-2.129 1.074-3.285.023-1.07-.246-2.014-.8-2.838-.554-.824-1.451-1.362-2.685-1.62zM206.787 18.587a4.13 4.13 0 0 1 1.617 1.06c.434.468.771 1 1.005 1.584.235.59.366 1.19.4 1.808a4.896 4.896 0 0 1-.205 1.729c-.235.6-.532 1.184-.897 1.762a8.234 8.234 0 0 1-1.246 1.54 5.683 5.683 0 0 1-1.599 1.087c-.594.28-1.257.418-1.982.418-.874 0-1.611-.2-2.205-.607a4.257 4.257 0 0 1-1.405-1.568c-.343-.64-.56-1.368-.657-2.18a8.969 8.969 0 0 1 .045-2.438 8.768 8.768 0 0 1 .435-1.745c.2-.567.462-1.07.782-1.505a4.37 4.37 0 0 1 1.103-1.076c.417-.28.891-.418 1.422-.418.297 0 .674.057 1.12.177.445.12.862.287 1.245.498.28-.257.617-.297 1.022-.126zm-1.216 2.34a9.664 9.664 0 0 1-.817-.594c-.309-.246-.583-.366-.817-.366-.257 0-.508.12-.754.354-.246.235-.457.51-.64.819a6.57 6.57 0 0 0-.463.944c-.125.32-.211.578-.257.767a7.61 7.61 0 0 0-.125 1.156c-.023.446.011.892.097 1.327.086.44.251.836.497 1.185.245.355.611.6 1.102.755.297.086.652.08 1.057-.017a3.934 3.934 0 0 0 1.2-.527 5.015 5.015 0 0 0 1.119-1.024c.354-.429.623-.915.817-1.476.212-.618.217-1.265.017-1.94a2.267 2.267 0 0 0-1.234-1.46.745.745 0 0 1-.445.16.848.848 0 0 1-.354-.062zM214.396 19.194c.063.32.132.68.206 1.076.074.394.154.8.24 1.218.085.418.16.836.223 1.265.062.43.12.836.16 1.219.257-.555.531-1.145.833-1.763.298-.617.623-1.19.977-1.716a6.72 6.72 0 0 1 1.12-1.3c.394-.343.828-.514 1.297-.514a2.35 2.35 0 0 1 1.776.767c.48.515.886 1.15 1.217 1.905.331.761.594 1.557.782 2.386.189.83.355 1.568.48 2.21.126.577-.125 1-.765 1.281-.297.149-.526.172-.674.063-.149-.109-.234-.212-.257-.32-.109-.258-.24-.704-.4-1.345a42.41 42.41 0 0 0-.543-1.957 10.2 10.2 0 0 0-.685-1.729c-.257-.492-.543-.715-.863-.675-.383.023-.725.31-1.022.864-.257.447-.52.945-.783 1.488a60.055 60.055 0 0 0-.783 1.665c-.257.567-.508 1.134-.754 1.7-.245.567-.474 1.082-.685 1.556a1.141 1.141 0 0 1-.56.304c-.223.051-.451.04-.685-.046a1.078 1.078 0 0 1-.514-.32c-.126-.15-.195-.298-.195-.447a138.82 138.82 0 0 0-.594-4.55 60.548 60.548 0 0 0-.782-4.2c-.149-.491-.177-.88-.08-1.167.097-.286.411-.4.942-.337.749.126 1.206.6 1.377 1.407l-.006.012zM233.658 22.238a11.18 11.18 0 0 1-2.685 1.139c-.959.269-1.993.4-3.101.4.04.75.257 1.34.639 1.78.383.44.863.698 1.44.784.343.046.685.034 1.04-.034.354-.069.679-.166.993-.304.309-.137.595-.291.846-.463.257-.172.48-.343.674-.515.194-.172.394-.28.605-.338.212-.051.372-.057.48-.017.297.109.406.43.32.961a4.901 4.901 0 0 1-1.474 1.746 4.832 4.832 0 0 1-2.142.915 4.743 4.743 0 0 1-2.113-.097 4.444 4.444 0 0 1-1.954-1.122 5 5 0 0 1-1.12-1.728 7.402 7.402 0 0 1-.479-2.048c-.063-.664 0-1.294.177-1.889a4.506 4.506 0 0 1 .845-1.585 4.695 4.695 0 0 1 1.44-1.139c.577-.297 1.245-.469 2.016-.515.914-.063 1.748.11 2.496.515.749.407 1.269.973 1.566 1.7.171.406.217.761.142 1.059-.074.297-.291.566-.657.8l.006-.005zm-3.679-2.18a3.81 3.81 0 0 0-.685.223c-.246.109-.468.24-.674.4-.206.16-.383.344-.543.544a1.29 1.29 0 0 0-.274.687c.36 0 .76-.034 1.2-.097.434-.063.862-.143 1.279-.24.417-.098.8-.207 1.154-.338.354-.126.646-.27.88-.418-.172-.406-.486-.658-.943-.755a3.57 3.57 0 0 0-1.394-.018v.012z" fill="#CDF567"/><path d="M83.444.934s1.52 22.168 0 40.6c-1.52 18.427.589 69.969.674 83.788.086 13.82-.611 16.698-.611 16.698M171.99.934s1.519 20.732 0 32.537c-1.52 11.806-1.268 49.9-1.011 59.216.251 9.316 1.691 49.339 1.691 49.339" stroke="#929497" stroke-miterlimit="10" stroke-linecap="round"/><path d="M243 47.58s-22.91-.692-29.038 0c-6.123.69-48.094.413-59.661 0-11.568-.415-58.25-.891-72.544-.31C67.462 47.854 1 48 1 48" stroke="#929497" stroke-miterlimit="10" stroke-linecap="round"/><path d="M226.719 87.926s7.775-1.047 12.887-1.86c5.107-.812 6.387-.698 6.387-.698s-2.44-4.417-3.599-10.523c-1.16-6.106-1.857-9.362-1.857-9.362s-7.774.349-13.464.813l-5.689.463s.463 6.049 1.742 12.326c1.28 6.278 3.599 8.836 3.599 8.836l-.006.005z" stroke="#0D1117" stroke-linecap="round" stroke-linejoin="round"/><path d="M242.937 85.592s.491 3.845 1.422 5.59c0 0-8.123.699-12.304 1.282-4.182.584-8.123.933-8.123.933s-2.554-1.86-4.41-10.7c-1.857-8.842-.583-12.562-.583-12.562l2.725-.446M235.596 71.995a.87.87 0 1 0 0-1.739.87.87 0 0 0 0 1.739z" stroke="#0D1117" stroke-linecap="round" stroke-linejoin="round"/><path d="M227.131 80.081s2.981-.715 4.964-.881c1.987-.166 8.128-.756 8.128-.756M228.524 83.274s1.126-.063 3.576-.532c2.451-.464 4.187-.395 4.187-.395M131.769 61.815s-.811 7.788 1.046 15.118c1.856 7.325 2.787 9.42 2.787 9.42s6.615-1.626 13.464-1.975c6.849-.349 8.471-.349 8.471-.349s-3.136-8.372-3.598-14.186c-.463-5.814-.463-9.654-.463-9.654s-7.894.35-13.584.933c-5.689.584-8.123.698-8.123.698v-.005z" stroke="#0D1117" stroke-linecap="round" stroke-linejoin="round"/><path d="M143.337 67.509a.87.87 0 1 0-.002-1.739.87.87 0 0 0 .002 1.739zM137.19 76.418s3.713-.76 5.273-.76M138.464 80.996s6.952-1.39 10.202-1.51c3.245-.115 3.942 0 3.942 0M97.113 105.574s-.811 7.789 1.045 15.119c1.857 7.325 2.788 9.419 2.788 9.419s6.614-1.625 13.464-1.974c6.849-.349 8.471-.349 8.471-.349s-3.136-8.372-3.599-14.186c-.463-5.814-.463-9.654-.463-9.654s-7.894.349-13.583.933c-5.69.584-8.123.698-8.123.698v-.006z" stroke="#0D1117" stroke-linecap="round" stroke-linejoin="round"/><path d="M108.674 111.268a.869.869 0 1 0 0-1.738.869.869 0 0 0 0 1.738zM102.305 121.523s3.473-1.047 5.501-1.047M103.579 125.586s8.306-1.929 13.098-1.975M40.824 61.815s-.811 7.788 1.045 15.118c1.856 7.325 2.788 9.42 2.788 9.42s6.614-1.626 13.464-1.975c6.848-.349 8.47-.349 8.47-.349s-3.135-8.372-3.598-14.186c-.463-5.814-.463-9.654-.463-9.654s-7.894.35-13.584.933c-5.689.584-8.122.698-8.122.698v-.005z" stroke="#0D1117" stroke-linecap="round" stroke-linejoin="round"/><path d="M56.435 67.509a.87.87 0 1 0-.001-1.739.87.87 0 0 0 .001 1.739zM40.647 64.722h-3.188s-.234 9.768.931 16.395c1.16 6.626 2.262 9.184 2.262 9.184s8.42-.933 14.92-1.974c6.501-1.047 7.547-.813 7.547-.813l-1.051-3.33" stroke="#0D1117" stroke-linecap="round" stroke-linejoin="round"/><path d="M45.308 74.152s2.982-.715 4.964-.881c1.988-.166 8.128-.755 8.128-.755M46.702 77.351s1.125-.063 3.575-.532c2.451-.47 4.188-.395 4.188-.395M9.08 89.454s7.775-1.047 12.887-1.86c5.107-.812 6.387-.698 6.387-.698s-2.44-4.418-3.599-10.523c-1.16-6.106-1.857-9.362-1.857-9.362s-7.774.349-13.463.812l-5.69.464s.463 6.048 1.742 12.326c1.28 6.278 3.6 8.835 3.6 8.835l-.007.006z" stroke="#0D1117" stroke-linecap="round" stroke-linejoin="round"/><path d="M25.303 87.12s.492 3.845 1.423 5.59c0 0-8.123.698-12.304 1.282-4.182.584-8.123.933-8.123.933s-2.554-1.86-4.41-10.701c-1.857-8.836-.583-12.56-.583-12.56l2.725-.447M17.963 73.523a.869.869 0 1 0-.001-1.738.869.869 0 0 0 .001 1.738z" stroke="#0D1117" stroke-linecap="round" stroke-linejoin="round"/><path d="M9.903 81.729s3.473-1.047 5.501-1.047M11.183 85.792s8.305-1.929 13.098-1.975M116.797 61.271s-.114 8.372 1.046 14.42c1.159 6.05 2.439 8.956 2.439 8.956s-4.759.115-10.214 1.162-8.591 1.282-8.591 1.282-3.016-3.954-3.599-9.883c-.583-5.928 0-15.931 0-15.931s11.145.114 14.275 0c3.13-.114 4.644 0 4.644 0v-.006z" stroke="#0D1117" stroke-linecap="round" stroke-linejoin="round"/><path d="M97.741 64.287h-2.416s-2.32 11.285-.697 18.146C96.25 89.294 99.5 93.477 99.5 93.477s7.432-.698 13.35-1.625c5.918-.933 6.501-.933 6.501-.933s-1.463-4.812-1.663-6.128M108.96 67.005a.949.949 0 0 0 .948-.95.949.949 0 1 0-.948.95z" stroke="#0D1117" stroke-linecap="round" stroke-linejoin="round"/><path d="M102.128 81.986s8.306-1.928 13.098-1.974M185.391 62.696s-.811 7.788 1.045 15.119c1.857 7.324 2.788 9.419 2.788 9.419s6.615-1.625 13.464-1.974c6.849-.35 8.471-.35 8.471-.35s-3.136-8.371-3.599-14.185c-.462-5.814-.462-9.654-.462-9.654s-7.895.349-13.584.933c-5.69.583-8.123.698-8.123.698v-.006z" stroke="#0D1117" stroke-linecap="round" stroke-linejoin="round"/><path d="M196.958 68.39a.87.87 0 1 0 0-1.739.87.87 0 0 0 0 1.739zM191.64 81.82s2.982-.715 4.964-.881c1.988-.166 8.129-.755 8.129-.755" stroke="#fff" stroke-linecap="round" stroke-linejoin="round"/></g><defs><clipPath id="a"><path fill="#fff" d="M0 0h247v142H0z"/></clipPath></defs></svg>