<svg width="156" height="142" viewBox="0 0 156 142" fill="none" xmlns="http://www.w3.org/2000/svg">
<path d="M61.6 89.2C61.6 89.2 60.2 77.9 58.8 69.9C57.4 61.9 56 55.2 56 55.2C56 55.2 56.4 52.5 52.2 52.5C48 52.5 12.4 55.4 8.59996 56.4C8.59996 56.4 6.09996 56.6 4.49996 57.6C4.49996 57.6 1.59996 58.3 1.49996 61.8C1.39996 65.3 4.79996 80.4 5.39996 87.3C5.99996 94.1 7.29996 105.4 9.09996 104C9.29996 103.8 8.59996 104.4 11.4 105.8C14.1 107.3 23.2 112.3 27.2 114.8C31.3 117.3 39.4 121.4 40.5 122.2C41.7 123 43.9 123.8 45.8 123.3C47.7 122.7 64.7 118.1 73.1 114.8C81.4 111.5 85.6 110.1 87.1 109.6C89.5 108.9 88.9 107.6 89 106.7C89 105.8 84.8 103.5 81.9 101.8C79 100.1 61.6 89 61.6 89" fill="#C9B7EC"/>
<path d="M61.2 67.6001L61.9 73.8001C61.9 71.9001 61.2 67.6001 61.2 67.6001Z" fill="#CDF567"/>
<path d="M64 72.2998C64 71.0998 63.6 69.2998 63.6 69.2998L64 72.2998Z" fill="#CDF567"/>
<path d="M155.5 80.6002C155.5 80.6002 140 73.7002 135.9 72.1002C131.8 70.4002 124.8 67.6002 123.2 67.9002C121.5 68.2002 104.8 77.2002 95.3 83.6002C86.5 89.6002 86 91.1002 86 91.3002C84.9 92.4002 83.7 98.0002 86.8 99.7002C89.9 101.5 109.4 105.9 113.9 106.8C118.4 107.7 121.2 108 121.2 108C124 107.6 153.8 90.1002 153.8 90.1002C152.5 85.7002 155.5 80.5002 155.5 80.5002V80.6002Z" fill="#CDF567"/>
<path d="M106.6 28.6998C106.6 28.6998 106.6 26.0998 103.6 25.9998C102.9 25.9998 102.4 25.9998 101.9 26.2998C101.9 26.2998 94 21.2998 77.1 21.9998C78.3 19.8998 76.5 18.0998 74.6 18.1998C72.5 18.1998 72.3 21.0998 72.3 21.0998C67.6 19.9998 63.9 21.9998 59.6 24.8998C57.1 26.5998 55.4 28.8998 54.3 30.6998C53.3 32.3998 52.8 33.6998 52.8 33.6998H52.9C52.6 34.4998 52.9 35.5998 53.9 36.6998C54.8 37.7998 56.9 39.0998 59.4 40.3998H59.6C60 41.7998 61 42.7998 62.1 43.1998C63.7 43.7998 65 43.6998 66.1 43.1998C69.1 44.1998 72.1 44.7998 74.7 44.8998C74.7 44.8998 75.8 44.8998 76.4 44.2998C76.4 44.2998 77.3 43.4998 78.1 41.6998C78.6 40.6998 79.1 39.2998 79.4 37.4998C80.1 33.8998 80.1 28.4998 77.8 24.8998C78.8 24.7998 80 24.6998 81.2 24.6998C85 24.8998 92.7 26.0998 92.7 26.0998L100.1 28.6998C100 29.2998 100.1 29.9998 100.2 30.4998C100.4 31.0998 101.3 31.5998 102.3 31.8998H101.9L88.2 79.3998V78.5998C88.2 78.5998 82.4 79.2998 80 80.6998C78.5 81.5998 77.5 82.9998 77.5 84.2998C77.5 84.2998 76.8 88.0998 77.5 88.8998C77.8 89.2998 78.7 89.7998 80.2 90.1998L85.8 91.2998C85.8 91.2998 87.7 88.6998 91.4 86.0998C95.1 83.4998 99.3 81.0998 99.3 81.0998C99.3 81.0998 96.6 79.4998 94.2 79.1998C93.2 79.0998 92.3 78.9998 91.7 78.9998L104.4 31.7998C105.6 31.4998 106.5 30.5998 106.4 28.7998L106.6 28.6998Z" fill="#D6E4F9"/>
<path d="M3.79995 58.4002C3.79995 58.4002 2.79995 59.4002 3.79995 63.7002C4.79995 68.1002 7.79995 83.9002 7.79995 83.9002L10.8 102.4L17.7 106.4L36.2 116.1C36.2 116.1 43.9 121.1 45.2 120.8C46.6 120.5 55.4 117.5 55.4 117.5L82 109.3L89 106.9C89 106.9 89.5 108.7 88.3 109.3C87.1 109.8 80.9 112.1 80.9 112.1L63.7 118.3L49.7 122.4L44.7 123.6C44.7 123.6 43.2999 123.8 40.5999 122.3C37.8999 120.8 21.7 111.7 21.7 111.7L10.5 105.4L9.19995 104.1C9.19995 104.1 7.99995 104.2 7.49995 101.3C6.89995 98.4002 5.39995 85.6002 5.39995 85.6002L1.69995 63.2002L2.29995 58.9002L4.09995 58.2002L3.79995 58.4002Z" fill="#0D1117"/>
<path d="M13.5 60.1C11.4 60.3 9.19995 60.6 9.19995 63.1C9.19995 65.6 11.1 79.7 11.8 84.9C12.5 90.1 13.8 95.9 15 96.1C16.2 96.3 19.1 95.6 23.2 94.6C27.2 93.7 45.5999 89.7 48 89.2C50.4 88.7 55.0999 87.6 56.2999 87C57.5 86.5 57.0999 83.8 56.7999 80.7C56.5 77.6 54.8999 69.7 54.2999 66.3C53.7 62.9 53.5 60.1 53.5 60.1C53.5 60.1 53.6 56.1 50.2 56C46.7999 56 15.6 59.8 13.5 60V60.1Z" fill="#0D1117"/>
<path d="M16.8 84.1002C16.8 84.1002 25.4 82.7002 28.8 82.1002C32.2 81.6002 48.4001 78.7002 48.4001 78.7002" stroke="#C9B7EC" stroke-width="1.2" stroke-linecap="round" stroke-linejoin="round"/>
<path d="M17.8999 87.4001C17.8999 87.4001 21.6999 86.7001 22.4999 86.6001" stroke="#CDF567" stroke-width="1.2" stroke-linecap="round" stroke-linejoin="round"/>
<path d="M26 86.1999L32.8 84.8999" stroke="#5EE29D" stroke-width="1.2" stroke-linecap="round" stroke-linejoin="round"/>
<path d="M17.8 91.5002C17.8 91.5002 22.8 90.3002 25.8 89.8002C28.8 89.3002 44 86.2002 44 86.2002" stroke="#C9B7EC" stroke-width="1.2" stroke-linecap="round" stroke-linejoin="round"/>
<path d="M12.8 65.1998C12.8 65.1998 15.3 64.9998 16.1 64.7998" stroke="#CDF567" stroke-width="1.2" stroke-linecap="round" stroke-linejoin="round"/>
<path d="M18.3 64.2002C18.3 64.2002 28.3 62.9002 29.8 62.7002" stroke="#CDF567" stroke-width="1.2" stroke-linecap="round" stroke-linejoin="round"/>
<path d="M14.5 68.9002C14.5 68.9002 20.2 68.1002 23 67.5002C25.9 66.9002 35.5 65.7002 35.5 65.7002" stroke="#5EE29D" stroke-width="1.2" stroke-linecap="round" stroke-linejoin="round"/>
<path d="M38.5 65.5001L42 65.1001" stroke="#C9B7EC" stroke-width="1.2" stroke-linecap="round" stroke-linejoin="round"/>
<path d="M14.8 72.2999L16.8 71.8999" stroke="#C9B7EC" stroke-width="1.2" stroke-linecap="round" stroke-linejoin="round"/>
<path d="M19.7 71.2998L26.6 70.2998" stroke="#CDF567" stroke-width="1.2" stroke-linecap="round" stroke-linejoin="round"/>
<path d="M30.1001 69.8998C30.1001 69.8998 32.9001 69.3998 35.1001 68.9998C37.4001 68.5998 46.9001 67.2998 46.9001 67.2998" stroke="#C9B7EC" stroke-width="1.2" stroke-linecap="round" stroke-linejoin="round"/>
<path d="M15.5 76.1998C15.5 76.1998 19 75.2998 21.2 74.9998C23.4 74.5998 35.1 73.2998 35.1 73.2998" stroke="#5EE29D" stroke-width="1.2" stroke-linecap="round" stroke-linejoin="round"/>
<path d="M38 72.7999C38 72.7999 40.3 72.3999 41.3 72.3999C42.3 72.3999 42.9 71.8999 42.9 71.8999" stroke="#C9B7EC" stroke-width="1.2" stroke-linecap="round" stroke-linejoin="round"/>
<path d="M16.3999 80.5002C16.3999 80.5002 18.5999 80.1002 20.9999 79.5002C23.3999 78.9002 24.9999 78.7002 24.9999 78.7002" stroke="#C9B7EC" stroke-width="1.2" stroke-linecap="round" stroke-linejoin="round"/>
<path d="M28.3 78.2002L40.4001 76.2002" stroke="#CDF567" stroke-width="1.2" stroke-linecap="round" stroke-linejoin="round"/>
<path d="M59.1001 93.2002C59.1001 93.2002 55.9001 94.1002 49.6001 95.9002C43.3001 97.7002 35.0001 100.2 31.5001 101.3C27.9001 102.3 22.1001 103.8 22.1001 103.8C22.1001 103.8 27.6001 107 31.6001 109C35.6001 111.1 44.7001 116.7 44.7001 116.7C44.7001 116.7 51.6001 114.3 57.2001 112.4C62.8001 110.5 79.7001 105.4 79.7001 105.4C79.7001 105.4 74.4001 102.1 68.6001 98.5002C62.8001 94.9002 59.2001 93.2002 59.2001 93.2002H59.1001Z" fill="#C9B7EC"/>
<path d="M69.1 36.4999C69.1 36.4999 69.6 39.2999 68.5 40.7999C67.5 42.2999 66.8 42.6999 66.8 42.6999C66.8 42.6999 68.2 44.2999 71.5 44.5999C74.7 44.7999 77.4 45.3999 76.8 43.1999C76.2 41.0999 73.3 38.4999 73.3 38.4999L69.1 36.3999V36.4999Z" fill="#0D1117"/>
<path d="M63.6001 34.0002C63.6001 34.0002 61.1001 34.5002 60.2001 36.5002C59.2001 38.6002 59.7001 40.5002 59.7001 40.5002C59.7001 40.5002 55.7001 38.6002 54.0001 36.7002C52.3001 34.8002 52.8001 32.9002 55.5001 32.4002C58.3001 31.9002 63.7001 34.0002 63.7001 34.0002H63.6001Z" fill="#0D1117"/>
<path d="M63.5999 34C63.5999 34 61.1999 34.7 59.7999 37.3C58.4999 40 60.6999 42.5 62.0999 43.2C63.3999 43.9 66.9999 43.4 68.4999 40.8C69.8999 38.2 68.9999 36.5 68.9999 36.5L63.5999 34Z" fill="white"/>
<path d="M120.7 99.4L108.6 94.6L99.6 92.2L94.3 91.3C94.3 91.3 86.7 90.1 86.1 91.3C85.4 92.5 83.3 97.7 86.9 99.7C90.5 101.7 102.8 104.5 102.8 104.5L118.5 107.9H121.3L138.2 99.3L154 90.1C154 90.1 153.6 87.1 154 84.9C154.4 82.7 155.7 80.5 155.7 80.5C155.7 80.5 146.4 86.6 141.7 89.1C137 91.7 120.9 99.3 120.9 99.3L120.7 99.4Z" fill="#C9B7EC"/>
<path d="M8.59995 56.6C8.59995 56.6 3.19995 57 3.39995 59.9C3.59995 62.8 6.09995 72.1 7.49995 81.4C8.89995 90.8 10.9 102.8 10.9 102.8C10.9 102.8 31 97.5 38.4 95.2C45.7 92.9 61.6 89.2 61.6 89.2C61.6 89.2 60.2 77.9 58.8 69.9C57.4 61.9 56 55.2 56 55.2C56 55.2 56.4 52.5 52.2 52.5C48 52.5 12.3 55.4 8.59995 56.4V56.6Z" stroke="#0D1117" stroke-linecap="round" stroke-linejoin="round"/>
<path d="M4.49996 57.7998C4.49996 57.7998 1.59996 58.4998 1.49996 61.9998C1.39996 65.4998 4.79996 80.5998 5.39996 87.4998C5.99996 94.2998 7.29996 105.6 9.09996 104.2L10.9 102.8C10.9 102.8 13.2 103.8 17.8 106.5C22.4 109.1 34.7 115.2 38.2 117.4C41.7 119.6 44.1 120.6 45 120.6C46 120.6 55.5 117.5 60 116.3C64.5 115.1 80.8 109.9 83.3 109C85.8 108.1 89 107 89 107" stroke="#0D1117" stroke-linecap="round" stroke-linejoin="round"/>
<path d="M9.59988 103.8C9.59988 103.8 8.59988 104.6 11.3999 106C14.0999 107.5 23.1999 112.5 27.1999 115C31.2999 117.5 39.3999 121.6 40.4999 122.4C41.6999 123.2 43.8999 124 45.7999 123.5C47.6999 123 64.6999 118.3 73.0999 115C81.3999 111.7 85.5999 110.3 87.0999 109.8C89.4999 109.1 88.8999 107.8 88.9999 106.9C88.9999 106 84.7999 103.7 81.8999 102C78.9999 100.3 61.5999 89.2002 61.5999 89.2002" stroke="#0D1117" stroke-linecap="round" stroke-linejoin="round"/>
<path d="M59.1001 93.2002C59.1001 93.2002 55.9001 94.1002 49.6001 95.9002C43.3001 97.7002 35.1001 100.2 31.5001 101.3C27.9001 102.4 22.1001 103.8 22.1001 103.8C22.1001 103.8 27.6001 107 31.6001 109C35.6001 111 44.7001 116.7 44.7001 116.7C44.7001 116.7 51.6001 114.3 57.2001 112.4C62.8001 110.5 79.7001 105.4 79.7001 105.4C79.7001 105.4 74.4001 102.1 68.6001 98.5002C62.8001 94.9002 59.2001 93.2002 59.2001 93.2002H59.1001Z" stroke="#0D1117" stroke-linecap="round" stroke-linejoin="round"/>
<path d="M30.8999 106.1C30.8999 106.1 50.0999 99.8998 54.6999 98.7998C59.2999 97.5998 62.4999 96.7998 62.4999 96.7998" stroke="#0D1117" stroke-linecap="round" stroke-linejoin="round"/>
<path d="M43.1001 112.8C43.1001 112.8 62.3001 106.6 66.4001 105.4C70.5001 104.2 73.1001 103.3 73.1001 103.3" stroke="#0D1117" stroke-linecap="round" stroke-linejoin="round"/>
<path d="M37.2 109.3C37.4 109.2 51.0999 105.2 56.5999 103.2C62.0999 101.2 67.8 99.7998 67.8 99.7998" stroke="#0D1117" stroke-linecap="round" stroke-linejoin="round"/>
<path d="M57.3 96.7998C57.3 96.7998 62 98.5998 67 102L71.9001 105.5" stroke="#0D1117" stroke-linecap="round" stroke-linejoin="round"/>
<path d="M50.1001 98.3999C50.1001 98.3999 59.4001 103.8 63.6001 107.8" stroke="#0D1117" stroke-linecap="round" stroke-linejoin="round"/>
<path d="M30.8999 103.5C30.8999 103.5 39.3999 106.5 47.9999 112.8" stroke="#0D1117" stroke-linecap="round" stroke-linejoin="round"/>
<path d="M41.6001 100.8C41.6001 100.8 52.6001 107 55.4001 110.1" stroke="#0D1117" stroke-linecap="round" stroke-linejoin="round"/>
<path d="M61.2 67.6001C61.2 67.6001 61.9 71.9001 61.9 73.7001" stroke="#0D1117" stroke-linecap="round" stroke-linejoin="round"/>
<path d="M63.7 69.2998C63.7 69.2998 64.0999 71.1998 64.0999 72.2998" stroke="#0D1117" stroke-linecap="round" stroke-linejoin="round"/>
<path d="M13.5 60.0999C11.4 60.2999 9.19995 60.5999 9.19995 63.0999C9.19995 65.5999 11.1 79.6999 11.8 84.8999C12.5 90.0999 13.8 95.8999 15 96.0999C16.2 96.2999 19.1 95.4999 23.2 94.5999C27.2 93.6999 45.6 89.6999 48 89.0999C50.4 88.4999 55.0999 87.4999 56.2999 86.8999C57.4999 86.2999 57.0999 83.6999 56.7999 80.5999C56.4999 77.4999 54.8999 69.5999 54.2999 66.1999C53.6999 62.7999 53.5 59.9999 53.5 59.9999C53.5 59.9999 53.6 55.9999 50.2 55.8999C46.8 55.8999 15.6 59.6999 13.5 59.8999V60.0999Z" stroke="#0D1117" stroke-linecap="round" stroke-linejoin="round"/>
<path d="M7.4999 59C7.4999 59 4.6999 63.8 4.3999 65" stroke="#0D1117" stroke-linecap="round" stroke-linejoin="round"/>
<path d="M4.9999 60L3.8999 62.6" stroke="#0D1117" stroke-linecap="round" stroke-linejoin="round"/>
<path d="M18.3 103.2L19.9 107.6" stroke="#0D1117" stroke-linecap="round" stroke-linejoin="round"/>
<path d="M16 103.8L16.4 105.7" stroke="#0D1117" stroke-linecap="round" stroke-linejoin="round"/>
<path d="M120.7 99.8002C120.7 99.8002 109.5 94.6002 101.9 92.8002C94.3 91.0002 87.2 90.3002 86.1 91.4002C85 92.5002 83.8 98.0002 86.9 99.8002C90 101.6 109.5 106 114 106.9C118.5 107.8 121.3 108.1 121.3 108.1C121.3 108.1 117.9 105.2 120.7 99.8002Z" stroke="#0D1117" stroke-linecap="round" stroke-linejoin="round"/>
<path d="M155.5 80.6001C155.5 80.6001 147.1 86.7001 138.4 90.8001C129.7 95.0001 120.7 99.7001 120.7 99.7001" stroke="#0D1117" stroke-linecap="round" stroke-linejoin="round"/>
<path d="M86 91.3998C86 91.3998 85.8 90.0998 95.3 83.6998C104.8 77.2998 121.5 68.2998 123.2 67.9998C124.9 67.6998 131.8 70.4998 135.9 72.1998C140 73.8998 155.5 80.6998 155.5 80.6998C155.5 80.6998 152.5 85.8998 153.8 90.2998C153.8 90.2998 123.9 107.7 121.2 108.2" stroke="#0D1117" stroke-linecap="round" stroke-linejoin="round"/>
<path d="M91.1 89.2999C91.1 89.2999 115.5 72.4999 122.6 70.3999" stroke="#0D1117" stroke-linecap="round" stroke-linejoin="round"/>
<path d="M122.7 101.9C122.7 101.9 149.5 87.4001 151.7 86.1001" stroke="#0D1117" stroke-linecap="round" stroke-linejoin="round"/>
<path d="M151.2 88.7998C151.2 88.7998 128.2 102 124 103.8" stroke="#0D1117" stroke-linecap="round" stroke-linejoin="round"/>
<path d="M110.7 82.2002L129.6 90.2002" stroke="#0D1117" stroke-linecap="round" stroke-linejoin="round"/>
<path d="M125.7 75.2998V77.2998" stroke="#0D1117" stroke-linecap="round" stroke-linejoin="round"/>
<path d="M127.6 78.1998L129.2 77.2998" stroke="#0D1117" stroke-linecap="round" stroke-linejoin="round"/>
<path d="M132.5 79.8999L131.4 80.7999" stroke="#0D1117" stroke-linecap="round" stroke-linejoin="round"/>
<path d="M87.5 94C87.5 94 107.7 96.7 116.6 101.5" stroke="#0D1117" stroke-linecap="round" stroke-linejoin="round"/>
<path d="M87.5 96.2998C87.5 96.2998 100.9 102.3 116.1 103.8" stroke="#0D1117" stroke-linecap="round" stroke-linejoin="round"/>
<path d="M66.1001 43.1998C69.1001 44.1998 72.1001 44.7998 74.7001 44.8998C74.7001 44.8998 78.3001 44.8998 75.9001 41.4998C73.5001 38.1998 66.4001 33.9998 59.9001 32.6998C53.4001 31.4998 51.4001 33.6998 53.9001 36.6998C54.8001 37.7998 56.9001 39.0998 59.4001 40.3998" stroke="#0D1117" stroke-linecap="round" stroke-linejoin="round"/>
<path d="M64.2 33.8999C64.2 33.8999 61.3 34.0999 60 36.8999C58.7 39.6999 60.3 42.4999 62.2 43.1999C65.8 44.3999 67.8 42.4999 68.7 39.8999C69.6 37.2999 68.7 35.8999 68.7 35.8999" stroke="#0D1117" stroke-linecap="round" stroke-linejoin="round"/>
<path d="M52.8 33.7001C52.8 33.7001 54.7 28.3001 59.6 25.0001C64.5 21.7001 68.7001 19.6001 74.4001 21.9001C80.1001 24.2001 80.3001 32.5001 79.4001 37.4001C78.5001 42.3001 76.4001 44.2001 76.4001 44.2001" stroke="#0D1117" stroke-linecap="round" stroke-linejoin="round"/>
<path d="M76.2 26.5C76.2 26.5 77.6 30 77.8 31.4" stroke="#0D1117" stroke-linecap="round" stroke-linejoin="round"/>
<path d="M77.7 33.7002V34.8002" stroke="#0D1117" stroke-linecap="round" stroke-linejoin="round"/>
<path d="M63 31.3999C63 31.3999 69.8 33.1999 73.3 36.1999C76.8 39.0999 77.9 40.3999 78.1 41.5999" stroke="#0D1117" stroke-linecap="round" stroke-linejoin="round"/>
<path d="M60.9001 30.6998C60.9001 30.6998 56.5 30.0998 54.3 30.6998" stroke="#0D1117" stroke-linecap="round" stroke-linejoin="round"/>
<path d="M72.3 21.1999C72.3 21.1999 72.5 18.3999 74.6 18.2999C76.7 18.1999 78.8 20.5999 76.3 22.9999" stroke="#0D1117" stroke-linecap="round" stroke-linejoin="round"/>
<path d="M78.1 24.7001C78.1 24.7001 91.3 23.9001 100.1 28.4001" stroke="#0D1117" stroke-linecap="round" stroke-linejoin="round"/>
<path d="M101.9 26.3999C101.9 26.3999 94.1 21.3999 77 22.0999" stroke="#0D1117" stroke-linecap="round" stroke-linejoin="round"/>
<path d="M106.6 28.6998C106.6 28.6998 106.6 26.0998 103.6 25.9998C100.7 25.8998 99.6 28.5998 100.3 30.3998C101 32.1998 106.9 33.0998 106.6 28.6998Z" stroke="#0D1117" stroke-linecap="round" stroke-linejoin="round"/>
<path d="M104.6 28.7001C104.6 28.7001 104.7 27.6001 103.3 27.6001C101.9 27.6001 101.8 29.0001 102.3 29.8001C102.8 30.5001 104.6 30.4001 104.5 28.8001L104.6 28.7001Z" stroke="#0D1117" stroke-linecap="round" stroke-linejoin="round"/>
<path d="M104.6 31.7998L90.8 83.0998C90.8 83.0998 89.8 83.4998 88.7 83.0998C87.6 82.6998 87.7 81.7998 87.7 81.7998L102.1 31.7998" stroke="#0D1117" stroke-linecap="round" stroke-linejoin="round"/>
<path d="M81.6 82C81.6 82 79 83.8 82 84.7" stroke="#0D1117" stroke-linecap="round" stroke-linejoin="round"/>
<path d="M77.7 84.2998C77.7 84.2998 77 88.0998 77.7 88.8998C78.2 89.5998 81.2 90.7998 86.1 91.2998" stroke="#0D1117" stroke-linecap="round" stroke-linejoin="round"/>
<path d="M88.6 88.2C85.1 88.1 80.9 87.7 79 86.4C76.6 84.9 77.7 82.1 80.2 80.6C82.6 79.2 88.4 78.5 88.4 78.5" stroke="#0D1117" stroke-linecap="round" stroke-linejoin="round"/>
<path d="M92.2 78.8999C92.2 78.8999 96.9 79.2999 99.5 80.8999" stroke="#0D1117" stroke-linecap="round" stroke-linejoin="round"/>
<path d="M55.5 44L51.5 48" stroke="#0D1117" stroke-linecap="round" stroke-linejoin="round"/>
<path d="M59.2 47L57.4 49.5" stroke="#0D1117" stroke-linecap="round" stroke-linejoin="round"/>
<path d="M63 48L62.2 50.8" stroke="#0D1117" stroke-linecap="round" stroke-linejoin="round"/>
<path d="M66.8 47.7998V52.5998" stroke="#0D1117" stroke-linecap="round" stroke-linejoin="round"/>
<path d="M117 76.2998L117.5 76.4998C117.8 76.6998 118 76.7998 118.1 76.9998C118.2 77.1998 118.2 77.3998 118.1 77.7998C118.1 78.0998 117.9 78.3998 117.6 78.6998C117.4 78.9998 117.1 79.1998 116.7 79.2998C116.4 79.3998 116 79.4998 115.5 79.3998C115 79.3998 114.5 79.2998 114.1 79.0998H113.7C113.7 78.9998 113.1 79.3998 113.1 79.3998C112.9 79.5998 112.7 79.6998 112.6 79.7998C112.5 79.7998 112.4 79.7998 112.3 79.8998C112.1 79.8998 111.9 79.8998 111.8 79.8998C111.8 79.8998 111.8 79.6998 111.8 79.5998C111.8 79.5998 112.6 78.9998 114 77.9998C115.4 76.9998 116.2 76.4998 116.4 76.3998C116.4 76.3998 116.4 76.3998 116.5 76.3998C116.5 76.3998 116.5 76.3998 116.6 76.3998C116.6 76.3998 116.6 76.3998 116.7 76.3998C116.7 76.3998 116.7 76.3998 116.8 76.3998L117 76.2998ZM116.6 76.9998C115.3 77.8998 114.7 78.2998 114.6 78.3998C114.6 78.3998 114.9 78.5998 115.5 78.6998C116.1 78.6998 116.4 78.7998 116.6 78.6998C116.8 78.6998 116.9 78.4998 117 78.1998C117.1 77.8998 117.2 77.6998 117.1 77.4998C117.1 77.2998 116.9 77.1998 116.6 76.9998Z" fill="#0D1117" stroke="#0D1117" stroke-width="0.2" stroke-miterlimit="10"/>
<path d="M118.9 79.8998C118.9 79.8998 119 79.8998 119.2 79.8998C119.4 79.8998 119.9 79.6998 120.9 79.3998C121.8 79.0998 122.4 78.9998 122.4 78.9998C122.6 78.9998 122.7 78.9998 122.8 79.0998C122.8 79.1998 122.8 79.2998 122.7 79.3998C122.5 79.4998 121.8 79.6998 120.6 79.9998C119.5 80.2998 118.8 80.4998 118.8 80.4998L118 80.7998C118 80.7998 117.8 80.9998 117.5 81.1998C117.2 81.3998 117 81.5998 116.8 81.6998C116.6 81.7998 116.5 81.9998 116.4 81.9998C116.3 81.9998 116.1 82.0998 115.9 82.1998C115.7 82.1998 115.5 82.1998 115.4 82.1998C115.4 82.1998 115.4 81.9998 115.4 81.8998C115.4 81.7998 115.7 81.5998 116.1 81.2998C117.1 80.5998 117.8 79.8998 118.2 79.2998C118.6 78.6998 119 78.2998 119.2 78.0998C119.4 77.8998 119.6 77.7998 119.8 77.7998C120 77.7998 120.1 77.7998 120.2 77.8998C120.2 77.8998 120.2 78.0998 120 78.3998C119.8 78.5998 119.6 78.8998 119.3 79.1998C119.1 79.4998 119 79.6998 119 79.6998L118.9 79.8998Z" fill="#0D1117" stroke="#0D1117" stroke-width="0.2" stroke-miterlimit="10"/>
<path d="M123.9 81.1997C123.9 81.1997 123.8 81.1997 123.7 81.1997C123.6 81.2997 123.1 81.6997 122.1 82.2997C121.1 82.8997 120.6 83.2997 120.4 83.4997C120.2 83.5997 120 83.6997 119.9 83.6997C119.8 83.6997 119.7 83.6997 119.6 83.6997C119.5 83.6997 119.4 83.6997 119.4 83.4997C119.4 83.4997 119.5 83.2997 119.8 82.9997C120.1 82.7997 120.7 82.2997 121.7 81.5997L123 80.6997L122.6 80.4997C122.4 80.3997 122.2 80.2997 122.2 80.1997C122.2 80.1997 122.2 79.9997 122.4 79.8997C122.6 79.7997 122.8 79.6997 123 79.7997C123.2 79.7997 123.5 79.9997 123.8 80.0997C124.1 80.2997 124.3 80.3997 124.4 80.3997C124.5 80.3997 124.7 80.3997 124.9 80.4997C125.2 80.4997 125.3 80.4997 125.4 80.4997C125.5 80.4997 125.6 80.4997 125.6 80.6997C125.6 80.6997 125.6 80.7997 125.4 80.8997C125.2 80.9997 125.1 81.0997 125 81.0997C124.9 81.0997 124.6 81.0997 124.3 81.0997C124 81.0997 123.8 81.0997 123.7 81.0997L123.9 81.1997Z" fill="#0D1117" stroke="#0D1117" stroke-width="0.2" stroke-miterlimit="10"/>
<path d="M125.2 81.8996C125.8 81.4996 126.2 81.1996 126.3 81.0996C126.4 81.0996 126.6 81.0996 126.8 81.0996C127 81.0996 127 81.1996 127 81.2996C127 81.2996 126.8 81.4996 126.6 81.6996C126.4 81.8996 126 82.1996 125.4 82.6996C125.4 82.6996 125.4 82.7996 125.4 82.8996C125.4 82.8996 125.7 83.0996 126.2 83.3996C126.7 83.6996 126.9 83.7996 126.9 83.8996C126.9 83.8996 127 83.8996 127.2 83.7996C127.3 83.7996 127.7 83.4996 128.4 83.0996C129 82.6996 129.4 82.4996 129.6 82.4996C129.8 82.4996 129.9 82.4996 129.9 82.4996C129.9 82.4996 130 82.5996 130 82.6996C130 82.6996 129.9 82.8996 129.7 82.9996C129.5 83.0996 129 83.4996 128 84.0996C127.1 84.6996 126.4 85.0996 126.1 85.3996C125.8 85.6996 125.5 85.8996 125.4 85.8996C125.3 85.8996 125.2 85.9996 125.1 85.9996C125 85.9996 124.9 85.9996 124.8 85.9996C124.7 85.9996 124.6 85.9996 124.6 85.8996C124.6 85.7996 124.9 85.4996 125.6 84.9996L126.2 84.4996C125.4 83.9996 124.8 83.6996 124.6 83.4996C124.4 83.6996 124.1 83.8996 123.7 84.1996C123.4 84.4996 123.1 84.6996 123 84.7996C122.9 84.7996 122.7 84.8996 122.5 84.7996C122.4 84.7996 122.3 84.7996 122.3 84.6996C122.3 84.6996 122.3 84.4996 122.6 84.1996C122.8 83.8996 123.2 83.5996 123.6 83.2996C123.8 83.0996 123.9 82.9996 123.9 82.8996C123.9 82.7996 123.9 82.6996 124.1 82.5996C124.4 82.4996 124.8 82.1996 125.4 81.7996L125.2 81.8996Z" fill="#0D1117" stroke="#0D1117" stroke-width="0.2" stroke-miterlimit="10"/>
<path d="M128 84.9999C128.6 84.5999 129.2 84.2999 129.8 84.1999C130.5 83.9999 131.1 83.9999 131.7 84.0999C131.9 84.0999 132.1 84.0999 132.2 84.2999C132.3 84.2999 132.4 84.4999 132.5 84.6999C132.7 84.9999 132.7 85.2999 132.5 85.6999C132.3 86.0999 132.1 86.3999 131.7 86.6999C131.3 86.9999 130.8 87.1999 130.1 87.2999C129.4 87.3999 128.8 87.4999 128.3 87.3999C127.8 87.3999 127.4 87.1999 127.2 86.8999C127 86.5999 126.9 86.3999 127.1 85.9999C127.3 85.5999 127.5 85.3999 128 85.0999V84.9999ZM131.5 84.9999C131.5 84.7999 131.4 84.7999 131.3 84.6999C131.3 84.6999 131.1 84.6999 130.9 84.6999C130.5 84.6999 130.1 84.6999 129.8 84.6999C129.5 84.6999 129.1 84.8999 128.8 85.1999C128.4 85.3999 128.2 85.6999 128.1 85.8999C128.1 86.0999 128.1 86.2999 128.5 86.4999C128.7 86.4999 128.9 86.5999 129.1 86.5999C129.3 86.5999 129.6 86.5999 129.9 86.5999C130.2 86.5999 130.5 86.4999 130.7 86.3999C130.9 86.2999 131.1 86.1999 131.2 86.0999C131.5 85.6999 131.6 85.3999 131.5 85.0999V84.9999Z" fill="#0D1117" stroke="#0D1117" stroke-width="0.2" stroke-miterlimit="10"/>
<path d="M132.2 86.9999C132.8 86.4999 133.2 86.1999 133.3 86.0999C133.5 85.9999 133.6 85.8999 133.8 85.8999C134 85.8999 134.1 85.8999 134.2 85.8999C134.2 85.8999 134.3 85.8999 134.3 85.9999C134.3 86.0999 134.3 86.0999 134.3 86.1999C134.2 86.3999 134.1 86.6999 134.1 86.9999C134.1 87.2999 134.1 87.5999 134.1 87.9999C134.1 88.3999 134.1 88.5999 134.2 88.6999C134.2 88.6999 134.3 88.6999 134.5 88.4999C135 88.0999 135.5 87.7999 136 87.3999C136.4 87.0999 136.7 86.8999 136.9 86.7999C137 86.7999 137.2 86.5999 137.3 86.5999C137.4 86.5999 137.5 86.5999 137.7 86.5999C137.8 86.5999 137.9 86.6999 137.9 86.7999C137.9 86.7999 137.7 86.9999 137.4 87.2999C137.1 87.5999 136.5 87.9999 135.7 88.5999C134.9 89.1999 134.5 89.4999 134.4 89.4999C134.3 89.4999 134.2 89.4999 134 89.4999C133.7 89.4999 133.5 89.4999 133.4 89.1999C133.3 88.9999 133.2 88.5999 133.2 87.9999C133.2 87.3999 133.2 87.0999 133.2 87.0999C133.2 87.0999 133 87.2999 132.6 87.5999C132.2 87.8999 132 88.0999 131.9 88.1999C131.8 88.1999 131.7 88.2999 131.6 88.2999C131.3 88.2999 131.2 88.2999 131.1 88.2999C131.1 88.1999 131.1 87.9999 131.3 87.8999C131.5 87.6999 131.9 87.3999 132.5 86.8999L132.2 86.9999Z" fill="#0D1117" stroke="#0D1117" stroke-width="0.2" stroke-miterlimit="10"/>
</svg>
