<svg width="156" height="142" fill="none" xmlns="http://www.w3.org/2000/svg"><path d="M127.596 8.18c-.313-.254-.685-.51-1.037-.784.352-1.393.763-3.237.744-4.277-.059-1.844-1.996-2.59-1.996-2.59l-1.174 1.648-1.741 2.276-.059.275c-2.582-1.374-5.634-2.531-8.999-2.806-6.124-.51-16.082 1.374-16.082 1.374S96.136 1.785 94.61 2c-1.526.216-.763 2.923-.763 2.923s-4.48 3.335-7.16 6.415c-2.68 3.08-3.815 5.768-5.165 10.908S81.13 32.45 83.36 35.254c2.23 2.806 5.536 6.788 10.271 8.907 4.735 2.12 8.98 4.297 14.556 3.983 5.576-.294 9.802-.589 12.932-2.453 3.131-1.863 7.533-5.238 9.548-9.318 2.015-4.081 4.284-10.81 3.991-16.107-.293-5.278-3.991-9.79-7.024-12.144l-.039.059z" fill="#FDAE1E"/><path d="M84.632 13.713s-1.76 2.276-2.21 3.865c0 0 1.78 2.315 6.651 3.316 4.872 1 9.587 2.119 9.587 2.119l12.776 3.472s2.367.432 5.184-.961c2.818-1.413 5.205-2.002 7.141-1.923 1.937.079 3.542-.608 4.833-2.001 1.291-1.393 4.128-4.434 4.128-4.434l1.135-.687-.978-2.51s-2.583-.51-5.029-1.766c-2.445-1.236-4.206-2.002-5.712-1.962-1.507.039-2.211 1.079-4.539.961-2.329-.118-3.287-.334-6.065-.118-2.779.216-7.357 4.061-7.357 4.061s-3.541 3.65-10.095 2.413c-6.554-1.235-9.43-3.825-9.43-3.825l-.02-.02z" fill="#0D1117"/><path d="M18.935 39.434s-7.963 8.083-10.291 14.478l19.193 1.785s-1.116 5.2.919 10.438 8.08 5.552 10.741 7.612c2.66 2.06 5.87 4.669 5.87 4.669l7.375 17.068s2.367 8.887 6.163 13.498c3.776 4.61 10.956 7.004 10.956 7.004l19.252 1.255s5.282 1.158 7.376 4.238l-7.376 12.438 8.432-2.55 6.143-3.12 5.361-14.145 1.233-3.178V50.145l-39.423-3.394s-3.756 1.236-8.687 1.845c-4.91.608-8.686 0-8.686 0s-17.784-2.943-24.24-5.18c-6.438-2.236-10.292-3.982-10.292-3.982h-.02z" fill="#9858F7"/><path d="M70.84 48.183s6.28-5.14 10.603-4.512c4.305.628 7.885 2.217 7.885 2.217s4.343 2.884 6.515 3.413c2.172.51 7.337.844 7.337.844s-2.133 2.06-1.957 6.023c.176 3.963-1.33 8.102-1.33 8.102s2.954-1.844 5.576-3.354c2.621-1.511 4.91-3.041 5.732-4.728.822-1.688.783-2.806.783-2.806l3.6.177s1.663.098 2.445-1.472l1.839.216s-.137 3.453 3.013 4.709c3.15 1.255 7.689 1.922 7.689 1.922l3.189-.078s-.978-2.786-1.722-5.827c-.743-3.041-2.836-6.259-2.836-6.259l-2.955-1.667 3.581-1.04s1.76-1.53 3.6-1.275a71.3 71.3 0 0 1 2.993.47s6.358 3.316 9.489 7.142c3.13 3.826 0 10.045 0 10.045s-1.781 3.08-4.207 4.669c-2.426 1.59-4.147 2.472-4.147 2.472l-2.055-.432-2.054-.117.333 4.355-.039 4.1-1.761.785-2.015.883.273.55-5.458 1.47s-2.446-1-4.891-1.137c-2.446-.138-4.539 1.981-4.539 1.981l-8.765-1.197-.626-.784-2.23-.412s.723.922-1.703.314c-2.426-.628-8.412-2.433-8.412-2.433s.097-.608-.724-1.08c-.822-.47-1.252-.47-1.252-.47s-.372.49-1.78-.196c-1.41-.687-5.381-2.845-5.381-2.845s2.152-.824 3.267-3.865c1.115-3.04 1.39-5.12 1.39-5.12s-2.837.274-6.3 1.177c-3.463.902-3.659 2.805-3.659 2.805l4.656 6.75s.43 1.804-3.287 4.354c-3.717 2.551-5.673 1.197-5.673 1.197l-8.472-5.552s-4.304-4.846-5.165-9.495c-.86-4.65 2.387-8.377 2.387-8.377l7.259-6.612h-.04z" fill="#CDF567"/><path d="M66.907 73.864s-2.172.942-2.191 4.12c-.02 3.178 3.99 6.102 7.806 6.22 3.795.117 9.41-.55 11.758-2.512 2.348-1.962 2.72-2.393 2.133-4.061-.587-1.668-2.622-4.944-2.622-4.944s.098 3.414-4.754 5.022c-4.833 1.61-6.515-.549-6.515-.549l-5.615-3.296zM133.387 67.037l4.128.55s1.898 1.844 1.937 3.315c.039 1.471 0 3.04 0 3.04s2.642-.352 2.426 2.198c-.215 2.55-1.584 4.277-1.584 4.277l-3.385 1.785-1.448.118-2.054-.451.861-2.119-.548-4.238-.313-8.455-.02-.02zM75.515 86.244s7.885 4.002 15.045 10.3c7.161 6.317 10.487 9.848 10.487 9.848s-5.674 3.688-10.721 10.3c-5.028 6.611-8.59 12.752-8.59 12.752s1.37 2.413-.723 5.277c-2.094 2.845-12.58 4.944-12.58 4.944l-8.276.981-3.678-.824-.704-.824s-3.992.157-4.794-2.315c-.802-2.472 0-3.08 0-3.08s-.645-2.158.47-3.374c1.115-1.217 7.982-3.63 7.982-3.63l9.274-3.08.822-3.884s.743-10.241 1.29-15.715c.549-5.474 4.677-17.657 4.677-17.657l.02-.02zM107.073 106.647s5.243 6.219 7.18 10.614c1.937 4.394 2.994 7.651 2.994 7.651l.508 5.297s.431 2.452 5.439 4.1c5.009 1.648 13.852 1.59 13.852 1.59l3.306-1.472s2.798.314 4.305-.118c1.506-.431 1.213-2.099 1.213-2.099s1.623-1.353 1.389-2.766c-.235-1.413-3.972-3.728-3.972-3.728l-9.039-3.433s-1.878-6.023-4.187-10.496c-2.328-4.473-3.521-15.244-3.521-15.244s-1.115 2.924-8.374 6.69c-7.258 3.767-11.093 3.414-11.093 3.414z" fill="#FDAE1E"/><path d="m73.99 89.677-2.25 8.75s-1.448.922-7.826.981c-6.379.059-12.287-4.865-12.287-4.865s-5.009-4.944-5.693-10.124c-.685-5.179.489-11.751.489-11.751s4.108-8.71 3.737-14.479c-.372-5.768-8.726-7.945-8.726-7.945l-4.833-.098s-4.245-1.354-1.8-5.63c2.446-4.278 13.304 0 13.304 0s8.002 3.942 8.98 11.162c.979 7.22-1.252 13.694-1.252 13.694s-3.58 6.435-2.778 13.38c.802 6.945 6.906 9.005 9.822 9.22 2.934.197 7.023-.706 7.023-.706l4.07-1.589h.02z" fill="#FDAE1E"/><path d="m76.317 84.204-.802 2.04s4.5 1.609 9.763 5.945c5.263 4.355 9.9 8.004 9.9 8.004l5.85 6.18s7.004.078 9.821-.53c2.837-.628 10.624-3.59 14.693-7.906 4.069-4.316 6.045-10.477 6.045-10.477l1.781-5.59-46.975-4.258s-.41 3.217-3.15 4.728c-2.758 1.51-6.925 1.844-6.925 1.844v.02z" fill="#CDF567"/><path d="m84.437 70.922-.646 1.746s2.25 2.256 2.309 4.198c.058 1.943.313 2.747.313 2.747l2.387 1.02s-.372.51.293.961c.665.452 2.093.55 2.093.55s.353-.452 1.566-.04c1.213.393 9.684 2.688 9.684 2.688s-.43 1.02.744.962c1.173-.06 1.995-.412 1.995-.412l6.809.941h3.736s2.113 1.275 4.833 1.197c2.719-.078 5.008-2.256 5.008-2.256l4.97-1.687 2.856-1.648.861-2.12-.548-4.237-3.776 1.668s-.019.451-2.152 1.099c-2.132.647-3.052.902-3.052.902s-2.152-1.118-4.891-1.138c-2.739-.02-4.539 1.982-4.539 1.982l-4.441-.55-4.324-.647-.626-.785-2.23-.412s-.294.687-1.702.314c-1.409-.373-8.413-2.433-8.413-2.433v-.824l-1.976-.726s-.685.177-1.78-.196c-1.096-.373-5.38-2.844-5.38-2.844l.019-.02zM70.84 48.184c0-1.432.919-6.023 3.482-7.004 0 0 .763-2.61 3.58-3.276 2.817-.667 6.593-1.177 6.593-1.177l3.894 4.041s5.087 4.551 11.523 5.984c6.437 1.432 14.224 2.256 19.721-.314 5.498-2.57 9.137-7.024 9.137-7.024l4.167.883 3.483 2.943s-1.996-.432-3.952-.294c-1.937.137-3.776 1.589-3.776 1.589l-2.465.55s3.443-.197 4.617 3.864 1.819 7.651 1.819 7.651l1.076 2.237s-4.93-.118-7.199-.451c-2.27-.334-5.028-2.217-5.028-2.217l-1.644-3.885-1.839-.216s-.098 1.217-2.446 1.472c-2.347.255-3.599-.177-3.599-.177s-.157 2.766-4.168 6.082c-4.01 3.316-7.923 4.807-7.923 4.807s1.213-3.67 1.33-7.063c.117-3.394.567-4.905.567-4.905l1.37-2.158-5.83-.353-8.022-3.885s-3.932-2.334-7.884-2.216c-3.952.098-10.604 4.512-10.604 4.512h.02zM71.035 75.748c.509.333 4.656-.216 7.16-1.786 2.505-1.57 3.855-3.786 3.855-3.786l1.721 2.511s-.489 2.08-3.286 4.355c-2.818 2.276-5.674 1.197-5.674 1.197l-3.776-2.472v-.02zM132.859 63.78l.548 3.257 4.128.55 2.837-1.55s-2.915-2.433-7.513-2.257z" fill="#9858F7"/><path d="m89.093 81.594 2.094.55 2.406-7.456-1.976-.726s-2.387 5.101-2.524 7.652v-.02zM103.688 77.612l-1.428 8.122 2.191.04 1.292-3.454.195-4.277-2.25-.431zM129.924 77.16l.626 6.337 2.113-.726-.723-6.494-2.016.883z" fill="#9858F7"/><path d="M113.979 24.386c3.231 0 5.85-2.626 5.85-5.866 0-3.24-2.619-5.866-5.85-5.866-3.23 0-5.85 2.627-5.85 5.866 0 3.24 2.62 5.866 5.85 5.866z" fill="#fff"/><path d="M122.998 22.13a4.995 4.995 0 0 0 4.989-5.002 4.995 4.995 0 0 0-4.989-5.003c-2.755 0-4.988 2.24-4.988 5.003s2.233 5.003 4.988 5.003z" fill="#fff"/><path d="M131.842 12.987c-1.761 1.432-5.028-1.471-6.75-2.178-1.311-.549-2.915-.863-4.461-.353-1.545.51-2.602 1.04-7.337.49-2.562-.293-4.793 1.119-6.788 2.492-1.996 1.374-6.437 5.376-13.696 3.846-4.539-.962-6.652-2.472-7.962-3.787-.666.412-2.407 2.845-2.407 4.022 1.546 1.373 4.09 2.962 9.313 3.904 8.374 1.491 16.317 4.552 20.445 4.983 1.682.177 3.717-.372 4.871-.941 2.309-1.119 3.522-2.08 6.222-1.943 4.559.236 6.887-3.923 6.887-3.923s2.034-2.649 3.658-3.12c-.371-1.589-1.995-3.531-1.995-3.531v.04zM137.457 125.717s8.393 2.727 8.412 6.494c.02 3.766-6.025 2.099-6.025 2.099" stroke="#0D1117" stroke-linecap="round" stroke-linejoin="round"/><path d="M107.073 106.647c1.272 1.491 4.559 5.474 6.065 8.397 4.656 9.044 4.461 11.732 4.461 12.948 0 1.216-.685 4.512 5.595 6.298 6.28 1.785 15.711 2.884 16.65 0 .958-2.884-5.87-5.474-8.061-5.611M133.446 121.989s6.045 2.296 8.354 3.198c2.289.903 8.061 4.63 4.206 7.063M80.093 131.386s9.528-17.009 20.954-24.994" stroke="#0D1117" stroke-linecap="round" stroke-linejoin="round"/><path d="M62.466 131.386s-6.554 1.295-6.965 6.357c-.411 5.061 12.15 2.04 15.964 1.236 3.816-.824 8.609-2.335 9.822-4.787 1.232-2.452.293-5.258.293-5.258" stroke="#0D1117" stroke-linecap="round" stroke-linejoin="round"/><path d="M59.766 128.169s-8.491 2.648-8.765 6.866c-.274 4.218 4.774 3.944 4.774 3.944" stroke="#0D1117" stroke-linecap="round" stroke-linejoin="round"/><path d="M51 133.584s-1.584-2.472 3.953-5.415 11.973-3.551 13.793-4.689M68.726 123.48s.998-2.374 1.311-9.613c.254-5.846 1.233-18.069 6.28-29.565" stroke="#0D1117" stroke-linecap="round" stroke-linejoin="round"/><g stroke="#0D1117" stroke-linecap="round" stroke-linejoin="round"><path d="M133.387 81.868s3.522 1.687 6.887-1.452c3.365-3.139 1.937-7.043-.587-6.631"/><path d="M139.237 76.59s-.489-1.549.176-4.001c.665-2.453-1.917-4.983-1.917-4.983s8.491-3.434 9.723-10.987c.47-2.864-.606-5.728-2.621-7.808-1.585-1.629-4.402-3.767-8.237-5.552"/></g><path d="M126.54 96.543c1.154 7.632 5.223 23.464 8.158 25.917M123.292 23.562c.782 1 1.213 2.04 1.213 2.04m0 0s-.704 2.865-1.702 2.688c-.998-.177-2.602-2.119-2.602-2.119s2.7-1.196 4.304-.569z" stroke="#0D1117" stroke-linecap="round" stroke-linejoin="round"/><g stroke="#0D1117" stroke-linecap="round" stroke-linejoin="round"><path d="M103.551 7.102s-2.758-1.354-3.893-2.001c-.665-.373-2.446-1.805-3.835-2.923-.763-.628-1.917-.118-1.976.863-.098 1.903-.117 4.512.43 5.925.92 2.433 2.388 3.453 2.388 3.453"/><path d="M99.13 10.222s-.353-1.295-1.39-3.16c-3.012-5.335-3.697-4.59-3.697-4.59"/><path d="M96.254 12.085s-.979-2.315-1.194-4.14c-.215-1.824.509-4.276.509-4.276"/></g><path d="M122.353 4.473c1.037-.726 1.702-2.08 2.191-3.257.352-.863 1.565-.922 1.996-.098.763 1.432 1.33 3.61.195 6.2M126.95 25.504s1.663 1.255-.352 3.708c-2.015 2.452-3.267-.608-3.267-.608s.411 2.413-3.6 3.119c-4.011.706-5.165-3.198-5.165-3.198" stroke="#0D1117" stroke-linecap="round" stroke-linejoin="round"/><path d="M126.148 28.702s4.07-1.02 10.761 3.649M125.737 26.995s3.17-2.746 11.25-1.589M120.122 29.977s-4.108.825-8.158 7.927M119.223 28.518s-4.049-1.099-10.838 3.413M114.242 24.57c3.355-.202 5.914-3.031 5.717-6.32-.197-3.287-3.076-5.789-6.431-5.586-3.354.202-5.913 3.031-5.716 6.32.197 3.287 3.076 5.788 6.43 5.586z" stroke="#0D1117" stroke-linecap="round" stroke-linejoin="round"/><path d="M118.185 14.38a5.109 5.109 0 0 1 3.953-2.236c2.817-.176 5.223 1.923 5.399 4.689.176 2.766-1.976 5.12-4.793 5.297a5.148 5.148 0 0 1-3.346-.961" stroke="#0D1117" stroke-linecap="round" stroke-linejoin="round"/><path d="M117.579 19.206a.96.96 0 0 0 0-1.922.96.96 0 0 0 0 1.922z" fill="#0D1117"/><path d="M85.004 13.713c2.172-3.492 5.146-6.592 8.785-8.77M133.798 16.636c.939 2.531 1.096 5.454.665 8.495-.704 4.924-3.991 19.854-19.603 22.581-13.187 2.296-26.021-3.943-31.773-12.732-2.896-4.434-2.759-10.967-.255-17.049M97.212 3.315c2.485-.549 10.546-2.118 18.508-.96 7.963 1.157 13.989 7.14 16.728 11.574" stroke="#0D1117" stroke-linecap="round" stroke-linejoin="round"/><path d="M124.387 29.957s1.155.55.842 1.845c-.529 2.138-4.109 1.805-4.109 1.805" stroke="#0D1117" stroke-linecap="round" stroke-linejoin="round"/><path d="M125.072 17.794a.96.96 0 0 0 .959-.961.96.96 0 1 0-1.917 0c0 .53.429.961.958.961z" fill="#0D1117"/><g stroke="#0D1117" stroke-linecap="round" stroke-linejoin="round"><path d="M91.46 61.955s-10.682-.922-13.95 5.513"/><path d="M66.907 73.864s-2.27.608-2.191 4.12c.078 3.511 4.187 6.65 10.74 6.297 6.555-.353 10.566-2.982 10.82-5.513.254-2.53-1.487-4.806-2.798-6.474-1.31-1.668-4.363-6.376-4.363-6.376M89.093 62.29c-.215 2.706-1.839 6.925-5.36 10.103"/><path d="M72.463 77.16s-2.23 1.255-1.095 3.786"/><path d="M78.352 44.2c-5.674 1.785-17.628 10.83-17.471 16.186.176 5.748 3.091 13.046 13.93 17.833 0 0 6.495.844 8.921-4.983"/></g><path d="M71.387 98.427c-2.015.549-4.44 1-7.004 1-4.989 0-10.565-1.628-14.85-7.18-6.651-8.613-3.345-17.99-1.389-23.582 2.25-6.356 3.366-10.496.138-14.44-3.346-4.08-7.611-4.237-9.607-4.04-.195.038-.391.078-.587.078-2.015.137-3.756-1.413-3.893-3.433a3.663 3.663 0 0 1 3.17-3.885c6.397-.863 12.442 1.55 16.59 6.611 6.085 7.416 3.209 15.578 1.115 21.542-2.152 6.12-3.62 11.594.274 16.636 2.68 3.453 6.222 4.356 9.41 4.356 4.383 0 8.648-2.06 9.587-2.57" stroke="#0D1117" stroke-linecap="round" stroke-linejoin="round"/><g stroke="#0D1117" stroke-linecap="round" stroke-linejoin="round"><path d="M56.518 53.872c3.659-.667 7.239-1.55 10.604-2.707M34.175 44.965c-9.156-2.628-15.24-5.512-15.24-5.512s-6.75 6.317-10.291 14.459c0 0 20.073 3.178 40.205 1.059M70.84 46.77c-6.222 1.903-10.624 2.57-17.354 1.962M46.423 74.158c-1.722.47-3.385.863-4.99 1.177M62.896 68.076a116.075 116.075 0 0 1-7.963 3.335M89.797 117.731c4.246 1.001 6.652 3.767 6.652 3.767M52.723 95.503c1.663 5.846 3.854 11.85 8.569 16.068 2.524 2.256 5.517 3.629 8.628 4.453"/><path d="M27.836 55.696s-1.389 10.379 3.229 13.596c3.463 2.433 10.017 4.905 14.497 9.338M110.262 110.629c-1.839 7.534-6.613 17.637-6.613 17.637-6.437 4.179-14.576 5.67-14.576 5.67 6.144-6.925 13.754-26.956 13.754-26.956"/></g><g stroke="#0D1117" stroke-linecap="round" stroke-linejoin="round"><path d="M106.701 48.086s-5.087 1.157-5.361 6.396c-.273 5.238-1.447 9.79-1.447 9.79s1.291-1.354 5.576-3.355c4.284-2.002 7.219-5.18 7.141-10.104"/><path d="M112.629 48.164s.646.746.665 1.432c.02.687-.684 1.119-2.054 1.57-1.369.451-3.111 1.412-3.619 2.236M112.414 53.049s.059.883 2.074.647c2.015-.255 3.463-.235 3.678-2.315.215-2.08-.47-3.237-1.076-3.767"/><path d="M120.201 46.32s1.506.57 1.741 2.394c.235 1.824.489 2.825-1.017 3.355-1.507.53-2.896 0-2.896 0"/><path d="M123.292 44.535s4.832.039 7.141 3.708c2.309 3.649 1.193 7.906 3.306 10.594 0 0-3.169.333-6.476-.295-3.286-.627-7.258-2.197-7.414-6.258"/><path d="M125.444 51.597c.157-.314.724-1.824-3.502-2.884M125.64 44.927s2.993.137 4.656-1.197c1.917-1.55 6.104-.47 6.104-.47s-1.702-3.395-6.104-2.884M84.495 36.982s-9.117-.079-9.665 3.668"/><path d="M103.473 49.85s-2.524.57-6.202-.136c-5.243-1.001-9-6.18-15.847-6.043-5.126.118-10.604 4.512-10.604 4.512s-.098-7.023 6.613-8.122c6.71-1.099 10.525.392 10.525.392"/></g><path d="M91.323 74.434c-4.362-1.864-6.886-3.512-6.886-3.512l-1.174 1.06M103.747 78.317a65.738 65.738 0 0 1-10.174-2.982M115.564 79.75c-2.974-.099-6.124-.432-9.391-.981M130.198 77.69c-1.467.55-4.069 1.236-5.83 1.53M132.585 82.085c1.683-1.59 1.644-2.845 1.644-2.845l-.274-3.963c-.822.706-.92.863-1.957 1.393M125.014 85.321c2.445-.49 4.226-1.138 5.517-1.805M104.901 85.283c3.463.627 7.141 1.02 10.839 1M91.304 81.594c2.935 1.06 6.789 2.276 11.093 3.198M86.1 79.475a40.23 40.23 0 0 0 2.7 1.157" stroke="#0D1117" stroke-linecap="round" stroke-linejoin="round"/><path d="M133.7 75.492c.216-6.533-.958-12.83-2.093-16.578M75.515 86.244s12.033 5.14 25.513 20.148c.997.118 2.034.177 3.091.177 11.856 0 25.121-6.357 28.779-24.23M131.372 40.316s-1.585-1.216-2.798-.667" stroke="#0D1117" stroke-linecap="round" stroke-linejoin="round"/><g stroke="#0D1117" stroke-linecap="round" stroke-linejoin="round"><path d="M120.554 87.463c3.353-.347 5.855-2.726 5.589-5.312-.267-2.587-3.201-4.402-6.555-4.055-3.353.348-5.855 2.727-5.589 5.313.267 2.587 3.201 4.402 6.555 4.054z"/><path d="M120.387 85.844c2.192-.227 3.828-1.783 3.654-3.475-.174-1.692-2.093-2.88-4.286-2.653-2.192.228-3.828 1.784-3.654 3.476.174 1.692 2.093 2.88 4.286 2.652zM103.316 78.042s.235-.47.372-.431m0 0c.137.039.098.941-.215 2.864s-1.213 4.807-1.213 4.807l2.426.45c1.467-3.138 1.487-7.65 1.487-7.65l-2.485-.471zM94.043 75.414s.059-.53-.098-.57m0 0c-.156-.038-.587.766-1.31 2.551-.725 1.786-1.468 4.728-1.468 4.728l-2.309-.883c.392-3.452 2.74-7.298 2.74-7.298l2.347.903zM129.787 77.61s0-.49.137-.45m0 0c.607.157.842 6.67.842 6.67l1.819-1.255c.059-2.924-.645-6.298-.645-6.298l-2.016.883z"/></g><path d="M70.84 76.14s7.766-.314 11.23-5.827M137.515 67.587s-2.249-.864-4.128-.432M140.352 65.919s-2.426-2.276-7.513-2.12" stroke="#0D1117" stroke-linecap="round" stroke-linejoin="round"/></svg>