<svg width="64" height="64" fill="none" xmlns="http://www.w3.org/2000/svg"><rect width="64" height="64" rx="16" fill="#0D1117"/><path d="m49.796 17.663-2.33 5.87M17.004 26.238s-.127-.664.293-.831c.414-.167 1.91 5.202 1.536 5.536-.374.334-.556-.628-.556-.628M21.4 16.624c-1.289.79-3.28 1.874-1.991 7.076 1.288 5.202 2.617 9.613 6.477 9.157 3.86-.456 13.784-3.621 19.22-3.702 5.437-.081 10.212-1.5 10.46-3.956.247-2.456-1.617-9.902-2.491-11.193-.875-1.292-1.91-2.29-7.18-1.292s-23.207 3.12-24.495 3.91z" stroke="#B8E024" stroke-width="1.2" stroke-linecap="round" stroke-linejoin="round"/><path d="M16.913 32.194c.404 1.246.834 2.284 1.248 2.7 1.162 1.164 4.027 2.04 6.973 1.083 2.945-.957 16.648-3.327 19.927-3.373 3.28-.045 6.184-.167 7.14-1.58.954-1.413 3.238-3.409 3.364-5.825M20.313 17.379s-2.395 2.284-3.723 3.363c-1.33 1.079-1.703 3.08-1.289 5.035.091.425.222 1.043.384 1.762" stroke="#B8E024" stroke-width="1.2" stroke-linecap="round" stroke-linejoin="round"/><path d="M18.727 29.49s-1.516 3.155-4.088 4.568c-2.572 1.413-5.482 3.662-5.603 4.913" stroke="#B8E024" stroke-width="1.2" stroke-linecap="round" stroke-linejoin="round"/><path d="M17.605 25.787s-1.723 1.904-4.007 3.15-5.81 3.292-5.23 7.952c.582 4.66 4.65 7.116 10.626 7.243 5.978.127 12.83-2.912 16.608-3.703 3.78-.79 7.1-.75 9.257-1.706 2.157-.958 4.593-2.816 4.962-6.453" stroke="#B8E024" stroke-width="1.2" stroke-linecap="round" stroke-linejoin="round"/><path d="M52.205 31.019s-1.783 6.7-2.99 9.405c-1.203 2.705-3.694 4.539-7.226 4.66-3.527.127-9.67 2.249-14.905 3.789-5.235 1.54-10.626 2.289-14.698-.75-4.073-3.039-3.896-4.74-3.856-6.655.04-1.915-.227-5.45-.227-5.45M41.191 29.276c.056-.005 4.406-9.658 4.406-9.658M31.075 20.595l2.577-6.062M28.377 18.62l-2.905 6.24" stroke="#B8E024" stroke-width="1.2" stroke-linecap="round" stroke-linejoin="round"/></svg>