<svg width="328" height="776" fill="none" xmlns="http://www.w3.org/2000/svg"><g clip-path="url(#a)" stroke-width="11" stroke-linecap="round" stroke-linejoin="round"><path d="M283.612 29c-6.376.584-9.665 7.82-11.209 14.041-1.543 6.22-3.44 13.53-9.403 15.873M91.612 754c-6.376.584-9.665 7.821-11.209 14.041-1.543 6.22-3.44 13.53-9.403 15.873" stroke="#fff" stroke-opacity=".4"/><path d="M116.885 21.093c-2.955-2.503-3.036-6.955-2.929-10.828.107-3.873-.115-8.359-3.201-10.702-3.744-2.84-10.158-1.179-12.81-5.06M205.062 192.364c-3.671-.867-7.373 1.312-10.125 3.889-2.752 2.576-5.117 5.686-8.474 7.409-3.35 1.721-8.215 1.411-10.048-1.881M236.756 428.844c-.79-3.689-4.346-6.099-7.853-7.48-3.508-1.382-7.331-2.185-10.328-4.48-2.99-2.288-4.796-6.816-2.608-9.884" stroke="#0D1117" stroke-opacity=".1"/><path d="M306 216c1.605 6.208 9.264 8.289 15.646 8.813 6.382.523 13.895 1.217 17.16 6.725" stroke="#fff" stroke-opacity=".4"/><path d="M335.806 715c-1.605 6.208-9.264 8.289-15.646 8.813-6.383.523-13.896 1.217-17.16 6.725M230.292 524.148c-6.185 1.69-11.795-3.924-15.419-9.203-3.624-5.28-7.958-11.457-14.36-11.554" stroke="#0D1117" stroke-opacity=".1"/><path d="M76.187 205c-.912 2.921 1.66 5.879 4.498 7.011 2.839 1.132 6.012 1.138 8.893 2.155 7.543 2.672 11.057 13.073 6.686 19.78" stroke="#fff" stroke-opacity=".4"/><path d="M17.806 433c-1.605 6.208-9.264 8.289-15.646 8.813-6.383.523-13.896 1.217-17.16 6.725" stroke="#0D1117" stroke-opacity=".1"/><path d="M160.504 611.354c3.694-.759 7.331 1.527 10.006 4.183 2.676 2.655 4.949 5.833 8.255 7.654 3.298 1.818 8.17 1.65 10.098-1.588M172 294.784c3.695-.76 7.331 1.527 10.007 4.182 2.675 2.656 4.948 5.834 8.254 7.655 3.298 1.817 8.17 1.649 10.099-1.588" stroke="#fff" stroke-opacity=".4"/><path d="M329.772 391.158c-3.872.067-6.868-3.226-9.342-6.208s-5.599-6.208-9.465-5.934c-4.686.335-8.412 5.812-12.965 4.644M102.461 580.493c-.287 3.047-3.801 4.782-6.857 4.729-3.056-.052-5.985-1.272-9.035-1.447-7.99-.45-15.249 7.787-13.808 15.662" stroke="#0D1117" stroke-opacity=".1"/><path d="M147.772 398.001c-3.872-.067-6.868 3.225-9.342 6.208-2.474 2.982-5.599 6.208-9.465 5.934-4.686-.335-8.412-5.813-12.965-4.644M311.187 588c-.912 2.921 1.659 5.879 4.498 7.011 2.839 1.132 6.012 1.138 8.893 2.155 7.543 2.672 11.057 13.073 6.686 19.78" stroke="#fff" stroke-opacity=".4"/></g><defs><clipPath id="a"><rect width="328" height="776" rx="30" fill="#fff"/></clipPath></defs></svg>
