<svg width="64" height="64" fill="none" xmlns="http://www.w3.org/2000/svg"><rect width="64" height="64" rx="16" fill="#0D1117"/><path d="M19.105 33.06c-1.692-.22-3.297-.763-4.6-1.631-.876-.582-1.644-1.326-1.77-2.194-.322-2.174 3.413-4.463 10.329-5.608 6.915-1.144 14.317.573 17.41 2.413 3.093 1.841 1.868 4.044-1.469 5.713-3.093 1.545-12.284 2.299-19.9 1.316v-.01zM43.159 32.192s1.721-.849 4.503-.248c2.782.6 4.017 2.87 2.82 6.848-1.196 3.977-4.668 6.723-7.216 6.437-2.549-.286-3.035-1.116-3.035-1.116" stroke="#B8E024" stroke-linecap="round" stroke-linejoin="round"/><path d="M42.847 35.31s2.17-1.43 4.192-.972c2.024.457 1.09 4.225-.243 6.027-1.332 1.803-3.414 2.995-5.476 1.908" stroke="#B8E024" stroke-linecap="round" stroke-linejoin="round"/><path d="M12.725 29.235S11.402 51 28.9 49.77c17.498-1.23 13.344-21.392 13.344-21.392" stroke="#B8E024" stroke-linecap="round" stroke-linejoin="round"/><path d="M37 31.736s-.517-1.618-4.021-2.271c-3.504-.654-7.784-.707-11.41.422C17.936 31.023 18 32 18 32M28.824 12s-4.127 1.99-2.403 5.57c1.724 3.58 5.16 4.895 2.748 7.43M32.03 15s-2.07 1.041-.342 3.232C33.416 20.422 32.94 21 32.94 21" stroke="#B8E024" stroke-linecap="round" stroke-linejoin="round"/></svg>